<?xml version="1.0" encoding="utf-8"?>
<!-- Generator: Adobe Illustrator 16.0.0, SVG Export Plug-In . SVG Version: 6.00 Build 0)  -->
<!DOCTYPE svg PUBLIC "-//W3C//DTD SVG 1.1//EN" "http://www.w3.org/Graphics/SVG/1.1/DTD/svg11.dtd">
<svg version="1.1" id="Layer_1" xmlns="http://www.w3.org/2000/svg" xmlns:xlink="http://www.w3.org/1999/xlink" x="0px" y="0px"
	 width="678.861px" height="55.558px" viewBox="0 0 678.861 55.558" enable-background="new 0 0 678.861 55.558"
	 xml:space="preserve">
<g>
	<path fill="#C04E36" d="M611.718,35.99c-0.014,0.02,0.134,0.098,0.207,0.146c0.14,0.049,0.281-0.004,0.388-0.17
		c0.012-0.018-0.126-0.107-0.207-0.145C611.971,35.765,611.824,35.826,611.718,35.99z"/>
	<path fill="#C04E36" d="M612.655,33.23c0.022-0.045,0.015-0.117-0.023-0.156c-0.225-0.227-0.896-0.201-1.021,0.035
		c0.008,0.055-0.007,0.119,0.029,0.156C611.861,33.5,612.536,33.474,612.655,33.23z"/>
	<path fill="#C04E36" d="M620.792,36.074c-0.139-0.049-0.283,0.002-0.39,0.17c-0.013,0.018,0.124,0.105,0.206,0.143
		c0.133,0.057,0.281-0.002,0.389-0.168C621.009,36.201,620.862,36.123,620.792,36.074z"/>
	<path fill="#C04E36" d="M616.67,33.66c0.155,0.09,0.275,0.072,0.379-0.104c0.022-0.031-0.04-0.104-0.086-0.141
		c-0.059-0.049-0.133-0.102-0.212-0.123c-0.085-0.018-0.253-0.018-0.263,0.006C616.419,33.451,616.506,33.562,616.67,33.66z"/>
	<path fill="#C04E36" d="M615.557,32.843c0.131,0.045,0.225,0.041,0.271,0.006c0.105,0.365,0.152,0.398,0.648,0.447
		c-0.104-0.369-0.152-0.404-0.645-0.449c0.045-0.039,0.039-0.111-0.03-0.207c-0.064-0.094-0.237-0.15-0.371-0.201
		c-0.027-0.01-0.185,0.121-0.171,0.139C615.34,32.677,615.428,32.8,615.557,32.843z"/>
	<path fill="#C04E36" d="M609.107,35.656c0.02-0.045,0.011-0.117-0.028-0.154c-0.22-0.229-0.892-0.203-1.019,0.035
		c0.008,0.053-0.008,0.119,0.028,0.156C608.309,35.925,608.99,35.9,609.107,35.656z"/>
	<path fill="#C04E36" d="M600.87,37.501c-0.065,0.055-0.198,0.141-0.185,0.158c0.132,0.16,0.285,0.213,0.412,0.146
		c0.075-0.039,0.201-0.135,0.186-0.152C601.154,37.494,601.007,37.447,600.87,37.501z"/>
	<path fill="#C04E36" d="M605.397,35.748c0.021-0.043,0.013-0.117-0.022-0.154c-0.226-0.234-0.897-0.207-1.021,0.035
		c0.009,0.053-0.007,0.119,0.03,0.154C604.603,36.011,605.281,35.99,605.397,35.748z"/>
	<path fill="#C04E36" d="M597.115,36.115c0.705-0.025,1.442-0.139,1.937,0.42c0.442-0.074,0.791,0.033,1.082,0.303
		c0.234,0.221,0.555,0.127,0.839,0.086c0.329-0.047,0.29-0.184-0.144-0.488c-0.307-0.213-0.623-0.416-0.915-0.641
		c-0.16-0.125-0.306-0.209-0.516-0.203c-0.411,0.01-0.823,0.021-1.236,0.031c-0.308,0.008-0.615,0.014-0.925,0.021
		c-0.66,0.02-1.081,0.15-0.956,0.299C596.494,36.183,596.82,36.125,597.115,36.115z"/>
	<path fill="#C04E36" d="M602.682,35.029c0.396,0.039,0.803,0,1.206-0.023c0.077-0.004,0.156-0.092,0.204-0.154
		c0.078-0.104-0.004-0.24-0.244-0.297c-0.181-0.043-0.394,0.002-0.595,0.006s-0.406-0.004-0.604,0.021
		c-0.076,0.012-0.155,0.092-0.204,0.154C602.368,34.841,602.448,35.007,602.682,35.029z"/>
	<path fill="#C04E36" d="M599.726,37.466c-0.166-0.055-0.394-0.004-0.595,0.002c-0.404,0.01-0.812-0.008-1.203,0.041
		c-0.221,0.029-0.31,0.186-0.246,0.291c0.039,0.064,0.142,0.146,0.219,0.15c0.299,0.014,0.605,0.023,0.898-0.014
		c0.365-0.047,0.576,0.125,0.753,0.293c0.196,0.182,0.326,0.207,0.429-0.002c0.066-0.131,0.114-0.291,0.071-0.422
		C600.011,37.677,599.874,37.519,599.726,37.466z"/>
	<path fill="#C04E36" d="M624.014,34.513c0.51-0.004,0.994,0.012,1.347-0.371c0.24-0.256,0.596-0.201,1.043,0.049
		c0.086,0.047,0.151,0.109,0.232,0.156c0.149,0.084,0.339,0.043,0.413-0.148c0.078-0.205-0.137-0.459,0.184-0.641
		c0.146-0.082,0.361-0.268,0.325-0.324c-0.162-0.246-0.503-0.203-0.834-0.191c-0.261,0.029-0.556-0.033-0.83,0.137
		c-0.616,0.381-0.631,0.369-1.016,0.375c-0.413,0.01-0.831-0.008-1.233,0.047c-0.13,0.018-0.274,0.215-0.302,0.344
		C623.262,34.316,623.53,34.517,624.014,34.513z"/>
	<path fill="#C04E36" d="M626.794,31.953c0.031-0.041,0.005-0.104,0.01-0.158c-0.076-0.051-0.145-0.139-0.226-0.145
		c-0.197-0.018-0.399-0.014-0.593,0.014c-0.078,0.01-0.156,0.088-0.205,0.15c-0.03,0.039-0.032,0.111-0.006,0.154
		C625.924,32.205,626.606,32.199,626.794,31.953z"/>
	<path fill="#C04E36" d="M621.906,37.289c0.135,0.059,0.282,0,0.391-0.166c0.013-0.02-0.125-0.109-0.209-0.145
		c-0.134-0.059-0.271,0.004-0.399,0.164C621.764,37.191,621.824,37.251,621.906,37.289z"/>
	<path fill="#C04E36" d="M628.067,30.898c0.012-0.018-0.135-0.096-0.208-0.145c-0.139-0.049-0.28,0.002-0.39,0.168
		c-0.01,0.02,0.127,0.107,0.209,0.145C627.812,31.125,627.959,31.064,628.067,30.898z"/>
	<path fill="#C04E36" d="M649.815,27.316c0.087,0.025,0.196,0.002,0.296,0c0.384-0.012,0.626-0.164,0.51-0.32
		c-0.117-0.16-0.294-0.207-0.52-0.148c-0.103,0.002-0.218-0.02-0.295,0.014c-0.216,0.086-0.291,0.205-0.21,0.305
		C649.645,27.229,649.729,27.293,649.815,27.316z"/>
	<path fill="#C04E36" d="M629.753,32.503c0.296,0.043,0.392-0.018,0.271-0.229c-0.036-0.063-0.116-0.121-0.196-0.152
		c-0.396-0.154-0.939-0.082-0.986,0.125c0.034,0.049,0.062,0.109,0.107,0.148C629.186,32.585,629.486,32.464,629.753,32.503z"/>
	<path fill="#C04E36" d="M621.374,32.457c0.057,0.664,0.269,0.811,0.996,0.668c0.078-0.016,0.199-0.133,0.187-0.148
		c-0.134-0.164-0.297-0.316-0.342-0.365c-0.206-0.141-0.29-0.184-0.346-0.242c-0.133-0.135-0.303-0.191-0.506-0.121
		C621.332,32.261,621.368,32.384,621.374,32.457z"/>
	<path fill="#C04E36" d="M615.689,35.205c-0.22,0.004-0.299,0.211-0.183,0.303c0.771,0.605,0.773,0.604,1.834,0.551
		c0.296-0.006,0.599-0.002,0.897-0.027c0.075-0.01,0.151-0.1,0.202-0.162c0.324-0.404,0.87-0.287,1.35-0.316
		c0.393-0.027,0.441-0.064,0.525-0.424c0.12-0.521,0.12-0.518,0.666-0.541c0.505-0.023,1.002-0.041,1.505-0.08
		c0.073-0.004,0.162-0.096,0.193-0.162c0.015-0.039-0.059-0.129-0.121-0.154c-0.423-0.156-0.98-0.076-1.294-0.451
		c-0.088-0.1-0.258-0.012-0.417,0.146c-0.357,0.359-1.15,0.217-1.434,0.682c-0.025,0.043-0.176,0.066-0.265,0.061
		c-0.188-0.016-0.376-0.045-0.556-0.09c-0.089-0.023-0.169-0.092-0.225-0.154c-0.166-0.184-0.345-0.221-0.431-0.063
		c-0.236,0.426-0.919,0.238-1.223,0.518C616.434,35.095,616.131,35.195,615.689,35.205z"/>
	<path fill="#C04E36" d="M621.069,32.251c0.297,0.043,0.395-0.018,0.271-0.227c-0.037-0.063-0.118-0.123-0.197-0.154
		c-0.397-0.154-0.938-0.08-0.986,0.125c0.036,0.051,0.059,0.109,0.109,0.148C620.502,32.333,620.803,32.212,621.069,32.251z"/>
	<path fill="#C04E36" d="M588.256,53.775c0.172-0.156,0.26-0.148,0.451,0.031c0.187,0.176,0.417,0.316,0.77,0.273
		c0.511-0.063,0.949-0.006,1.37,0.307c0.341,0.25,1.237,0.135,1.625-0.131c0.228-0.158,0.43-0.277,0.764-0.281
		c0.497-0.004,0.995-0.047,1.489-0.092c0.079-0.006,0.176-0.098,0.193-0.162c0.01-0.041-0.1-0.115-0.175-0.154
		c-0.076-0.039-0.174-0.08-0.263-0.078c-0.504,0.004-1.016,0.043-1.522,0.027c-0.67-0.02-1.431,0.252-1.952-0.326
		c-0.699-0.154-1.396-0.016-2.094-0.035c-0.507,0.014-1.016,0.027-1.523,0.039c-0.209,0.004-0.377,0.074-0.47,0.229
		c-0.015,0.027,0.106,0.104,0.163,0.154c0.19,0.168,0.547,0.254,0.467,0.549C587.94,54.187,588.078,53.941,588.256,53.775z"/>
	<path fill="#C04E36" d="M629.544,34.375c0.202-0.006,0.399-0.012,0.601-0.016c0.382-0.01,0.649-0.176,0.527-0.32
		c-0.132-0.154-0.302-0.207-0.528-0.148c-0.301,0.008-0.614-0.02-0.9,0.035c-0.229,0.041-0.301,0.195-0.223,0.299
		c0.049,0.063,0.135,0.127,0.223,0.152C629.33,34.4,629.443,34.376,629.544,34.375z"/>
	<path fill="#C04E36" d="M436.706,35.818c0.219,0.076,0.351-0.061,0.385-0.396c-0.205,0.006-0.414,0.01-0.619,0.016
		C436.417,35.609,436.492,35.742,436.706,35.818z"/>
	<path fill="#C04E36" d="M439.336,36.308c-0.078,0.006-0.158,0.088-0.205,0.152c-0.079,0.105-0.002,0.26,0.237,0.295
		c0.292,0.043,0.602-0.004,0.908-0.012c-0.011-0.154-0.024-0.311-0.034-0.465C439.942,36.285,439.637,36.283,439.336,36.308z"/>
	<path fill="#C04E36" d="M603.515,52.792c-0.098,0.002-0.196,0.02-0.29,0.004c-0.293-0.059-0.387,0.014-0.27,0.225
		c0.037,0.061,0.122,0.111,0.2,0.154c0.072,0.037,0.156,0.072,0.241,0.084c0.303,0.043,0.714-0.078,0.741-0.211
		C604.17,52.914,603.872,52.792,603.515,52.792z"/>
	<path fill="#C04E36" d="M417.443,26.686c-0.119,0.113-0.091,0.205,0.144,0.287c0.041,0.016,0.133-0.029,0.184-0.063
		c0.064-0.043,0.134-0.098,0.158-0.156c0.022-0.063,0.02-0.191-0.014-0.199C417.713,26.5,417.568,26.564,417.443,26.686z"/>
	<path fill="#C04E36" d="M575.072,54.9c-0.084,0.029-0.177,0.045-0.247,0.084c-0.081,0.045-0.193,0.109-0.19,0.162
		c0.004,0.053,0.126,0.113,0.208,0.15c0.078,0.037,0.178,0.074,0.26,0.068c0.187-0.016,0.375-0.041,0.551-0.09
		c0.084-0.023,0.18-0.098,0.191-0.16C575.869,54.99,575.399,54.865,575.072,54.9z"/>
	<path fill="#C04E36" d="M465.161,39.583c-0.065,0.104-0.14,0.232-0.26,0.281c-0.124,0.049-0.22,0.053-0.271,0.02
		c-0.049,0.293,0.195,0.418,0.521,0.443c0.307,0.023,0.618-0.016,0.926-0.012c0.087,0.002,0.199,0.039,0.259,0.088
		c0.29,0.232,0.599,0.422,1.06,0.342c0.452,0.344,0.972,0.549,1.628,0.426c0.035-0.006,0.066-0.006,0.097-0.008
		c-0.917-0.383-1.995-0.826-3.273-1.35C465.142,39.552,465.167,39.578,465.161,39.583z"/>
	<path fill="#C04E36" d="M678.862,30.343c-0.018-0.002-0.029,0.006-0.049,0.002c-0.094-0.016-0.213,0.027-0.294,0
		c-0.229-0.076-0.317-0.191-0.253-0.295c0.042-0.064,0.115-0.133,0.199-0.162c0.084-0.027,0.197-0.01,0.296-0.012
		c0.038,0,0.065,0.006,0.101,0.008v-8.896c-0.049,0-0.098,0.002-0.146,0.002c-0.215,0-0.354,0.08-0.498,0.217
		c-0.114,0.111-0.289,0.256-0.451,0.266c-0.818,0.045-1.646,0.1-2.46,0.057c-0.626-0.033-0.779,0.445-1.259,0.51
		c-0.591,0.08-1.22-0.064-1.795,0.139c-0.36,0.52-1.029,0.387-1.617,0.418c-0.207,0.01-0.425,0.051-0.615,0.008
		c-0.726-0.152-0.978,0.471-1.566,0.504c-0.226,0.016-0.385,0.037-0.533,0.16c-0.194,0.158-0.322,0.383-0.719,0.357
		c-0.408-0.027-0.822,0.031-1.232,0.016c-0.241-0.01-0.381,0.035-0.525,0.18c-0.172,0.178-0.355,0.355-0.729,0.334
		c-0.411-0.023-0.823,0.021-1.235,0.02c-0.223-0.002-0.368,0.059-0.503,0.203c-0.176,0.189-0.398,0.318-0.75,0.307
		c-0.299-0.012-0.596,0.043-0.895,0.066c-0.352,0.498-0.988,0.436-1.593,0.459c-0.5,0.023-1.019-0.057-1.496,0.109
		c-0.547,0.672-1.464,0.359-2.226,0.441c-0.305,0.035-0.621,0.039-0.926,0.023c-0.341-0.014-0.558,0.109-0.765,0.287
		c-0.267,0.234-0.551,0.457-0.825,0.682c-0.154-0.098-0.303-0.197-0.457-0.297c-0.346-0.217-0.423-0.211-0.469,0.26
		c-0.036,0.367-0.162,0.566-0.681,0.561c-0.094-0.004-0.237,0.006-0.275,0.049c-0.288,0.35-0.757,0.434-1.242,0.529
		c-0.223,0.045-0.271,0.211-0.068,0.383c0.02,0.002,0.03,0.004,0.011,0.012c0.218,0.018,0.293,0.07,0.352,0.119
		c0.043,0.039,0.104,0.111,0.084,0.141c-0.104,0.178-0.223,0.195-0.381,0.104c-0.16-0.096-0.247-0.207-0.179-0.359
		c0,0,0.001,0,0.001-0.002c-0.59,0.014-1.073,0.025-1.555,0.037c-0.504,0.674-1.396,0.482-2.175,0.52
		c-0.307,0.016-0.612,0.014-0.916-0.004c-0.077-0.004-0.201-0.09-0.22-0.152c-0.033-0.121,0.09-0.26,0.309-0.281
		c0.584-0.057,1.185,0.055,1.643-0.41c0.301-0.302,0.971-0.014,1.41-0.214c0.083-0.037,0.197-0.115,0.188-0.166
		c-0.009-0.057-0.128-0.141-0.215-0.154c-0.812-0.139-1.617,0.008-2.429-0.008c-0.086,0-0.206,0.047-0.247,0.1
		c-0.462,0.607-1.267,0.343-1.936,0.408c-0.217,0.023-0.421,0.016-0.54,0.143c-0.249,0.27-0.559,0.4-1.021,0.383
		c-0.512-0.021-1.026,0.043-1.538,0.021c-0.381-0.016-0.554,0.164-0.729,0.338c-0.144,0.141-0.288,0.176-0.525,0.176
		c-0.821,0.002-1.643,0.045-2.468,0.047c-0.24,0-0.377,0.035-0.52,0.182c-0.175,0.176-0.356,0.352-0.734,0.334
		c-0.403-0.023-0.819,0.02-1.229,0.02c-0.519-0.002-0.938,0.055-1.348,0.369c-0.445,0.34-1.169,0.186-1.755,0.158
		c-0.723-0.033-1.122,0.234-1.52,0.598c-0.299,0.27-0.317,0.297,0.316,0.371c0.323,0.037,0.597,0.076,0.792,0.264
		c0.185,0.178,0.296,0.201,0.451,0.064c0.261-0.234,0.542-0.459,0.821-0.682c0.41-0.326,0.976-0.082,1.439-0.205
		c0.085-0.021,0.139-0.109,0.207-0.166c0.203-0.166,0.391-0.311,0.748-0.314c1.338-0.014,2.671-0.074,4.006-0.082
		c0.466-0.004,0.721-0.174,1.024-0.387c0.191-0.129,0.584-0.086,0.798-0.207c0.31-0.18,0.505-0.447,0.994-0.426
		c0.909,0.041,1.82-0.141,2.729,0.025c0.075,0.014,0.192,0.111,0.184,0.152c-0.017,0.064-0.111,0.143-0.195,0.168
		c-0.534,0.16-0.534,0.156-1.002,0.824c-0.044,0.066-0.128,0.158-0.203,0.164c-0.507,0.035-1.014,0.066-1.518,0.068
		c-0.234,0-0.441,0.006-0.528,0.154c-0.078,0.129-0.074,0.283-0.115,0.424c-0.113,0.377-0.113,0.379-0.58,0.393
		c-0.204,0.008-0.41,0.01-0.615,0.018c-0.434,0.014-0.507-0.029-0.656-0.344c-0.278-0.58-0.281-0.584-0.998-0.553
		c-0.313,0.014-0.616,0.031-0.925,0.02c-0.231-0.01-0.39,0.039-0.507,0.197c-0.316,0.412-0.875,0.297-1.362,0.318
		c-0.211,0.01-0.428,0.059-0.465,0.225c-0.018,0.061,0.24,0.221,0.391,0.236c0.392,0.045,0.799,0.027,1.198,0.055
		c0.078,0.004,0.205,0.094,0.213,0.154c0.01,0.049-0.099,0.143-0.182,0.162c-0.789,0.191-1.615,0.076-2.421,0.137
		c-0.246,0.018-0.423-0.146-0.476-0.482c-0.021-0.168-0.052-0.322-0.283-0.375c-0.146-0.035-0.297,0.082-0.347,0.25
		c-0.041,0.145,0.05,0.338-0.048,0.441c-0.418,0.441-0.88,0.826-1.741,0.717c-0.4-0.051-0.822,0.01-1.23,0.021
		c0.084,0.176,0.02,0.311-0.194,0.402c-0.446,0.191-1.01-0.037-1.44,0.205c-0.063,0.035-0.146,0.125-0.124,0.162
		c0.034,0.064,0.143,0.154,0.219,0.154c0.715,0.008,1.431,0.02,2.141-0.014c0.361-0.016,0.563,0.121,0.787,0.279
		c0.156,0.105,0.31,0.213,0.462,0.318c0.367,0.248,0.375,0.256,0.864-0.055c0.162-0.102,0.32-0.137,0.549-0.139
		c0.352-0.004,0.494-0.162,0.519-0.438c0.042-0.49,0.138-0.521,0.597-0.285c0.156,0.084,0.339,0.209,0.505,0.211
		c0.823,0.002,1.648-0.006,2.469-0.061c0.494-0.031,0.728,0.219,1.031,0.414c0.077,0.051,0.153,0.104,0.228,0.158
		c0.147,0.105,0.087,0.203-0.125,0.338c-0.226,0.141-0.421,0.313-0.628,0.473c-0.237-0.145-0.466-0.297-0.717-0.428
		c-0.069-0.035-0.2,0.004-0.302,0.002c-0.217-0.002-0.354,0.086-0.497,0.221c-0.255,0.238-0.49,0.555-0.837,0.658
		c-0.445,0.137-0.99,0.086-1.49,0.131c-0.189,0.016-0.467,0.027-0.54,0.119c-0.397,0.508-1.061,0.352-1.643,0.402
		c-0.084,0.01-0.163,0.08-0.229,0.133c-0.128,0.109-0.023,0.189,0.174,0.332c0.419,0.297,0.471,0.561,0.267,0.785
		c-0.22,0.234-0.552,0.146-0.843,0.16s-0.597,0.07-0.843-0.154c-0.196-0.18-0.446-0.33-0.685-0.482
		c-0.153-0.092-0.335-0.238-0.491-0.232c-1.219,0.047-2.457-0.041-3.659,0.16c-0.08,0.014-0.194,0.113-0.189,0.168
		c0.019,0.219-0.084,0.465,0.255,0.631c0.148,0.072,0.361,0.217,0.347,0.313c-0.023,0.164-0.253,0.213-0.468,0.217
		c-0.622,0.006-1.238,0.039-1.856,0.035c-0.233,0-0.404,0.023-0.54,0.148c-0.13,0.121-0.259,0.309-0.419,0.32
		c-0.132,0.012-0.313-0.172-0.448-0.285c-0.254-0.215-0.568-0.113-0.86-0.117c-0.436-0.008-0.442,0.004-1.065-0.332
		c-0.284-0.152-0.65-0.17-0.824-0.029c-0.367,0.305-0.742,0.471-1.305,0.445c-0.514-0.021-1.038-0.002-1.543,0.043
		c-0.17,0.014-0.32,0.152-0.471,0.242c-0.077,0.049-0.164,0.17-0.205,0.16c-0.16-0.043-0.34-0.1-0.446-0.193
		c-0.341-0.297-0.763-0.127-1.149-0.168c-0.369-0.041-0.573,0.141-0.73,0.326c-0.175,0.199-0.268,0.211-0.456,0.018
		c-0.117-0.121-0.312-0.289-0.462-0.285c-2.262,0.043-4.522,0.111-6.782,0.184c-0.074,0.002-0.198,0.105-0.2,0.164
		c0.009,0.617,0.014,1.232,0.076,1.848c0.01,0.119,0.243,0.23,0.379,0.34c0.073,0.057,0.155,0.107,0.232,0.16
		c-0.141,0.088-0.26,0.227-0.42,0.254c-0.48,0.086-0.755-0.066-0.797-0.453c-0.02-0.172-0.041-0.344-0.27-0.371
		c-0.127-0.014-0.323,0.111-0.412,0.211c-0.168,0.188-0.275,0.217-0.446,0.07c-0.14-0.117-0.292-0.229-0.46-0.318
		c-0.225-0.117-0.302-0.215-0.206-0.328c0.12-0.143,0.295-0.168,0.529-0.158c0.304,0.01,0.61-0.016,0.911-0.049
		c0.08-0.01,0.208-0.148,0.198-0.158c-0.105-0.1-0.224-0.246-0.361-0.262c-0.301-0.031-0.617,0.012-0.926,0.008
		c-0.349-0.002-0.469-0.104-0.548-0.43c-0.085-0.346-0.254-0.498-0.444-0.398c-0.193,0.104-0.25,0.236-0.176,0.41
		c0.073,0.17,0.005,0.313-0.21,0.395c-0.051,0.02-0.157-0.014-0.217-0.045c-0.526-0.293-0.551-0.311-0.871-0.025
		c-0.126,0.111-0.246,0.186-0.5,0.184c0.027,0.037,0.029,0.104-0.014,0.205c-0.028,0.061-0.101,0.133-0.176,0.158
		c-0.163,0.051-0.344,0.084-0.517,0.107c-0.194,0.025-0.408-0.033-0.461-0.184c-0.028-0.07,0.153-0.229,0.286-0.268
		c0.166-0.049,0.381-0.02,0.711-0.027c0.205-0.18,0.125-0.311-0.089-0.389c-0.084-0.031-0.174-0.059-0.264-0.068
		c-0.098-0.01-0.198,0.01-0.303,0.004c-0.665-0.033-1.412,0.234-1.926-0.334c-0.684-0.137-1.362-0.076-2.035,0.023
		c-0.079,0.012-0.137,0.105-0.206,0.16c-0.065,0.057-0.119,0.131-0.203,0.164c-0.555,0.217-1.168,0.086-1.75,0.137
		c-0.345,0.027-0.492-0.217-0.729-0.344c-0.056-0.029-0.195-0.051-0.207-0.033c-0.248,0.307-0.85,0.43-0.488,0.883
		c0.61-0.016,0.915-0.033,1.219-0.023c0.08,0.002,0.175,0.082,0.229,0.143c0.092,0.104,0.017,0.299-0.207,0.301
		c-0.444,0.002-0.733,0.127-1.021,0.371c-0.314,0.264-0.981,0.105-1.226,0.52c-0.082,0.141-0.258,0.086-0.438-0.084
		c-0.192-0.189-0.459-0.262-0.788-0.242c-0.292,0.016-0.591-0.012-0.882-0.043c-0.085-0.01-0.202-0.094-0.215-0.154
		c-0.011-0.047,0.1-0.133,0.178-0.162c0.47-0.174,0.985-0.076,1.48-0.113c0.303-0.021,0.616,0.01,0.913-0.031
		c0.313-0.043,0.539-0.184,0.451-0.471c-0.717,0.02-0.786-0.014-1.385-0.299c-0.087-0.041-0.164-0.125-0.244-0.125
		c-0.414-0.002-0.835-0.023-1.232,0.033c-0.777,0.109-1.043-0.408-1.528-0.658c0.059-0.057,0.102-0.131,0.176-0.166
		c0.366-0.17,0.793-0.055,1.181-0.125c0.16-0.027,0.288-0.162,0.429-0.248c-0.077-0.055-0.16-0.102-0.228-0.162
		c-0.122-0.102-0.339-0.223-0.325-0.316c0.029-0.17,0.254-0.236,0.478-0.205c0.235,0.031,0.388-0.029,0.536-0.15
		c0.197-0.158,0.328-0.357,0.719-0.365c0.392-0.01,0.528,0.201,0.766,0.326c0.075,0.039,0.185,0.111,0.223,0.094
		c0.208-0.08,0.272-0.219,0.252-0.381c-0.023-0.154-0.047-0.313-0.026-0.465c0.037-0.307-0.229-0.51-0.458-0.51
		c-0.619,0.004-1.235,0.031-1.854,0.041c-0.594,0.008-1.241,0.154-1.668-0.342c-0.699-0.117-1.391-0.109-2.067,0.057
		c-0.086,0.021-0.138,0.111-0.209,0.166c-0.496,0.367-1.115,0.348-1.65,0.129c-0.356-0.146-0.622-0.34-1.082-0.318
		c-1.334,0.059-2.674,0.088-4.012,0.1c-0.371,0.004-0.53,0.174-0.743,0.328c-0.313,0.23-0.706,0.24-1.051,0.027
		c-0.589-0.357-0.874-0.402-1.271-0.07c-0.455,0.379-0.765,0.395-1.273,0.072c-0.556-0.35-1.151-0.295-1.675-0.096
		c-0.334,0.129-0.54,0.387-1.014,0.398c-8.131,0.189-16.263,0.396-24.395,0.594c-0.189,0.004-0.471-0.006-0.555-0.092
		c-0.462-0.484-1.105-0.326-1.69-0.313c-3.707,0.086-7.412,0.18-11.116,0.273c-0.208,0.004-0.414,0.021-0.617,0.01
		c-0.088-0.006-0.189-0.061-0.245-0.115c-0.286-0.26-0.625-0.338-1.077-0.324c-2.779,0.088-5.557,0.141-8.335,0.227
		c-0.379,0.012-0.545-0.164-0.777-0.303c-0.08-0.049-0.157-0.143-0.235-0.143c-0.617,0.004-1.233,0.023-1.853,0.039
		c-0.722,0.018-1.447,0-2.159,0.066c-0.665,0.061-1.183-0.078-1.631-0.439c-1.44,0.035-2.883,0.072-4.321,0.105
		c-0.201,0.006-0.511,0.049-0.581-0.027c-0.642-0.646-1.509-0.346-2.283-0.359c-0.824-0.014-1.646,0.035-2.472,0.053
		c-0.091,0-0.216-0.012-0.272-0.057c-0.972-0.77-2.144-0.207-3.21-0.313c-0.504-0.049-1.026,0.02-1.542,0.023
		c-0.086,0-0.217-0.031-0.261-0.078c-0.539-0.588-1.309-0.297-1.982-0.322c-0.514-0.02-1.031,0.023-1.547,0.027
		c-0.084-0.002-0.199-0.053-0.247-0.107c-0.36-0.383-0.863-0.338-1.381-0.318c-0.821,0.031-1.648,0.033-2.472,0.07
		c-0.229,0.012-0.376-0.039-0.554-0.127c-0.687-0.33-0.694-0.316-1.073-0.307c-0.824,0.021-1.645,0.041-2.466,0.059
		c-0.36-0.291-0.73-0.504-1.327-0.443c-0.602,0.063-1.221,0.027-1.836,0.021c-0.076-0.002-0.146-0.105-0.229-0.152
		c-0.159-0.092-0.311-0.213-0.488-0.252c-0.192-0.041-0.412,0.018-0.615,0.004c-0.773-0.055-1.644,0.314-2.291-0.326
		c-0.05-0.047-0.171-0.064-0.263-0.074c-0.971-0.09-2.035,0.355-2.89-0.346c-0.712,0.002-1.426-0.008-2.136,0.008
		c-0.229,0.006-0.44,0.02-0.558-0.105c-0.368-0.379-0.864-0.334-1.382-0.326c-0.785,0.014-1.646,0.24-2.245-0.406
		c-0.822,0.021-1.646,0.037-2.468,0.068c-0.074,0.004-0.136,0.111-0.212,0.164c-0.136,0.096-0.27,0.195-0.426,0.275
		c-0.018,0.01-0.144-0.098-0.22-0.15c-0.595-0.428-1.146-0.932-2.117-0.695c-0.068,0.018-0.212-0.025-0.261-0.076
		c-0.356-0.354-0.836-0.41-1.366-0.342c-0.227,0.027-0.439,0.021-0.557-0.104c-0.365-0.379-0.867-0.369-1.378-0.314
		c-0.233,0.025-0.382-0.027-0.561-0.123c-0.586-0.328-0.595-0.318-1.07-0.309c-0.409,0.01-0.823,0.02-1.233,0.029
		c-0.687-0.73-1.688-0.314-2.538-0.438c-0.085-0.012-0.16-0.098-0.231-0.154c-0.225-0.166-0.452-0.287-0.796-0.262
		c-0.297,0.025-0.6-0.014-0.898-0.025c-0.52-0.572-1.278-0.35-1.965-0.361c-0.102-0.002-0.221,0.029-0.307,0.002
		c-0.175-0.063-0.37-0.131-0.497-0.236c-0.234-0.201-0.514-0.199-0.822-0.197c-0.295,0.004-0.652,0.111-0.865-0.092
		c-0.384-0.363-0.871-0.365-1.384-0.313c-0.232,0.025-0.382-0.025-0.555-0.123c-0.594-0.328-0.604-0.318-1.073-0.308
		c-0.414,0.012-0.826,0.029-1.233,0.023c-0.078,0-0.165-0.094-0.232-0.152c-0.283-0.285-0.666-0.336-1.086-0.273
		c-0.459,0.07-0.757-0.107-1.074-0.326c-0.34-0.232-0.779-0.064-1.174-0.086c-0.512-0.027-0.714-0.566-1.319-0.441
		c-0.196,0.041-0.412,0.025-0.618,0.018c-0.091-0.004-0.214-0.027-0.266-0.076c-0.356-0.355-0.832-0.414-1.361-0.346
		c-0.229,0.031-0.441,0.023-0.562-0.102c-0.363-0.377-0.865-0.369-1.374-0.314c-0.234,0.023-0.386-0.027-0.56-0.125
		c-0.591-0.326-0.6-0.316-1.071-0.309c-0.465,0.01-0.475,0.02-1.073-0.309c-0.175-0.096-0.319-0.146-0.559-0.123
		c-0.509,0.055-1.012,0.063-1.375-0.316c-0.116-0.125-0.333-0.115-0.562-0.104c-0.298,0.014-0.6-0.016-0.898-0.027
		c-0.517-0.572-1.275-0.35-1.962-0.361c-0.104-0.004-0.222,0.031-0.306,0.002c-0.178-0.063-0.368-0.131-0.495-0.236
		c-0.236-0.199-0.521-0.201-0.83-0.197c-0.293,0.002-0.624,0.1-0.865-0.09c-0.305-0.236-0.616-0.404-1.07-0.326
		c-0.234-0.15-0.469-0.301-0.703-0.451c-0.439,0.076-0.798-0.027-1.074-0.303c-0.139-0.137-0.322-0.148-0.555-0.131
		c-0.301,0.025-0.608,0.004-0.911,0.002c-0.331-0.328-0.783-0.453-1.307-0.463c-0.311-0.357-0.826-0.381-1.304-0.463
		c-0.43-0.498-1.077-0.338-1.671-0.348c-0.086,0-0.199-0.051-0.249-0.104c-0.359-0.379-0.868-0.367-1.377-0.314
		c-0.234,0.025-0.417,0.008-0.551-0.131c-0.275-0.275-0.643-0.309-1.078-0.326c-0.242-0.01-0.441-0.332-0.712-0.408
		c-0.261-0.074-0.61,0.049-0.823-0.189c-0.268-0.299-0.792-0.154-1.058-0.322c-0.424-0.27-0.816-0.428-1.367-0.367
		c-0.184,0.021-0.436,0.01-0.565-0.07c-0.319-0.203-0.609-0.336-1.059-0.375c-0.449-0.037-0.722-0.553-1.324-0.408
		c-0.395-0.225-0.716-0.578-1.317-0.438c-0.236-0.148-0.444-0.355-0.713-0.432c-0.26-0.074-0.591,0.035-0.828-0.188
		c-0.193-0.186-0.447-0.303-0.79-0.258c-0.531,0.072-0.965-0.029-1.376-0.34c-0.255-0.193-0.804-0.004-1.059-0.316
		c-0.26-0.318-0.787-0.078-1.071-0.307c-0.303-0.24-0.62-0.402-1.07-0.324c-0.392-0.229-0.719-0.574-1.32-0.438
		c-0.404-0.457-0.995-0.492-1.628-0.424c-0.222,0.025-0.374-0.043-0.527-0.182c-0.203-0.182-0.448-0.279-0.796-0.26
		c-0.438,0.023-0.6-0.473-1.002-0.422c-0.616,0.082-0.819-0.484-1.322-0.438c-0.66,0.059-0.933-0.645-1.631-0.438
		c-0.393-0.232-0.722-0.572-1.317-0.441c-0.347-0.301-0.748-0.514-1.307-0.463c-0.357-0.564-1.388-0.246-1.765-0.781
		c-0.351-0.119-0.822,0.006-1.074-0.305c-0.263-0.32-0.791-0.072-1.075-0.305c-0.298-0.246-0.619-0.4-1.07-0.322
		c-0.39-0.234-0.722-0.568-1.317-0.443c-0.345-0.301-0.749-0.508-1.307-0.461c-0.356-0.564-1.388-0.244-1.766-0.781
		c-0.353-0.115-0.821,0.006-1.073-0.305c-0.261-0.32-0.792-0.07-1.073-0.305c-0.296-0.248-0.623-0.4-1.071-0.322
		c-0.387-0.238-0.725-0.566-1.314-0.443c-0.347-0.305-0.756-0.506-1.309-0.461c-0.359-0.564-1.39-0.244-1.768-0.781
		c-0.351-0.113-0.818,0.004-1.073-0.305c-0.261-0.322-0.792-0.068-1.072-0.307c-0.297-0.248-0.623-0.396-1.073-0.318
		c-0.384-0.244-0.722-0.564-1.314-0.445c-0.234-0.146-0.472-0.295-0.708-0.441c-0.454,0.08-0.738-0.135-1.072-0.326
		c-0.207-0.123-0.574-0.074-0.826-0.168c-0.263-0.096-0.42-0.404-0.736-0.361c-0.673,0.09-0.945-0.625-1.632-0.439
		c-0.311-0.199-0.658-0.375-0.928-0.6c-0.313-0.256-0.657-0.346-1.09-0.297c-0.34-0.309-0.756-0.498-1.302-0.463
		c-0.34-0.459-1.111-0.297-1.536-0.623c-0.43-0.328-1.202-0.164-1.538-0.621c-0.115,0.09-0.3,0.17-0.331,0.277
		c-0.038,0.135-0.014,0.334,0.097,0.432c0.267,0.234,0.582,0.449,0.923,0.621c0.14,0.07,0.458-0.053,0.59,0.021
		c0.413,0.234,0.774,0.52,1.159,0.785c0.38,0.266,0.766,0.531,1.145,0.797c0.386,0.266,0.846,0.494,1.131,0.809
		c0.35,0.391,0.959,0.164,1.332,0.449c0.511,0.389,1.024,0.789,1.61,1.109c0.634,0.344,0.961,1.074,1.979,0.961
		c0.896,0.473,1.434,1.338,2.688,1.41c0.458,0.32,0.896,0.66,1.385,0.951c0.533,0.324,0.885,0.904,1.757,0.789
		c0.31,0.213,0.613,0.426,0.921,0.637c0.229,0.16,0.499,0.299,0.678,0.484c0.291,0.301,0.779,0.1,1.081,0.301
		c0.396,0.258,0.78,0.52,1.148,0.799c0.369,0.277,0.735,0.537,1.309,0.459c0.307,0.213,0.651,0.402,0.909,0.645
		c0.304,0.281,0.775,0.137,1.081,0.307c0.414,0.23,0.772,0.521,1.152,0.789c0.374,0.26,0.693,0.602,1.305,0.465
		c0.385,0.264,0.737,0.564,1.161,0.785c0.388,0.203,0.946,0.117,1.313,0.463c0.299,0.283,0.643,0.633,1.262,0.529
		c0.393,0.248,0.806,0.477,1.169,0.744c0.376,0.275,0.996,0.039,1.333,0.449c0.201,0.246,0.606,0.398,0.923,0.592
		c0.62-0.105,0.91,0.273,1.276,0.523c0.309,0.211,0.587,0.434,1.053,0.354c0.316,0.195,0.725,0.348,0.925,0.594
		c0.336,0.41,0.951,0.178,1.333,0.447c0.503,0.361,0.936,0.832,1.758,0.787c0.308,0.213,0.647,0.404,0.911,0.645
		c0.355,0.322,1.022,0.057,1.316,0.457c0.243,0.334,0.77,0.045,1.083,0.297c0.351,0.281,0.767,0.516,1.156,0.771
		c0.761-0.131,1.036,0.404,1.518,0.654c0.164,0.082,0.349,0.23,0.501,0.217c0.486-0.043,0.702,0.314,1.043,0.379
		c0.5,0.098,0.962,0.17,1.301,0.49c0.575-0.078,0.954,0.172,1.304,0.463c0.352,0.299,0.749,0.512,1.306,0.463
		c0.328,0.334,0.823,0.365,1.298,0.486c0.354,0.092,0.654,0.381,0.918,0.619c0.356,0.32,1.018,0.061,1.32,0.457
		c0.191,0.252,0.592,0.086,0.821,0.182c0.427,0.182,0.734,0.553,1.325,0.426c0.344,0.304,0.752,0.509,1.308,0.464
		c0.328,0.334,0.83,0.361,1.298,0.484c0.357,0.096,0.615,0.408,0.928,0.615c0.449,0.295,1.184,0.166,1.556,0.613
		c0.058,0.068,0.387,0.025,0.586,0.004c0.084-0.008,0.165-0.084,0.215-0.146c0.033-0.039,0.041-0.135,0.002-0.158
		c-0.537-0.355-1.086-0.705-1.632-1.055c-0.47,0.08-0.707-0.236-1.059-0.348c-0.448-0.143-0.939-0.16-1.303-0.476
		c-0.33-0.285-0.673-0.615-1.287-0.488c-0.382-0.248-0.728-0.559-1.316-0.443c-0.342-0.309-0.755-0.5-1.306-0.465
		c-0.323-0.338-0.832-0.355-1.296-0.486c-0.359-0.1-0.637-0.391-0.926-0.617c-0.159-0.127-0.312-0.221-0.521-0.189
		c-0.353,0.055-0.589-0.098-0.782-0.275c-0.244-0.23-0.572-0.098-0.84-0.166c-0.367-0.09-0.512-0.506-1.018-0.434
		c-0.095,0.014-0.235,0.031-0.292-0.008c-0.547-0.363-1.083-0.734-1.611-1.117c-0.036-0.027-0.035-0.092-0.122-0.195
		c-0.048-0.002-0.103-0.012-0.166-0.033c-0.13-0.043-0.223-0.166-0.016-0.133c-0.3-0.15-0.139-0.281-0.116-0.271
		c0.14,0.051,0.311,0.107,0.377,0.201c0.03,0.043,0.043,0.078,0.05,0.109c0.609,0.064,1.031,0.045,1.356,0.379
		c0.183,0.184,0.453,0.318,0.675,0.48c0.154,0.111,0.332,0.135,0.559,0.109c0.513-0.059,0.988-0.031,1.359,0.324
		c0.381,0.367,0.881,0.6,1.52,0.617c0.283,0.227,0.574,0.439,1.039,0.361c0.392,0.242,0.778,0.484,1.17,0.73
		c0.077,0.049,0.139,0.123,0.229,0.15c0.085,0.027,0.195,0.01,0.298,0.012c0.101-0.002,0.205,0.004,0.304-0.01
		c0.43-0.057,0.806,0,1.076,0.283c0.231,0.244,0.579,0.072,0.834,0.154c0.259,0.082,0.46,0.27,0.694,0.4
		c0.01,0.006,0.171-0.098,0.192-0.162c0.034-0.145,0.004-0.299,0.038-0.445c0.061-0.248,0.312-0.287,0.576-0.102
		c0.521,0.359,0.521,0.359,0.699,0.705c0.403-0.01,0.809-0.002,1.209-0.035c0.232-0.02,0.402-0.004,0.537,0.139
		c0.269,0.273,0.625,0.367,1.059,0.295c0.359,0.266,0.703,0.555,1.286,0.443c0.228,0.148,0.46,0.297,0.687,0.443
		c0.443-0.076,0.771,0.066,1.048,0.316c0.28,0.248,0.773-0.008,1.071,0.287c0.242,0.238,0.573,0.441,0.896,0.623
		c0.139,0.076,0.373,0.043,0.553,0.092c0.176,0.049,0.362,0.115,0.492,0.215c0.232,0.172,0.484,0.221,0.8,0.229
		c0.164,0.004,0.326,0.135,0.489,0.215c0.345,0.174-0.074-0.078,0.013,0.229c0.309-0.008,0.617-0.016,0.923-0.023
		c0.491-0.012,0.5-0.021,1.066,0.305c0.177,0.102,0.327,0.172,0.556,0.123c0.683-0.146,1.189,0.088,1.595,0.475
		c0.342,0.33,0.809,0.402,1.307,0.463c0.082,0.01,0.146,0.107,0.227,0.152c0.337,0.186-0.068-0.072,0.014,0.234
		c0.28-0.008,0.571-0.053,0.834-0.01c0.271,0.043,0.486,0.189,0.435,0.445c0.279-0.006,0.57-0.053,0.833-0.01
		c0.271,0.043,0.484,0.189,0.434,0.447c0.804-0.018,0.814-0.031,1.362,0.287c0.174,0.104,0.309,0.158,0.542,0.139
		c0.399-0.033,0.813-0.008,1.213-0.043c0.235-0.021,0.382,0.012,0.54,0.146c0.201,0.172,0.469,0.303,0.666,0.479
		c0.301,0.27,0.664,0.295,1.079,0.264c0.377-0.027,0.394-0.021,1.043,0.324c0.279,0.146,0.586,0.037,0.833,0.137
		c0.262,0.105,0.459,0.301,0.721,0.393c0.162,0.061,0.396,0.004,0.601-0.002c0.299-0.012,0.589-0.025,0.815,0.186
		c0.129,0.119,0.315,0.201,0.444,0.318c0.354,0.328,0.791,0.434,1.332,0.373c0.182-0.02,0.387,0.014,0.567,0.061
		c0.224,0.059,0.296,0.203,0.237,0.381c0.587-0.014,1.173-0.037,1.76-0.039c0.178,0,0.443,0.004,0.523,0.086
		c0.327,0.338,0.892,0.244,1.243,0.436c0.36,0.195,0.89,0.361,1.177,0.799c0,0,0.004,0,0.007,0.002
		c0.011,0.002,0.02,0.002,0.03,0.002c0.083,0,0.086,0.004,0.051,0.004c0.583,0.006,0.861,0.119,0.832,0.248
		c-0.029,0.133-0.438,0.252-0.741,0.209c-0.087-0.012-0.174-0.047-0.243-0.086c-0.078-0.041-0.16-0.09-0.198-0.15
		c-0.076-0.133-0.057-0.203,0.03-0.23c-0.32,0.004-0.44,0.076-0.566,0.182c-0.379,0.32-0.397,0.307-0.63,0.146
		c-0.229-0.156-0.477-0.299-0.676-0.477c-0.308-0.277-0.699-0.277-1.093-0.229c-0.467,0.059-0.763-0.127-1.04-0.357
		c-0.194-0.162-0.543-0.252-0.466-0.545c-0.605,0.016-1.219,0.006-1.819,0.055c-0.371,0.027-0.577-0.133-0.762-0.301
		c-0.251-0.232-0.581-0.066-0.827-0.15c-0.27-0.09-0.438-0.35-0.703-0.42c-0.271-0.07-0.603-0.002-0.907,0.006
		c-0.1,0.004-0.205-0.004-0.3,0.01c-0.438,0.066-0.766-0.041-1.07-0.293c-0.269-0.221-0.605-0.398-0.913-0.596
		c-0.45,0.08-0.763-0.088-1.048-0.326c-0.06-0.051-0.162-0.102-0.248-0.104c-0.398-0.016-0.812,0.037-1.188-0.033
		c-0.264-0.049-0.478-0.256-0.711-0.391c-0.745,0.1-1.012-0.416-1.477-0.676c-0.049-0.029-0.016-0.146-0.023-0.223
		c-0.277,0.006-0.564,0.051-0.829,0.008c-0.271-0.043-0.487-0.189-0.438-0.445c-0.275,0.006-0.565,0.053-0.835,0.01
		c-0.266-0.043-0.48-0.189-0.434-0.445c-0.409,0.01-0.819,0.002-1.23,0.037c-0.234,0.02-0.382-0.012-0.542-0.15
		c-0.203-0.176-0.476-0.305-0.675-0.484c-0.307-0.277-0.692-0.299-1.099-0.246c-0.464,0.064-0.735-0.154-1.064-0.338
		c-0.212-0.121-0.559-0.092-0.829-0.162c-0.235-0.057-0.307-0.207-0.247-0.385c-0.516,0.012-1.03,0.018-1.542,0.045
		c-0.075,0.004-0.157,0.098-0.201,0.164c-0.026,0.039-0.002,0.133,0.042,0.158c0.33,0.201,0.472,0.439,0.579,0.764
		c0.107,0.328,0.769,0.494,0.667,0.967c-0.01,0.059,0.297,0.223,0.456,0.227c0.323,0.008,0.593,0.047,0.81,0.24
		c0.069,0.059,0.187,0.162,0.222,0.15c0.154-0.057,0.293-0.141,0.429-0.223c0.075-0.049,0.126-0.145,0.208-0.162
		c0.193-0.035,0.439-0.094,0.591-0.035c0.263,0.102,0.472,0.402,0.709,0.412c0.44,0.012,0.772,0.072,1.085,0.32
		c0.431,0.342,0.895,0.658,1.38,0.955c0.129,0.08,0.374,0.068,0.567,0.072c0.883,0.021,0.881,0.023,1.579,0.541
		c0.166,0.121,0.152,0.211-0.091,0.336c-0.206,0.105-0.293,0.232-0.228,0.332c0.11,0.166,0.297,0.197,0.535,0.16
		c0.199-0.033,0.409-0.018,0.615-0.021c0.037-0.338,0.166-0.475,0.387-0.396c0.219,0.074,0.288,0.207,0.232,0.381
		c0.386-0.01,0.774-0.031,1.165-0.025c0.176,0.004,0.438,0.016,0.517,0.098c0.318,0.346,0.828,0.287,1.25,0.412
		c0.208,0.063,0.276,0.205,0.22,0.373c0.305-0.008,0.617-0.055,0.908-0.012c0.24,0.035,0.319,0.189,0.239,0.297
		c-0.046,0.061-0.127,0.145-0.205,0.15c-0.301,0.025-0.607,0.021-0.908,0.029c-0.062,0.18,0.011,0.33,0.246,0.389
		c0.274,0.068,0.619,0.043,0.83,0.162c0.337,0.189,0.61,0.412,1.07,0.332c0.453,0.344,0.971,0.547,1.626,0.426
		c0.374-0.07,0.545,0.154,0.774,0.297c0.368,0.229,0.369,0.229,0.491-0.248c0.021-0.072-0.045-0.174-0.002-0.227
		c0.084-0.109,0.24-0.285,0.331-0.273c0.222,0.033,0.316,0.197,0.284,0.361c-0.038,0.178,0.024,0.311,0.208,0.408
		c0.152,0.082,0.292,0.035,0.428-0.143c0.132-0.178,0.291-0.24,0.424-0.152c0.456,0.297,0.967,0.572,0.96,1.102
		c0,0.053,0.157,0.16,0.217,0.152c0.588-0.084,0.944,0.193,1.314,0.459c0.287-0.027,0.584,0.033,0.829-0.188
		c0.331-0.295,0.364-0.27,0.635-0.115c0.16,0.09,0.318,0.223,0.489,0.242c0.306,0.035,0.622,0.016,0.927-0.016
		c0.537-0.053,0.969,0.043,1.369,0.352c0.175,0.131,0.604,0.051,0.821,0.17c0.332,0.186,0.617,0.32,1.06,0.363
		c0.444,0.047,0.713,0.535,1.326,0.418c0.29-0.057,0.617-0.006,0.921-0.037c0.234-0.025,0.41-0.004,0.548,0.135
		c0.276,0.279,0.642,0.363,1.077,0.303c0.381,0.266,0.761,0.533,1.148,0.795c0.068,0.047,0.165,0.082,0.257,0.096
		c0.097,0.016,0.205,0.008,0.308-0.004c0.533-0.063,0.955,0.045,1.374,0.342c0.3,0.213,0.78,0.047,1.179,0.063
		c0.298,0.01,0.684-0.111,0.867,0.076c0.352,0.355,0.902,0.273,1.32,0.455c0.751,0.332,0.741,0.34,1.066,0.324
		c0.31-0.014,0.623,0.008,0.924-0.029c0.371-0.047,0.584,0.125,0.772,0.295c0.259,0.234,0.595,0.068,0.848,0.154
		c0.268,0.088,0.45,0.318,0.718,0.422c0.16,0.063,0.402,0,0.609-0.002c0.202-0.002,0.521-0.049,0.584,0.021
		c0.37,0.447,1.117,0.301,1.548,0.615c0.238,0.17,0.484,0.244,0.812,0.23c0.29-0.012,0.591,0.033,0.89,0.051
		c0.294,0.387,0.906,0.271,1.29,0.479c0.346,0.184,0.615,0.381,1.075,0.324c0.305-0.037,0.621-0.004,0.925-0.033
		c0.23-0.023,0.38,0.031,0.558,0.119c0.663,0.326,0.673,0.334,1.378,0.297c0.238-0.012,0.4,0.004,0.542,0.154
		c0.271,0.289,0.659,0.344,1.085,0.279c0.455-0.07,0.783,0.076,1.068,0.328c0.134,0.117,0.331,0.119,0.56,0.107
		c0.296-0.018,0.6,0.012,0.9,0.02c0.318,0.35,0.816,0.4,1.306,0.463c0.345,0.354,0.824,0.436,1.351,0.355
		c0.787-0.121,1.39,0.1,1.878,0.553c0.282,0.266,0.626,0.385,1.073,0.313c0.434-0.072,0.772,0.035,1.087,0.287
		c0.302,0.24,0.365,0.201,0.472-0.258c0.018-0.074-0.029-0.158-0.008-0.23c0.067-0.244,0.286-0.311,0.569-0.102
		c0.443,0.33,1.21,0.152,1.545,0.613c0.298,0.014,0.595,0.021,0.893,0.045c0.192,0.016,0.437,0.008,0.559,0.092
		c0.315,0.217,0.608,0.396,1.069,0.338c0.302-0.037,0.615-0.021,0.927-0.027c0.308-0.008,0.621-0.055,0.923-0.016
		c0.385,0.055,0.521,0.508,1.011,0.43c0.382-0.061,0.539,0.166,0.773,0.303c0.075,0.043,0.15,0.121,0.226,0.123
		c0.414,0.006-0.086,0.049,0.21-0.162c0.143-0.104,0.279-0.27,0.44-0.287c0.397-0.037,0.809-0.006,1.214,0
		c0.283,0.305,0.921,0.396,0.933,0.869c0.392,0.063,0.526-0.186,0.709-0.348c0.242-0.215,0.551-0.143,0.837-0.154
		c0.285-0.012,0.594-0.08,0.837,0.148c0.188,0.174,0.415,0.309,0.774,0.281c0.607-0.043,1.221-0.029,1.831-0.057
		c0.224-0.01,0.376,0.037,0.526,0.176c0.479,0.445,1.096,0.236,1.671,0.195c0.077-0.004,0.141-0.104,0.204-0.16
		c0.191-0.174,0.362-0.316,0.651-0.061c0.396,0.355,1.186,0.158,1.519,0.615c0.398,0.01,0.815,0.078,1.188,0.012
		c0.252-0.045,0.431-0.289,0.664-0.418c0.374-0.205,0.311-0.518,0.381-0.803c0.016-0.064,0.116-0.137,0.202-0.16
		c0.05-0.014,0.148,0.059,0.218,0.102c0.469,0.297,0.892,0.582,0.846,1.135c-0.04,0.473,0.159,0.572,0.656,0.557
		c0.612-0.016,1.224-0.051,1.833-0.035c0.381,0.006,0.767-0.141,1.158,0.111c0.507,0.334,0.537,0.305,1.063,0.291
		c0.72-0.018,1.44-0.043,2.188-0.514c-0.08-0.004-0.163-0.004-0.247-0.002c-0.306,0.006-0.609,0.023-0.915,0.02
		c-0.396-0.004-0.792-0.016-1.186-0.045c-0.08-0.006-0.168-0.09-0.221-0.154c-0.107-0.133,0.04-0.607,0.16-0.631
		c0.149-0.029,0.295,0.014,0.446,0.17c0.133,0.141,0.302,0.209,0.503,0.203c0.51-0.014,1.02-0.006,1.522-0.049
		c0.144-0.012,0.387-0.193,0.363-0.252c-0.063-0.158-0.279-0.219-0.485-0.201c-0.303,0.027-0.673-0.031-0.641-0.256
		c0.041-0.256,0.472-0.203,0.764-0.215c0.103-0.004,0.204-0.004,0.306-0.008c0.101-0.002,0.2-0.006,0.249,0.93
		c0.358-0.945,0.665-0.953,0.968-0.959c0.388-0.01,0.734,0.125,0.66,0.258c-0.089,0.164-0.277,0.186-0.484,0.211
		c-0.645,0.08-0.688,0.16-0.351,0.461c0.123,0.111,0.271,0.223,0.342,0.352c0.152,0.297-0.138,0.582-0.582,0.598
		c-0.2,0.006-0.398,0.01-0.602,0.016c0.021,0.279,0.097,0.35,0.229,0.379c0.686,0.152,1.379,0.014,2.068,0.033
		c0.19,0.004,0.485-0.035,0.562,0.041c0.435,0.443,1.02,0.398,1.621,0.373c0.698-0.029,1.403-0.037,2.106-0.055
		c0.486-0.012,0.979-0.025,1.698-0.117c-0.068-0.047-0.198-0.137-0.44-0.301c-0.338-0.227-0.54-0.463-0.419-0.783
		c0.068-0.197,0.271-0.236,0.405-0.125c0.288,0.236,0.591,0.371,1.05,0.35c0.311-0.016,0.37,0.23,0.13,0.43
		c-0.138,0.111-0.272,0.223-0.663,0.422c0.014,0.045,0.02,0.059-0.027,0.031c-0.274,0.248-0.204,0.424,0.018,0.438
		c0.603,0.039,1.212,0.045,1.819,0.021c0.135-0.004,0.257-0.168,0.385-0.258c-0.077-0.053-0.164-0.1-0.227-0.16
		c-0.112-0.104-0.312-0.225-0.295-0.318c0.029-0.172,0.251-0.223,0.485-0.195c0.101,0.012,0.205-0.014,0.306-0.004
		c0.44,0.037,0.804-0.051,1.044-0.344c0.205-0.248,0.538-0.166,0.827-0.154c0.317,0.014,0.308,0.199-0.038,0.49
		c-0.274,0.229-0.561,0.449-0.821,0.688c-0.05,0.043,0.002,0.15,0.006,0.227c0.104-0.002,0.267-0.035,0.303-0.002
		c0.418,0.449,1.001,0.494,1.637,0.422c0.22-0.027,0.375,0.041,0.531,0.178c0.2,0.18,0.441,0.295,0.79,0.264
		c0.406-0.035,0.82-0.023,1.234-0.037c0.335-0.014,0.505-0.17,0.484-0.461c-0.012-0.156,0.005-0.314-0.039-0.467
		c-0.053-0.18-0.01-0.307,0.18-0.41c0.219-0.121,0.581-0.145,0.834-0.014c0.171,0.088,0.297,0.283,0.467,0.303
		c0.692,0.076,1.399,0.133,2.062-0.102c0.052-0.02,0.108-0.123,0.085-0.16c-0.039-0.064-0.134-0.145-0.222-0.154
		c-0.195-0.025-0.41,0.014-0.6-0.025c-0.237-0.049-0.342-0.178-0.279-0.291c0.037-0.064,0.131-0.158,0.203-0.16
		c0.617-0.029,1.234-0.043,1.851-0.043c0.076-0.002,0.174,0.09,0.221,0.154c0.031,0.039,0.013,0.123-0.025,0.16
		c-0.129,0.121-0.282,0.227-0.404,0.348c-0.015,0.02,0.067,0.141,0.126,0.152c0.275,0.061,0.604,0.051,0.834,0.162
		c0.333,0.162,0.575,0.371,1.049,0.393c0.499,0.021,0.529,0.152,0.239,0.391c-0.206,0.17-0.41,0.34-0.62,0.51
		c-0.07,0.059-0.154,0.107-0.201,0.174c-0.03,0.041-0.042,0.123-0.008,0.16c0.053,0.063,0.144,0.146,0.226,0.148
		c0.31,0.01,0.617-0.029,0.925-0.012c0.511,0.029,0.582-0.398,0.954-0.486c0.178-0.043,0.479-0.057,0.581,0.023
		c0.39,0.287,0.785,0.445,1.354,0.398c0.717-0.061,1.441-0.055,2.161-0.063c0.342-0.002,0.48,0.301,0.744,0.355
		c0.378,0.078,0.797,0.061,1.194,0.059c0.722-0.006,1.444-0.027,2.163-0.053c0.609-0.021,1.233-0.096,1.651,0.381
		c0.207-0.139,0.396-0.369,0.632-0.398c0.603-0.076,1.226-0.066,1.838-0.076c0.076-0.002,0.159,0.086,0.238,0.133
		c0.234,0.133,0.388,0.326,0.773,0.313c1.954-0.072,3.91-0.111,5.864-0.17c0.073-0.002,0.176-0.1,0.199-0.166
		c0.043-0.115-0.084-0.273-0.309-0.273c-0.824-0.006-1.654-0.014-2.468,0.063c-0.777,0.07-1.04-0.422-1.524-0.672
		c0.065-0.057,0.117-0.137,0.201-0.166c0.473-0.17,0.996-0.064,1.496-0.117c0.189-0.02,0.475-0.021,0.545-0.109
		c0.395-0.506,1.047-0.393,1.638-0.4c0.22-0.002,0.359,0.146,0.334,0.266c-0.011,0.064-0.115,0.152-0.196,0.166
		c-0.195,0.033-0.421-0.006-0.603,0.047c-0.235,0.066-0.308,0.201-0.215,0.309c0.054,0.061,0.148,0.137,0.232,0.143
		c0.201,0.018,0.411-0.004,0.615-0.008c0.661-0.02,0.661-0.02,0.867-0.643c0.082-0.256,0.269-0.295,0.572-0.125
		c0.158,0.09,0.34,0.25,0.486,0.238c0.77-0.064,1.686,0.232,2.231-0.439c0.42-0.025,0.54,0.348,0.965,0.391
		c0.689,0.072,0.68,0.121,0.736,0.51c0.033,0.225,0.065,0.451,0.128,0.674c0.018,0.063,0.129,0.129,0.219,0.158
		c0.395,0.133,0.919-0.064,0.921-0.355c0-0.234-0.044-0.469-0.042-0.701c0.003-0.297,0.645-0.563,0.898-0.346
		c0.481,0.414,1.028,0.453,1.658,0.4c0.204-0.018,0.41-0.012,0.616-0.018c0.827-0.02,1.646-0.039,2.471-0.063
		c0.359-0.01,0.503,0.232,0.751,0.354c0.378,0.182,0.793,0.07,1.188,0.063c1.339-0.02,2.676-0.055,4.018-0.098
		c0.602-0.02,1.212-0.051,1.807-0.123c0.227-0.025,0.278-0.215,0.193-0.391c-0.205,0.004-0.412,0.01-0.613,0.014
		c-0.719,0.02-1.462-0.045-2.145,0.076c-0.735,0.131-0.994-0.49-1.629-0.455c-0.713,0.041-1.432,0.039-2.147,0.043
		c-0.075,0-0.188-0.09-0.221-0.154c-0.057-0.113,0.05-0.273,0.273-0.289c0.809-0.055,1.625-0.064,2.436-0.105
		c0.075-0.004,0.206-0.148,0.199-0.156c-0.112-0.098-0.237-0.256-0.365-0.26c-0.512-0.018-1.026,0.012-1.538,0.025
		c-0.206,0.008-0.356-0.072-0.518-0.195c-0.133-0.104-0.322-0.232-0.488-0.236c-1.219-0.021-2.432,0.129-3.657,0.01
		c-0.081-0.008-0.201-0.096-0.214-0.154c-0.009-0.049,0.106-0.152,0.182-0.162c2.022-0.209,4.069-0.141,6.103-0.24
		c0.162-0.008,0.319-0.152,0.468-0.242c0.408-0.252,0.479-0.225,0.632,0.266c0.104,0.332,0.219,0.42,0.57,0.41
		c0.921-0.02,1.843-0.059,2.766-0.055c0.157,0,0.321,0.166,0.481,0.256c0.404,0.229,0.747,0.238,1.056,0.023
		c0.209-0.146,0.321-0.412,0.717-0.348c-0.004-0.078-0.052-0.174-0.01-0.229c0.168-0.223,0.462-0.297,0.771-0.25
		c0.321,0.047,0.466,0.209,0.491,0.48c0.036,0.338,0.192,0.418,0.545,0.42c0.205,0,0.413-0.01,0.618-0.014
		c0.535-0.01,0.55-0.01,0.662-0.555c0.032-0.15,0.063-0.355,0.266-0.369c0.479-0.029,0.982-0.197,1.457,0.068
		c0.569,0.316,0.571,0.313,1.074,0.301c0.261-0.006,0.531-0.021,0.898-0.158c0.006-0.023,0.006-0.043,0.021-0.068
		c0.057-0.096,0.219-0.162,0.176-0.008c0.193-0.225,0.369-0.102,0.359-0.084c-0.063,0.104-0.139,0.232-0.262,0.281
		c-0.09,0.037-0.158,0.041-0.212,0.031c-0.043,0.107-0.045,0.164-0.041,0.213c0.007,0.076,0.011,0.152,0.016,0.23
		c0.02,0.363,0.311,0.518,0.804,0.455c0.289-0.037,0.415-0.18,0.433-0.488c0.026-0.48,0.083-0.514,0.631-0.211
		c0.472,0.262,1.177,0.15,1.535,0.598c0.085,0.107,0.631,0.008,0.808-0.113c0.071-0.051,0.129-0.113,0.204-0.166
		c0.337-0.238,0.713-0.26,1.044-0.061c0.222,0.137,0.376,0.391,0.755,0.307c-0.084-0.18,0.007-0.291,0.186-0.412
		c0.367-0.242,0.591-0.58,1.224-0.572c1.234,0.016,2.472-0.049,3.706-0.08c1.031-0.025,2.062-0.086,3.093-0.064
		c0.867,0.02,1.856-0.354,2.562,0.381c1.438-0.031,2.88-0.061,4.318-0.102c0.076-0.002,0.143-0.102,0.216-0.152
		c0.212-0.152,0.354-0.34,0.732-0.342c1.24-0.006,2.475-0.059,3.711-0.08c0.227-0.002,0.371-0.051,0.511-0.195
		c0.176-0.186,0.389-0.313,0.744-0.314c1.033-0.004,2.063-0.041,3.091-0.072c0.523-0.014,0.635-0.566,1.26-0.508
		c0.506,0.047,1.028-0.014,1.545-0.025c0.309-0.008,0.615-0.016,0.925-0.023c0.278-0.01,0.459-0.18,0.437-0.486
		c-0.013-0.178-0.011-0.348,0.217-0.389c0.121-0.021,0.334,0.092,0.436,0.184c0.19,0.176,0.304,0.203,0.454,0.055
		c0.12-0.121,0.261-0.307,0.414-0.318c0.138-0.012,0.316,0.172,0.452,0.285c0.152,0.131,0.322,0.143,0.551,0.137
		c0.518-0.018,1.031,0.008,1.337-0.393c0.04-0.057,0.15-0.113,0.232-0.117c0.409-0.023,0.821-0.027,1.234-0.035
		c0.516-0.016,1.029-0.025,1.547-0.041c0.451-0.014,0.535-0.455,0.947-0.484c0.617-0.041,1.237-0.029,1.855-0.055
		c0.19-0.01,0.484-0.012,0.553-0.098c0.479-0.594,1.269-0.354,1.938-0.43c0.769-0.086,1.689,0.201,2.206-0.49
		c0.508-0.025,1.018-0.063,1.525-0.063c0.234-0.002,0.376-0.053,0.542-0.148c0.633-0.367,0.64-0.357,1.023-0.367
		c0.72-0.014,1.445-0.061,2.162-0.041c0.398,0.008,0.524-0.203,0.718-0.361c0.152-0.121,0.31-0.156,0.543-0.154
		c0.51,0,1.02-0.039,1.527-0.059c0.619-0.748,1.66-0.373,2.51-0.502c0.191-0.029,0.397-0.035,0.583-0.078
		c0.082-0.02,0.147-0.102,0.206-0.166c0.192-0.201,0.451-0.264,0.775-0.271c0.295-0.006,0.588-0.063,0.877-0.098
		c0.298-0.379,0.772-0.428,1.31-0.424c0.721,0.006,1.44-0.025,2.163-0.053c0.084-0.002,0.192-0.059,0.233-0.113
		c0.483-0.586,1.28-0.332,1.951-0.393c0.229-0.021,0.37-0.057,0.538-0.156c0.594-0.359,0.607-0.35,1.027-0.359
		c0.412-0.012,0.824-0.016,1.234-0.043c0.075-0.004,0.138-0.107,0.209-0.16c0.203-0.162,0.371-0.338,0.744-0.328
		c0.508,0.012,1.014-0.039,1.524-0.061c0.515-0.693,1.437-0.404,2.2-0.494c0.095-0.01,0.196-0.029,0.27-0.066
		c0.087-0.043,0.154-0.105,0.211-0.168c0.19-0.207,0.457-0.266,0.78-0.268c0.298-0.002,0.694,0.084,0.854-0.111
		c0.409-0.496,1.049-0.377,1.639-0.414c0.291-0.02,0.637,0.068,0.851-0.139c0.262-0.26,0.563-0.414,1.023-0.381
		c0.309,0.023,0.62-0.027,0.931-0.01c0.233,0.012,0.367-0.053,0.533-0.158c0.03-0.02,0.045-0.027,0.072-0.043V30.343z
		 M413.44,21.879c-0.162-0.096-0.249-0.205-0.181-0.359c0.007-0.018,0.115-0.021,0.201-0.014c-0.05-0.018-0.109-0.039-0.183-0.063
		c0.01,0.102-0.105,0.139-0.303,0.072c-0.127-0.041-0.218-0.166-0.3-0.266c0.268,0.082,0.459,0.145,0.603,0.193
		c0-0.006-0.003-0.012-0.005-0.016c-0.57-0.221-0.449-0.324-0.425-0.316c0.133,0.053,0.307,0.111,0.374,0.203
		c0.031,0.043,0.044,0.08,0.051,0.113c0.073,0.027,0.151,0.057,0.248,0.088c-0.018-0.004-0.04-0.006-0.061-0.01
		c0.195,0.072,0.237,0.104,0.271,0.131c0.046,0.039,0.105,0.109,0.086,0.141C413.715,21.953,413.591,21.971,413.44,21.879z
		 M419.271,24.168c-0.199,0.021-0.447,0.057-0.599-0.008c-0.26-0.117-0.497-0.291-0.689-0.471c-0.342-0.328-0.814-0.387-1.306-0.463
		c-0.345-0.053-0.33-0.082,0.059-0.393c0.125-0.1,0.247-0.199,0.37-0.301c-0.195,0.086-0.412,0.182-0.675,0.309
		c0.014-0.066,0.006-0.125-0.013-0.176c-0.491,0.201-0.664,0.211-0.822,0.186c-0.264-0.043-0.48-0.189-0.434-0.441
		c-0.047,0.035-0.142,0.039-0.271-0.006c-0.128-0.043-0.219-0.166-0.297-0.266c0.087,0.027,0.167,0.049,0.243,0.07
		c-0.179-0.148-0.095-0.217-0.074-0.209c0.135,0.051,0.307,0.109,0.372,0.201c0.026,0.035,0.036,0.063,0.043,0.09
		c0.417,0.088,0.625,0.072,0.815,0.104c0.199,0.033,0.367,0.123,0.424,0.271c0.281-0.117,0.68-0.305,1.239-0.584
		c0.039-0.031,0.075-0.063,0.115-0.094c0.05-0.039,0.142-0.047,0.213-0.068c-0.124,0.061-0.22,0.109-0.328,0.162
		c-0.185,0.15-0.369,0.301-0.552,0.451c1.069-0.469,1.211-0.387,1.338-0.295c0.146,0.104,0.407,0.219,0.399,0.316
		c-0.007,0.121-0.248,0.225-0.378,0.344c-0.055,0.047-0.125,0.146-0.104,0.16c0.292,0.221,0.6,0.43,0.905,0.641
		C419.565,23.908,419.569,24.141,419.271,24.168z M422.084,23.547c-0.572-0.221-0.447-0.324-0.43-0.314
		c0.139,0.049,0.311,0.107,0.375,0.199C422.061,23.477,422.078,23.514,422.084,23.547c0.071,0.027,0.15,0.057,0.245,0.088
		c-0.017-0.004-0.036-0.006-0.057-0.008c0.192,0.07,0.236,0.102,0.27,0.129c0.045,0.039,0.105,0.111,0.086,0.141
		c-0.105,0.178-0.229,0.195-0.38,0.104c-0.16-0.098-0.248-0.207-0.181-0.361c0.008-0.018,0.118-0.021,0.205-0.012
		c-0.051-0.02-0.111-0.041-0.185-0.064c0.008,0.102-0.108,0.139-0.307,0.072c-0.123-0.041-0.214-0.166-0.294-0.264
		c0.266,0.082,0.455,0.143,0.601,0.191C422.088,23.557,422.085,23.553,422.084,23.547z M424.525,26.379
		c-0.084-0.012-0.168-0.045-0.241-0.084c-0.077-0.041-0.16-0.094-0.195-0.152c-0.063-0.111-0.064-0.182-0.013-0.217h-0.004
		c-0.007-0.016-0.012-0.029-0.016-0.043c-0.507-0.041-0.558-0.125-0.636-0.41c-0.001-0.014,0-0.023-0.001-0.037
		c-0.005,0.012-0.009,0.021-0.014,0.033c-0.013,0.029-0.19,0-0.29,0.014c-0.432,0.063-0.791-0.016-1.063-0.291
		c-0.229-0.234-0.584-0.061-0.828-0.15c-0.259-0.096-0.444-0.316-0.692-0.453c-0.229-0.123-0.288-0.207-0.137-0.326
		c0.141-0.113,0.312-0.162,0.537-0.129c0.096,0.014,0.232-0.004,0.276,0.037c0.339,0.316,0.798,0.385,1.288,0.467
		c0.26,0.041,0.46,0.293,0.684,0.449c0.704,0.418,0.777,0.469,0.876,0.797c0.152,0.012,0.34,0.02,0.589,0.027
		c-0.096,0.004-0.197,0.021-0.287,0.006c-0.143-0.027-0.234-0.023-0.282,0.01c0.931-0.014,1.224,0.109,1.194,0.244
		C425.24,26.301,424.83,26.422,424.525,26.379z M436.821,28.332c-0.081-0.035-0.218-0.125-0.208-0.143
		c0.107-0.166,0.251-0.217,0.392-0.17c0.071,0.049,0.216,0.127,0.206,0.146C437.101,28.332,436.955,28.392,436.821,28.332z
		 M439.027,29.144c-0.189,0.244-0.868,0.25-1.019,0.014c-0.027-0.043-0.023-0.117,0.007-0.156c0.046-0.061,0.126-0.139,0.203-0.148
		c0.192-0.025,0.399-0.031,0.595-0.016c0.079,0.008,0.147,0.096,0.222,0.146C439.031,29.039,439.057,29.103,439.027,29.144z
		 M444.369,31.027c-0.078,0.031-0.21,0.033-0.292,0.006c-0.173-0.057-0.326-0.141-0.489-0.217c0.153-0.08,0.296-0.174,0.461-0.24
		c0.076-0.031,0.193-0.01,0.291-0.012c0.163,0.072,0.322,0.148,0.485,0.221C444.675,30.869,444.533,30.96,444.369,31.027z
		 M447.299,31.619c-0.024,0.01-0.043,0.043-0.04,0.125c-0.066,0.051-0.128,0.139-0.205,0.148c-0.194,0.027-0.433,0.072-0.583,0.01
		c-0.251-0.105-0.437-0.299-0.674-0.436c-0.205-0.117-0.271-0.201-0.224-0.316c0.03-0.08,0.684-0.24,0.797-0.168
		c0.3,0.197,0.599,0.396,0.882,0.604C447.273,31.601,447.284,31.607,447.299,31.619C447.361,31.591,447.446,31.714,447.299,31.619z
		 M443.591,37.496c-0.163-0.096-0.251-0.207-0.182-0.359c0.003-0.008,0.028-0.012,0.059-0.014c-0.022-0.006-0.036-0.008-0.06-0.014
		c-0.037,0.049-0.132,0.063-0.299,0.037c-0.267-0.037-0.567,0.084-0.805-0.105c-0.048-0.041-0.073-0.1-0.108-0.15
		c0.592,0.1,0.968,0.168,1.212,0.219c0.012-0.016,0.02-0.033,0.02-0.055c-1.117-0.377-0.618-0.434-0.246-0.289
		c0.081,0.031,0.162,0.092,0.194,0.154c0.033,0.055,0.049,0.098,0.052,0.135c0.073,0.025,0.154,0.051,0.244,0.078
		c-0.055-0.014-0.145-0.016-0.204-0.01c0.333,0.07,0.383,0.102,0.416,0.131c0.044,0.039,0.105,0.109,0.087,0.141
		C443.865,37.57,443.745,37.587,443.591,37.496z M473.812,32.25c0.08,0.037,0.22,0.125,0.207,0.145
		c-0.105,0.166-0.247,0.217-0.393,0.168c-0.068-0.049-0.212-0.127-0.201-0.145C473.53,32.251,473.677,32.191,473.812,32.25z
		 M469.023,33.691c0.496-0.059,0.766,0.096,0.794,0.453c0.018,0.271-0.138,0.438-0.446,0.475c-0.496,0.057-0.766-0.098-0.792-0.455
		C468.559,33.894,468.715,33.726,469.023,33.691z M463.182,32.435c0.303,0.197,0.6,0.395,0.886,0.604
		c0.021,0.016,0.03,0.021,0.046,0.031c0.062-0.021,0.146,0.096,0,0c-0.025,0.008-0.046,0.041-0.043,0.125
		c-0.067,0.053-0.127,0.139-0.206,0.15c-0.19,0.025-0.433,0.072-0.581,0.008c-0.252-0.105-0.438-0.299-0.671-0.434
		c-0.209-0.119-0.274-0.203-0.227-0.316C462.419,32.521,463.069,32.361,463.182,32.435z M462.764,36.576
		c-0.087-0.033-0.151-0.1-0.224-0.152c-0.009-0.129,0.425-0.293,0.75-0.244c0.172,0.027,0.327,0.141,0.487,0.215
		c-0.066,0.053-0.122,0.123-0.202,0.16C463.317,36.673,463.036,36.681,462.764,36.576z M463.304,38.748
		c0.016,0.018-0.106,0.113-0.187,0.154c-0.124,0.064-0.28,0.012-0.409-0.148c-0.015-0.018,0.122-0.102,0.188-0.156
		C463.03,38.542,463.177,38.587,463.304,38.748z M460.719,35.464c0.042-0.066,0.118-0.15,0.203-0.162
		c0.19-0.027,0.398-0.016,0.599-0.021c0.197-0.006,0.413-0.045,0.6-0.006c0.234,0.049,0.325,0.182,0.261,0.289
		c-0.037,0.064-0.123,0.156-0.199,0.16c-0.397,0.027-0.806,0.059-1.202,0.025C460.75,35.73,460.656,35.57,460.719,35.464z
		 M474.492,44.298c-0.283,0.053-0.598,0.027-0.9,0.033c-0.227,0.061-0.396,0.008-0.527-0.146c-0.124-0.143,0.146-0.313,0.525-0.32
		c0.201-0.004,0.403-0.01,0.604-0.014c0.102-0.004,0.208-0.027,0.297-0.002c0.088,0.025,0.172,0.088,0.225,0.152
		C474.797,44.105,474.721,44.257,474.492,44.298z M475.756,43.292c-0.296,0.043-0.597,0.061-0.674,0.068
		c-1.836-0.713-3.326-1.289-4.544-1.76c-0.226,0.002-0.35-0.002-0.482-0.047c4.352,1.824,4.113,1.834,3.879,1.83
		c-0.087-0.002-0.191-0.057-0.253-0.109c-0.285-0.254-0.611-0.365-1.068-0.33c-0.523,0.043-0.529,0.014-1.085-0.275
		c-0.084-0.043-0.156-0.143-0.234-0.145c-0.616,0.004-1.234,0.002-1.85,0.049c-0.451,0.035-0.789-0.053-1.079-0.316
		c-0.129-0.119-0.307-0.209-0.455-0.322c-0.22-0.168-0.452-0.277-0.797-0.252c-0.511,0.035-1.031,0.004-1.541,0.051
		c-0.475,0.045-0.76-0.148-1.049-0.371c-0.071-0.055-0.158-0.104-0.227-0.16c-0.29-0.23-0.587-0.418-1.054-0.359
		c-0.303,0.037-0.621,0-0.924,0.033c-0.352,0.039-0.598-0.086-0.788-0.268c-0.239-0.225-0.573-0.104-0.832-0.18
		c-0.271-0.078-0.451-0.332-0.719-0.422c-0.254-0.082-0.57,0.066-0.846-0.152c-0.349-0.277-0.73-0.574-1.18-0.721
		c-0.343-0.111-0.811,0.002-1.221,0.004c-0.195,0-0.459,0.029-0.579-0.051c-0.522-0.35-1.005-0.734-1.491-1.115
		c-0.003-0.004,0.121-0.145,0.199-0.156c0.714-0.1,1.414-0.141,1.918,0.389c0.446-0.076,0.801,0.029,1.078,0.305
		c0.138,0.135,0.317,0.148,0.551,0.129c0.301-0.025,0.605-0.004,0.911-0.002c0.341,0.455,1.074,0.332,1.542,0.617
		c0.35,0.211,0.397,0.203,0.643-0.018c0.173-0.162,0.284-0.221,0.435-0.113c0.229,0.16,0.482,0.303,0.682,0.48
		c0.298,0.266,0.638,0.359,1.085,0.305c0.301-0.035,0.613-0.021,0.92-0.027c-0.051-0.035-0.054-0.107,0.004-0.205
		c0.051-0.096,0.213-0.162,0.343-0.221c0.301,0.123,0.591,0.242,0.873,0.359c0.674,0.246,2.015,0.756,4.691,1.787
		c0.035,0,0.07,0,0.11,0c0.433-0.006,0.452-0.027,1.063,0.322c0.341,0.195,0.813-0.021,1.093,0.291
		c0.176,0.197,0.473,0.219,0.787,0.27c0.36,0.057,0.656,0.324,1.02,0.408c0.371,0.086,0.802-0.094,1.186,0.078
		c0.067,0.033,0.168,0.117,0.151,0.156C475.926,43.193,475.835,43.279,475.756,43.292z M479.174,44.197
		c0.003-0.008,0.028-0.012,0.058-0.016c-0.02-0.004-0.035-0.008-0.06-0.014c-0.037,0.051-0.132,0.063-0.3,0.039
		c-0.264-0.039-0.566,0.082-0.805-0.105c-0.047-0.041-0.073-0.102-0.109-0.15c0.594,0.1,0.969,0.168,1.214,0.217
		c0.01-0.014,0.021-0.031,0.019-0.055c-1.119-0.375-0.616-0.432-0.246-0.287c0.081,0.031,0.162,0.092,0.195,0.152
		c0.032,0.057,0.049,0.1,0.051,0.135c0.073,0.025,0.156,0.051,0.245,0.078c-0.055-0.012-0.146-0.016-0.204-0.01
		c0.333,0.072,0.382,0.104,0.415,0.133c0.046,0.037,0.105,0.109,0.088,0.141c-0.106,0.176-0.228,0.193-0.38,0.102
		C479.194,44.46,479.106,44.349,479.174,44.197z M483.049,45.976c-0.229,0.012-0.38-0.023-0.545-0.121
		c-0.761-0.443-0.924-0.461-1.446-0.002c-0.192,0.17-0.264,0.205-0.438,0.029c-0.104-0.102-0.238-0.186-0.373-0.266
		c-0.059,0.027-0.115,0.053-0.177,0.082c-0.268,0.191-0.309,0.223-0.344,0.246c-0.049,0.033-0.145,0.076-0.188,0.063
		c-0.234-0.082-0.257-0.176-0.14-0.289c0.126-0.121,0.271-0.186,0.472-0.129c0.028,0.008,0.036,0.135,0.011,0.197
		c0.07-0.035,0.123-0.057,0.188-0.088c0.042-0.031,0.088-0.063,0.143-0.102c-0.012-0.008-0.023-0.016-0.037-0.023
		c-0.409-0.24-0.434-0.301-0.121-0.385c0.449-0.117,0.954-0.145,1.221-0.504c0.015-0.02,0.135,0.004,0.213,0.008
		c-0.629,0.443-1.022,0.723-1.275,0.904c0.012,0.006,0.023,0.014,0.034,0.02c1.511-0.697,1.739-0.455,2.102-0.826
		c0.201-0.211,0.546-0.158,0.554,0.076c0.013,0.344,0.211,0.559,0.541,0.752c0.051,0.029,0.104,0.115,0.083,0.152
		C483.439,45.933,483.263,45.964,483.049,45.976z M489.674,47.126c-0.123,0.064-0.279,0.012-0.408-0.148
		c-0.015-0.018,0.12-0.102,0.184-0.156c0.133-0.055,0.283-0.01,0.412,0.15C489.878,46.99,489.756,47.085,489.674,47.126z
		 M500.503,45.455c-0.081-0.037-0.145-0.1-0.217-0.148c0.126-0.16,0.265-0.223,0.398-0.164c0.083,0.037,0.221,0.125,0.207,0.143
		C500.785,45.453,500.636,45.511,500.503,45.455z M503.462,49.587c-0.125,0.066-0.28,0.014-0.413-0.146
		c-0.012-0.018,0.121-0.102,0.187-0.156c0.135-0.057,0.283-0.01,0.413,0.15C503.662,49.453,503.538,49.548,503.462,49.587z
		 M504.308,46.761c-0.084-0.037-0.221-0.125-0.21-0.145c0.107-0.164,0.25-0.217,0.392-0.168c0.071,0.049,0.218,0.127,0.206,0.145
		C504.585,46.761,504.439,46.82,504.308,46.761z M507.654,46.14c-0.188,0.246-0.869,0.252-1.02,0.016
		c-0.023-0.043-0.025-0.115,0.006-0.156c0.05-0.061,0.124-0.139,0.204-0.148c0.194-0.025,0.4-0.033,0.593-0.016
		c0.079,0.008,0.15,0.096,0.221,0.148C507.659,46.037,507.682,46.101,507.654,46.14z M510.156,46.546
		c-0.188,0.244-0.868,0.252-1.015,0.016c-0.03-0.045-0.028-0.117,0.002-0.156c0.049-0.061,0.124-0.141,0.204-0.15
		c0.194-0.025,0.397-0.031,0.594-0.014c0.079,0.008,0.15,0.096,0.221,0.146C510.164,46.441,510.19,46.505,510.156,46.546z
		 M511.946,50.853c-0.598,0.084-0.905-0.178-0.799-0.654c0.012-0.064,0.113-0.113,0.175-0.17c0.194-0.041,0.199-0.041,0.871,0.438
		c0.07,0.051,0.138,0.104,0.211,0.154C512.248,50.701,512.112,50.828,511.946,50.853z M513.188,47.011
		c-0.26,0.119-0.536,0.127-0.81,0.021c-0.086-0.033-0.149-0.102-0.225-0.152c-0.009-0.129,0.428-0.293,0.751-0.244
		c0.171,0.027,0.324,0.141,0.484,0.213C513.323,46.904,513.268,46.974,513.188,47.011z M513.925,39.511
		c-0.135,0.055-0.283,0.01-0.413-0.15c-0.012-0.02,0.113-0.113,0.19-0.154c0.125-0.064,0.28-0.012,0.409,0.148
		C514.123,39.373,513.99,39.457,513.925,39.511z M516.418,47.312c-0.044,0.064-0.119,0.146-0.203,0.164
		c-0.732,0.143-0.739,0.133-1.01,0.346c-0.07,0.053-0.128,0.117-0.209,0.154c-0.327,0.158-0.865-0.037-0.936-0.334
		c-0.086-0.377,0.113-0.582,0.588-0.59c0.202-0.004,0.4-0.01,0.604-0.014c0.299-0.008,0.608-0.051,0.9-0.012
		C516.386,47.056,516.48,47.205,516.418,47.312z M519.096,50.527c-0.047,0.064-0.126,0.146-0.204,0.154
		c-0.301,0.023-0.604,0.021-0.907,0.029c0,0.006-0.002,0.008-0.004,0.012c0.031,0.02,0.034,0.135,0.012,0.195
		c-0.004-0.07-0.008-0.127-0.012-0.186c-0.018,0.244-0.084,0.301-0.146,0.344c-0.052,0.033-0.144,0.076-0.185,0.063
		c-0.233-0.082-0.262-0.174-0.144-0.289c0.124-0.121,0.271-0.186,0.472-0.131l0.001,0.002c-0.012-0.227-0.021-0.354-0.026-0.477
		c-0.002-0.002-0.004-0.002-0.008-0.004c-0.049,0.031-0.142,0.037-0.281,0.016c-0.268-0.037-0.569,0.082-0.803-0.105
		c-0.052-0.041-0.074-0.1-0.111-0.15c0.387,0.061,0.691,0.102,0.94,0.133c-0.781-0.35-0.313-0.404,0.047-0.256
		c0.077,0.031,0.159,0.09,0.194,0.15c0.033,0.057,0.049,0.102,0.051,0.137c0.498,0.051,0.692,0.043,0.877,0.07
		C519.096,50.267,519.177,50.421,519.096,50.527z M520.956,50.478c-0.044,0.063-0.162,0.164-0.188,0.154
		c-0.22-0.084-0.304-0.195-0.225-0.297c0.041-0.061,0.125-0.107,0.19-0.16C520.946,50.273,521.031,50.378,520.956,50.478z
		 M521.404,40.257c-0.127,0.064-0.282,0.012-0.409-0.148c-0.018-0.018,0.117-0.102,0.184-0.156c0.133-0.055,0.282-0.01,0.412,0.152
		C521.603,40.121,521.48,40.216,521.404,40.257z M525.302,48.896c0.105-0.166,0.249-0.219,0.39-0.17
		c0.071,0.051,0.218,0.129,0.204,0.146c-0.107,0.168-0.256,0.225-0.388,0.168C525.425,49.003,525.29,48.914,525.302,48.896z
		 M526.544,52.291c-0.259,0.119-0.536,0.125-0.809,0.021c-0.089-0.033-0.15-0.1-0.225-0.152c-0.011-0.129,0.425-0.295,0.748-0.244
		c0.177,0.027,0.326,0.139,0.486,0.215C526.68,52.185,526.624,52.253,526.544,52.291z M530.185,44.873
		c0.074-0.039,0.166-0.057,0.252-0.082c0.098-0.004,0.214-0.031,0.294-0.004c0.17,0.057,0.378,0.117,0.471,0.225
		c0.084,0.092-0.413,0.287-0.731,0.236c-0.175-0.027-0.326-0.141-0.489-0.213C530.049,44.98,530.107,44.916,530.185,44.873z
		 M528.568,48.496c-0.085-0.037-0.146-0.096-0.22-0.148c0.126-0.158,0.268-0.221,0.398-0.162c0.083,0.037,0.221,0.127,0.209,0.143
		C528.844,48.496,528.699,48.554,528.568,48.496z M531.89,50.351c-0.581,0.127-0.822,0.051-0.935-0.313
		c-0.097-0.307-0.09-0.619-0.671-0.57c0.026-0.107-0.012-0.188-0.069-0.256c0.009,0.074,0.02,0.158,0.031,0.248
		c0.072,0.027,0.094,0.1,0.053,0.227c-0.011,0.035-0.009,0.07-0.004,0.107c-0.018-0.117-0.035-0.234-0.049-0.334
		c-0.034-0.014-0.082-0.014-0.142-0.004c0.12,0.82,0.005,0.934-0.124,0.916c-0.179-0.025-0.346-0.338-0.292-0.564
		c0.013-0.064,0.058-0.129,0.108-0.182c0.054-0.057,0.117-0.121,0.197-0.146c0.045-0.014,0.075-0.016,0.11-0.023
		c-0.018-0.115-0.037-0.244-0.066-0.393c-0.073-0.045-0.153-0.088-0.226-0.133c-0.293-0.182-0.202-0.408-0.205-0.623
		c-0.001-0.057,0.124-0.111,0.232-0.199c0.085,0.377,0.15,0.691,0.198,0.955c0.071,0.043,0.131,0.092,0.177,0.148
		c-0.102-0.914,0.063-0.775,0.259-0.742c0.381,0.064,0.792,0.004,1.186,0.041c0.14,0.014,0.255,0.162,0.384,0.248
		c-0.066,0.055-0.14,0.109-0.202,0.17c-0.493,0.451-0.494,0.455,0.208,1.104C532.166,50.138,532.131,50.296,531.89,50.351z
		 M533.861,52.177c-0.02,0.01-0.135-0.092-0.207-0.143c-0.076-0.102-0.02-0.215,0.19-0.307c0.024-0.012,0.154,0.084,0.205,0.143
		C534.138,51.968,534.074,52.083,533.861,52.177z M535.109,49.81c-0.174-0.027-0.322-0.141-0.486-0.215
		c0.066-0.055,0.124-0.119,0.205-0.162c0.071-0.039,0.163-0.055,0.249-0.084c0.099-0.002,0.213-0.029,0.296-0.002
		c0.17,0.057,0.376,0.117,0.472,0.225C535.927,49.664,535.435,49.859,535.109,49.81z M536.164,40.429
		c-0.023,0.012-0.152-0.084-0.207-0.143c-0.087-0.096-0.021-0.213,0.188-0.307c0.022-0.012,0.141,0.092,0.212,0.143
		C536.432,40.224,536.373,40.335,536.164,40.429z M536.84,42.679c-0.083-0.037-0.22-0.125-0.206-0.145
		c0.107-0.166,0.249-0.219,0.391-0.17c0.071,0.051,0.216,0.127,0.203,0.146C537.122,42.677,536.976,42.738,536.84,42.679z
		 M537.977,45.847c-0.045,0.063-0.162,0.162-0.185,0.152c-0.224-0.084-0.305-0.195-0.229-0.295c0.043-0.063,0.127-0.109,0.19-0.162
		C537.968,45.64,538.053,45.748,537.977,45.847z M540.743,46.398c-0.079,0.031-0.194,0.01-0.294,0.014
		c-0.16-0.076-0.321-0.148-0.484-0.223c0.15-0.082,0.294-0.176,0.457-0.24c0.076-0.031,0.209-0.035,0.291-0.006
		c0.171,0.055,0.326,0.141,0.488,0.215C541.051,46.24,540.909,46.333,540.743,46.398z M565.033,37.9
		c0.139,0.053,0.309,0.109,0.376,0.203c0.029,0.039,0.04,0.072,0.047,0.104c0.077,0.029,0.164,0.061,0.267,0.094
		c-0.061,0-0.119,0.002-0.179,0.004c0.383,0.158,0.485,0.23,0.52,0.314c0.159,0.402-0.209,0.701-0.765,0.619
		c-0.151-0.023-0.278-0.152-0.418-0.23c0.064-0.053,0.135-0.104,0.192-0.16c0.167-0.16,0.462-0.271,0.361-0.537
		c-0.047,0.037-0.143,0.039-0.273-0.004c-0.128-0.043-0.219-0.166-0.298-0.268c0.243,0.092,0.436,0.166,0.589,0.227
		c0.005-0.018,0.01-0.035,0.004-0.059C564.889,37.994,565.012,37.892,565.033,37.9z M566.288,41.794
		c-0.151,0.08-0.296,0.174-0.458,0.238c-0.079,0.031-0.208,0.035-0.291,0.008c-0.174-0.057-0.324-0.145-0.49-0.217
		c0.153-0.082,0.297-0.176,0.459-0.24c0.08-0.033,0.197-0.01,0.296-0.014C565.963,41.646,566.126,41.718,566.288,41.794z
		 M562.992,38.724c0.072-0.127,0.181-0.242,0.278-0.363c0.11,0.115,0.235,0.225,0.327,0.348c0.042,0.061,0.015,0.148,0.018,0.225
		c-0.092,0.121-0.188,0.24-0.285,0.361c-0.106-0.115-0.234-0.227-0.324-0.35C562.965,38.884,562.959,38.787,562.992,38.724z
		 M563.037,41.644c0.08-0.031,0.195-0.01,0.293-0.012c0.163,0.074,0.325,0.148,0.484,0.223c-0.15,0.08-0.294,0.174-0.456,0.24
		c-0.078,0.031-0.21,0.033-0.291,0.006c-0.172-0.057-0.325-0.143-0.489-0.217C562.729,41.804,562.872,41.71,563.037,41.644z
		 M559.494,40.482c0.049-0.061,0.165-0.162,0.186-0.152c0.226,0.084,0.299,0.191,0.234,0.297c-0.063,0.053-0.166,0.162-0.188,0.152
		C559.503,40.695,559.42,40.582,559.494,40.482z M554.127,43.419c0.046-0.063,0.124-0.143,0.207-0.152
		c0.192-0.027,0.397-0.018,0.6-0.023c0.199-0.004,0.414-0.047,0.598-0.004c0.241,0.055,0.322,0.191,0.239,0.297
		c-0.048,0.063-0.128,0.148-0.204,0.154c-0.4,0.021-0.809,0.061-1.202,0.021C554.129,43.691,554.047,43.525,554.127,43.419z
		 M548.351,37.337c0.021-0.01,0.149,0.084,0.203,0.145c0.09,0.096,0.023,0.211-0.187,0.307c-0.023,0.01-0.139-0.092-0.208-0.143
		C548.082,37.542,548.141,37.433,548.351,37.337z M542.588,49.941c-0.048,0.063-0.161,0.164-0.185,0.154
		c-0.224-0.084-0.306-0.197-0.229-0.297c0.044-0.063,0.125-0.109,0.19-0.162C542.577,49.736,542.664,49.839,542.588,49.941z
		 M542.857,46.269c-0.124,0.064-0.279,0.014-0.411-0.146c-0.014-0.018,0.119-0.102,0.188-0.156c0.135-0.057,0.28-0.01,0.411,0.15
		C543.059,46.134,542.936,46.23,542.857,46.269z M544.143,51.312c-0.036-0.037-0.021-0.104-0.029-0.158
		c0.128-0.234,0.797-0.26,1.021-0.033c0.035,0.037,0.045,0.111,0.025,0.156C545.041,51.521,544.364,51.546,544.143,51.312z
		 M546.799,50.416c-0.379,0.037-0.763,0.076-1.146,0.063c-0.155-0.006-0.366-0.121-0.448-0.229
		c-0.155-0.199-0.032-0.285,0.268-0.227c0.092,0.018,0.197-0.002,0.291-0.004c-0.132-0.031-0.243-0.063-0.349-0.09
		c-0.073-0.008-0.14-0.012-0.223-0.02c0.04,0.133-0.058,0.172-0.304,0.137c-0.266-0.039-0.567,0.084-0.802-0.107
		c-0.049-0.039-0.075-0.1-0.11-0.148c0.503,0.053,0.897,0.092,1.216,0.119c-0.003-0.016-0.012-0.031-0.019-0.049
		c-1.001-0.295-0.554-0.334-0.211-0.195c0.078,0.031,0.16,0.092,0.193,0.152c0.009,0.018,0.009,0.027,0.018,0.043
		c0.072,0.021,0.152,0.043,0.241,0.068c0.808,0.066,1.028,0.059,1.228,0.08c0.131,0.016,0.246,0.16,0.347,0.258
		C546.997,50.277,546.876,50.41,546.799,50.416z M549.049,53.992c-0.048,0.063-0.126,0.143-0.206,0.152
		c-0.195,0.027-0.399,0.016-0.602,0.021c-0.199,0.006-0.417,0.049-0.598,0.006c-0.242-0.055-0.32-0.191-0.239-0.297
		c0.048-0.063,0.132-0.148,0.205-0.154c0.399-0.023,0.805-0.061,1.202-0.023C549.049,53.72,549.128,53.886,549.049,53.992z
		 M548.417,50.578c0.046-0.061,0.16-0.162,0.186-0.152c0.22,0.084,0.296,0.191,0.232,0.297c-0.066,0.055-0.167,0.162-0.19,0.152
		C548.422,50.791,548.341,50.679,548.417,50.578z M550.227,53.027c-0.066,0.053-0.164,0.16-0.188,0.15
		c-0.224-0.082-0.304-0.195-0.227-0.295c0.046-0.063,0.158-0.164,0.183-0.154C550.22,52.812,550.292,52.919,550.227,53.027z
		 M551.399,53.542c-0.133,0.055-0.281,0.01-0.412-0.152c-0.015-0.016,0.109-0.111,0.189-0.152c0.123-0.064,0.277-0.012,0.406,0.148
		C551.598,53.404,551.462,53.49,551.399,53.542z M551.425,38.582c-0.074-0.053-0.203-0.102-0.21-0.158
		c-0.036-0.189-0.042-0.379-0.053-0.568c-0.467-0.063-0.57,0.07-0.585,0.234c-0.023,0.227-0.022,0.438-0.278,0.588
		c-0.148-0.098-0.296-0.197-0.442-0.297c-0.075-0.049-0.14-0.119-0.226-0.143c-0.079-0.02-0.173-0.006-0.263,0
		c0.018,0.033,0.023,0.105-0.027,0.219c-0.026,0.063-0.097,0.135-0.174,0.158c-0.163,0.051-0.341,0.082-0.517,0.107
		c-0.194,0.025-0.404-0.033-0.464-0.184c-0.022-0.07,0.159-0.229,0.289-0.268c0.169-0.049,0.376-0.02,0.571-0.025
		c0.278-0.16,0.262-0.313,0.255-0.465c-0.013-0.277,0.153-0.482,0.435-0.482c0.393-0.002,0.792,0.002,1.177,0.051
		c0.23,0.027,0.302,0.201,0.244,0.379c0.384-0.088,0.522,0.182,0.762,0.305c-0.12-0.035-0.223-0.064-0.321-0.09
		c0.608,0.295,0.827,0.402,0.859,0.621c0.027,0.172,0.008,0.305-0.134,0.422c-0.144,0.121-0.267,0.088-0.446-0.082
		C551.748,38.783,551.58,38.689,551.425,38.582z M552.649,50.783c-0.227,0.059-0.393,0.008-0.527-0.146
		c-0.124-0.145,0.146-0.313,0.526-0.32c0.2-0.004,0.401-0.01,0.603-0.016c0.102-0.002,0.213-0.027,0.301,0
		c0.087,0.023,0.173,0.088,0.222,0.15c0.078,0.104,0.004,0.258-0.224,0.299C553.264,50.804,552.949,50.777,552.649,50.783z
		 M554.107,54.021c-0.36,0.01-0.583-0.113-0.635-0.344c-0.086-0.375,0.113-0.576,0.585-0.592c0.357-0.01,0.582,0.113,0.639,0.344
		C554.778,53.804,554.575,54.007,554.107,54.021z M555.142,50.724c0.009-0.02,0.114-0.021,0.202-0.014
		c-0.051-0.02-0.109-0.039-0.183-0.064c0.008,0.102-0.109,0.141-0.303,0.074c-0.132-0.043-0.219-0.166-0.301-0.268
		c0.269,0.084,0.458,0.145,0.604,0.193c0-0.004-0.002-0.01-0.003-0.016c-0.576-0.221-0.449-0.322-0.428-0.314
		c0.138,0.053,0.308,0.107,0.375,0.201c0.031,0.043,0.046,0.082,0.053,0.113c0.07,0.027,0.15,0.057,0.245,0.088
		c-0.018-0.002-0.038-0.006-0.06-0.008c0.192,0.072,0.236,0.102,0.27,0.131c0.047,0.037,0.107,0.109,0.086,0.141
		c-0.104,0.176-0.227,0.193-0.38,0.102C555.161,50.988,555.073,50.876,555.142,50.724z M556.34,54.9
		c-0.074-0.051-0.147-0.102-0.222-0.152c-0.147-0.104-0.282-0.219-0.444-0.305c-0.215-0.113-0.284-0.205-0.193-0.316
		c0.114-0.143,0.28-0.193,0.509-0.152c0.453-0.021,0.692,0.188,0.622,0.564C556.59,54.667,556.432,54.781,556.34,54.9z
		 M556.854,44.128c-0.111-0.113-0.286-0.217-0.326-0.342c-0.114-0.375,0.101-0.582,0.56-0.596c0.199-0.006,0.398-0.01,0.598-0.016
		c0.368-0.064,0.651,0.16,0.576,0.287c-0.097,0.162-0.263,0.221-0.495,0.18c-0.229-0.043-0.394,0.012-0.51,0.154
		c-0.054,0.063-0.134,0.111-0.2,0.168C556.99,44.019,556.923,44.074,556.854,44.128z M557.092,50.832
		c0.125-0.24,0.8-0.268,1.021-0.033c0.036,0.037,0.047,0.111,0.024,0.154c-0.118,0.244-0.796,0.271-1.016,0.037
		C557.084,50.951,557.1,50.884,557.092,50.832z M558.188,53.375c-0.257,0.117-0.535,0.125-0.809,0.02
		c-0.084-0.031-0.15-0.1-0.223-0.15c-0.01-0.129,0.426-0.295,0.748-0.244c0.174,0.027,0.328,0.139,0.489,0.213
		C558.325,53.267,558.273,53.337,558.188,53.375z M560.294,51.416c-0.285-0.246-0.606-0.371-1.065-0.344
		c-0.217,0.014-0.341-0.164-0.283-0.279c0.035-0.066,0.124-0.156,0.202-0.162c0.306-0.027,0.614-0.023,0.922-0.031
		c0.313-0.008,0.633,0.021,0.927-0.031c0.617-0.111,0.923,0.221,1.315,0.463c0.225,0.139,0.291,0.215,0.128,0.334
		c-0.146,0.107-0.321,0.143-0.55,0.127c-0.208-0.012-0.346-0.094-0.519-0.205c-0.34-0.217-0.381-0.219-0.644,0.016
		C560.554,51.46,560.431,51.535,560.294,51.416z M561.896,54.753c-0.025,0.012-0.151-0.084-0.207-0.145
		c-0.086-0.096-0.021-0.211,0.189-0.307c0.023-0.01,0.137,0.092,0.209,0.143C562.161,54.548,562.105,54.658,561.896,54.753z
		 M563.879,53.623c-0.047,0.064-0.129,0.148-0.206,0.152c-0.402,0.025-0.812,0.027-1.216,0.037
		c-0.404,0.012-0.817,0.055-1.213,0.018c-0.238-0.021-0.325-0.188-0.24-0.295c0.048-0.063,0.132-0.148,0.204-0.152
		c0.813-0.029,1.622-0.066,2.436-0.053C563.87,53.333,563.963,53.515,563.879,53.623z M564.96,51.257
		c-0.048,0.063-0.126,0.143-0.204,0.152c-0.198,0.027-0.401,0.018-0.601,0.021c-0.206,0.006-0.42,0.051-0.602,0.008
		c-0.239-0.057-0.319-0.193-0.239-0.299c0.047-0.061,0.129-0.148,0.206-0.152c0.399-0.025,0.808-0.063,1.2-0.023
		C564.955,50.986,565.038,51.152,564.96,51.257z M566.236,44.292c-0.787,0.178-1.614,0.061-2.206,0.129
		c-1.032,0.025-1.854,0.047-2.673,0.064c-0.262,0.006-0.46-0.209-0.496-0.475c-0.028-0.174,0.009-0.311,0.22-0.393
		c0.048-0.02,0.156,0.016,0.213,0.049c0.243,0.125,0.387,0.363,0.758,0.34c0.408-0.027,0.821-0.025,1.229-0.035
		c0.396-0.01,0.675-0.16,0.569-0.311c-0.115-0.166-0.301-0.209-0.532-0.16c-0.096,0.018-0.213,0.027-0.304,0.004
		c-0.091-0.025-0.182-0.086-0.232-0.148c-0.082-0.107-0.004-0.277,0.225-0.301c0.505-0.053,1.025-0.025,1.538-0.057
		c0.226-0.012,0.368,0.041,0.534,0.168c0.44,0.334,0.91,0.641,1.367,0.959C566.377,44.183,566.322,44.273,566.236,44.292z
		 M567.547,48.156c0.123-0.064,0.276-0.014,0.405,0.146c0.017,0.018-0.115,0.104-0.184,0.156c-0.133,0.057-0.281,0.012-0.41-0.15
		C567.343,48.291,567.469,48.195,567.547,48.156z M568.149,51.332c-0.203,0.006-0.403,0.012-0.605,0.016
		c-0.101,0.004-0.209,0.027-0.297,0.002c-0.087-0.023-0.175-0.088-0.222-0.152c-0.076-0.104-0.007-0.256,0.22-0.299
		c0.287-0.053,0.6-0.025,0.9-0.033c0.231-0.059,0.395-0.006,0.529,0.148C568.797,51.156,568.527,51.326,568.149,51.332z
		 M569.846,51.681c-0.137,0.053-0.285,0.01-0.414-0.15c-0.013-0.018,0.111-0.113,0.19-0.152c0.124-0.066,0.278-0.014,0.407,0.146
		C570.042,51.542,569.909,51.626,569.846,51.681z M571.277,52.964c-0.095,0.166-0.263,0.215-0.499,0.178
		c-0.093-0.018-0.21,0.025-0.293-0.002c-0.227-0.076-0.32-0.189-0.252-0.295c0.041-0.064,0.114-0.131,0.199-0.16
		c0.083-0.029,0.194-0.012,0.293-0.014C571.112,52.664,571.37,52.802,571.277,52.964z M571.561,40.414
		c-0.136,0.057-0.281,0.012-0.413-0.148c-0.014-0.018,0.109-0.113,0.187-0.152c0.127-0.066,0.281-0.016,0.41,0.145
		C571.759,40.277,571.624,40.363,571.561,40.414z M572.968,53.542c-0.222-0.084-0.304-0.195-0.227-0.295
		c0.044-0.063,0.159-0.164,0.186-0.154c0.222,0.084,0.294,0.191,0.231,0.297C573.093,53.445,572.994,53.552,572.968,53.542z
		 M572.922,52.601c-0.161-0.082-0.309-0.18-0.447-0.281c-0.205-0.154-0.456-0.271-0.564-0.502c-0.129-0.264,0.167-0.584,0.583-0.594
		c0.35-0.008,0.616,0.127,0.645,0.332c0.019,0.15,0.021,0.301,0.03,0.453C573.186,52.384,573.059,52.675,572.922,52.601z
		 M577.804,53.515c0.199-0.166,0.39-0.33,0.604-0.488c0.033-0.025,0.133-0.002,0.203,0c0.069,0.053,0.178,0.096,0.201,0.158
		c0.094,0.229,0.008,0.563-0.156,0.609c-0.173,0.049-0.368,0.105-0.543,0.086c-0.17-0.02-0.324-0.131-0.486-0.203
		C577.685,53.623,577.742,53.566,577.804,53.515z M582.472,38.341c-0.073-0.045-0.15-0.088-0.22-0.137
		c-0.149-0.1-0.283-0.215-0.445-0.303c-0.211-0.113-0.291-0.207-0.217-0.314c0.107-0.152,0.271-0.207,0.504-0.162
		c0.46-0.012,0.691,0.172,0.641,0.553C582.712,38.107,582.561,38.222,582.472,38.341z M586.622,35.917
		c0.222,0.084,0.305,0.197,0.233,0.297c-0.05,0.063-0.166,0.162-0.191,0.154c-0.22-0.086-0.292-0.193-0.232-0.299
		C586.497,36.017,586.598,35.908,586.622,35.917z M585.75,39.751c0.075,0.049,0.22,0.127,0.208,0.145
		c-0.106,0.166-0.253,0.227-0.387,0.168c-0.085-0.037-0.221-0.125-0.207-0.145C585.471,39.753,585.612,39.701,585.75,39.751z
		 M584.28,37.837c-0.197,0.004-0.412,0.049-0.598,0.006c-0.24-0.055-0.316-0.191-0.236-0.297c0.046-0.063,0.13-0.148,0.203-0.152
		c0.4-0.025,0.81-0.063,1.204-0.023c0.234,0.021,0.314,0.186,0.237,0.293c-0.048,0.061-0.127,0.143-0.209,0.152
		C584.689,37.843,584.483,37.833,584.28,37.837z M586.653,51.654c-0.047,0.061-0.13,0.146-0.204,0.152
		c-0.401,0.023-0.809,0.061-1.203,0.023c-0.234-0.021-0.315-0.188-0.236-0.293c0.049-0.064,0.126-0.143,0.206-0.154
		c0.195-0.025,0.4-0.016,0.602-0.021c0.199-0.004,0.415-0.049,0.6-0.006C586.654,51.412,586.732,51.546,586.653,51.654z
		 M586.304,37.777c-0.159,0.004-0.329-0.137-0.492-0.209c0.153-0.084,0.293-0.211,0.466-0.236c0.292-0.045,0.605-0.027,1.128-0.039
		c0.071,0.008,0.366,0.021,0.65,0.063c0.084,0.012,0.205,0.096,0.213,0.15c0.004,0.055-0.104,0.137-0.191,0.162
		C587.51,37.839,586.897,37.755,586.304,37.777z M587.456,40.484c-0.085-0.035-0.219-0.125-0.208-0.143
		c0.107-0.166,0.25-0.219,0.392-0.17c0.073,0.049,0.217,0.127,0.203,0.145C587.736,40.482,587.591,40.542,587.456,40.484z
		 M588.384,49.738c-0.044,0.061-0.161,0.162-0.185,0.152c-0.224-0.084-0.304-0.195-0.229-0.297c0.045-0.061,0.127-0.107,0.191-0.162
		C588.375,49.531,588.46,49.638,588.384,49.738z M597.448,40.781c-0.097,0.082-0.758-0.045-0.816-0.146
		c-0.04-0.064-0.1-0.133-0.095-0.199c0.021-0.547-0.44-0.582-0.982-0.555c-0.071,0.004-0.178-0.086-0.214-0.15
		c-0.067-0.107,0.021-0.27,0.241-0.293c0.496-0.047,1.001-0.033,1.504-0.047c0.302-0.008,0.604-0.018,0.905-0.021
		c0.187-0.004,0.432,0.396,0.364,0.566C598.206,40.312,597.774,40.513,597.448,40.781z M608.18,40.359
		c-0.045,0.063-0.161,0.164-0.186,0.154c-0.222-0.084-0.304-0.195-0.229-0.297c0.045-0.061,0.126-0.107,0.191-0.162
		C608.17,40.154,608.256,40.259,608.18,40.359z M608.226,39.58c-0.1,0.004-0.21,0.027-0.299,0.002
		c-0.085-0.023-0.167-0.088-0.218-0.15c-0.083-0.102-0.005-0.219,0.208-0.307c0.08-0.031,0.196-0.008,0.298-0.012
		c0.223-0.059,0.398-0.012,0.518,0.148C608.85,39.417,608.607,39.568,608.226,39.58z M617.529,39.816
		c-0.101,0.004-0.211,0.027-0.298,0.002c-0.086-0.025-0.17-0.088-0.22-0.15c-0.081-0.102-0.005-0.219,0.212-0.307
		c0.076-0.031,0.193-0.01,0.292-0.012c0.225-0.059,0.401-0.012,0.52,0.146C618.149,39.654,617.908,39.804,617.529,39.816z
		 M628.503,38.921c-0.049,0.063-0.132,0.15-0.21,0.152c-0.513,0.025-1.031,0.014-1.545,0.053c-0.38,0.029-0.825-0.117-1.128,0.197
		c-0.177,0.182-0.389,0.313-0.746,0.316c-1.854,0.031-3.705,0.086-5.56,0.133c-0.213,0.006-0.434-0.037-0.493-0.199
		c-0.022-0.059,0.218-0.238,0.358-0.252c0.312-0.031,0.577-0.064,0.789-0.262c0.116-0.109,0.302-0.234,0.467-0.24
		c1.133-0.049,2.266-0.068,3.396-0.096c0.928-0.021,1.854-0.068,2.779-0.061c0.494,0.006,0.701-0.246,0.977-0.457
		c0.303,0.184,0.609,0.365,0.908,0.557C628.533,38.789,628.535,38.882,628.503,38.921z M632.001,38.513
		c-0.221-0.084-0.304-0.195-0.227-0.297c0.046-0.061,0.161-0.162,0.185-0.152c0.223,0.084,0.297,0.191,0.233,0.297
		C632.131,38.414,632.028,38.523,632.001,38.513z M633.617,36.529c-0.08-0.035-0.144-0.096-0.216-0.146
		c0.126-0.16,0.265-0.223,0.397-0.164c0.085,0.037,0.222,0.125,0.208,0.145C633.899,36.529,633.752,36.589,633.617,36.529z
		 M637.264,36.509c-0.289,0.045-0.602,0.053-0.9,0.023c-0.171-0.018-0.327-0.139-0.492-0.211c0.153-0.082,0.291-0.197,0.464-0.238
		c0.184-0.043,0.396-0.018,0.628-0.023c0.283-0.033,0.556,0.02,0.763,0.215C637.575,36.355,637.434,36.484,637.264,36.509z
		 M638.648,36.009c-0.071-0.047-0.147-0.088-0.218-0.137c-0.15-0.102-0.285-0.217-0.444-0.303c-0.209-0.111-0.292-0.207-0.215-0.316
		c0.104-0.15,0.269-0.205,0.5-0.162c0.457-0.01,0.694,0.174,0.64,0.555C638.894,35.773,638.74,35.888,638.648,36.009z
		 M639.835,35.511c-0.022,0.012-0.138-0.092-0.211-0.141c-0.073-0.104-0.018-0.215,0.194-0.311c0.024-0.01,0.15,0.086,0.205,0.146
		C640.114,35.302,640.047,35.417,639.835,35.511z M640.588,34.41c-0.045,0.063-0.16,0.162-0.187,0.152
		c-0.222-0.082-0.302-0.195-0.225-0.295c0.044-0.061,0.127-0.109,0.188-0.162C640.578,34.203,640.664,34.308,640.588,34.41z
		 M647.344,33.285c-0.024,0.066-0.116,0.154-0.193,0.162c-0.296,0.029-0.598,0.057-0.892,0.037c-0.36-0.023-0.554,0.139-0.718,0.316
		c-0.211,0.232-0.517,0.209-0.795,0.184c-0.22-0.02-0.373-0.189-0.295-0.268c0.238-0.236,0.479-0.531,0.813-0.645
		c0.332-0.117,0.783-0.043,1.186-0.053c0.199-0.006,0.407-0.041,0.594-0.008C647.269,33.05,647.386,33.175,647.344,33.285z
		 M648.561,33.275c-0.046,0.063-0.162,0.164-0.187,0.154c-0.222-0.084-0.307-0.197-0.228-0.295c0.046-0.063,0.123-0.109,0.191-0.162
		C648.549,33.07,648.636,33.175,648.561,33.275z M649.738,35.265c-0.226-0.082-0.306-0.195-0.23-0.295
		c0.047-0.063,0.159-0.164,0.186-0.154c0.224,0.084,0.298,0.193,0.232,0.299C649.86,35.167,649.761,35.275,649.738,35.265z
		 M662.049,33.544c0.096-0.068,0.159-0.117,0.196-0.156c-1.034-0.283-0.624-0.373-0.154-0.201c0.19,0.068,0.238,0.113,0.154,0.201
		c0.171,0.047,0.379,0.1,0.636,0.156c-0.095,0.002-0.199,0.021-0.286,0.004c-0.132-0.025-0.219-0.021-0.27,0.006
		c1.035,0.051,1.204,0.146,1.183,0.248c-0.032,0.133-0.44,0.254-0.744,0.211c-0.084-0.012-0.171-0.047-0.241-0.086
		c-0.077-0.041-0.163-0.092-0.196-0.152c-0.067-0.115-0.063-0.186-0.001-0.221C662.243,33.55,662.142,33.546,662.049,33.544
		c-0.013,0.008-0.02,0.014-0.03,0.021c-0.073,0.047-0.14,0.098-0.201,0.148c-0.129,0.105-0.255,0.215-0.396,0.313
		c-0.015,0.008-0.17-0.063-0.196-0.113c-0.073-0.125-0.11-0.262-0.162-0.393C661.456,33.525,661.769,33.535,662.049,33.544z
		 M663.353,35.859c-0.106,0.076-0.451,0.084-0.573,0.014c-0.47-0.283-0.886-0.619-1.349-0.91c-0.216-0.135-0.293-0.215-0.137-0.322
		c0.066-0.047,0.143-0.117,0.224-0.121c0.398-0.021,0.797-0.025,1.195-0.035c0.399-0.01,0.799-0.021,1.197-0.029
		c0.18-0.004,0.422,0.402,0.353,0.57C664.114,35.4,663.697,35.613,663.353,35.859z M671.332,32.945
		c0.084,0.012,0.154,0.096,0.229,0.148c-0.069,0.057-0.122,0.139-0.206,0.164c-0.569,0.172-1.181,0.088-1.774,0.107
		c-0.158,0.006-0.326-0.135-0.49-0.209c0.152-0.08,0.293-0.209,0.461-0.236c0.295-0.043,0.605-0.023,1.129-0.037
		C670.754,32.888,671.047,32.904,671.332,32.945z M670.479,23.143c0.208-0.084,0.412,0.102,0.436,0.391
		c0.006,0.076,0.038,0.158,0.006,0.223c-0.03,0.064-0.113,0.127-0.193,0.164c-0.134,0.059-0.291,0-0.412-0.166
		c-0.042-0.059-0.016-0.146-0.018-0.223C670.215,23.361,670.272,23.229,670.479,23.143z M669.207,23.576
		c0.174,0.025,0.322,0.139,0.485,0.213c-0.066,0.055-0.119,0.123-0.201,0.162c-0.259,0.117-0.538,0.125-0.812,0.02
		c-0.085-0.033-0.146-0.1-0.222-0.15C668.449,23.691,668.885,23.525,669.207,23.576z M665.967,31.294
		c0.039-0.066,0.135-0.166,0.197-0.162c0.438,0.033,0.78-0.066,1.02-0.35c0.051-0.061,0.133-0.146,0.21-0.148
		c0.604-0.027,1.212-0.043,1.819-0.047c0.074,0,0.165,0.086,0.226,0.146c0.276,0.273,0.639,0.334,1.063,0.297
		c0.066-0.006,0.178,0.086,0.217,0.15c0.067,0.107-0.024,0.277-0.245,0.293c-0.701,0.047-1.412,0.047-2.121,0.064
		c-0.703,0.018-1.412,0.057-2.119,0.039C666.008,31.574,665.906,31.402,665.967,31.294z M671.498,36.095
		c-0.078,0.033-0.187,0.029-0.279,0.049c-0.228,0.045-0.39-0.012-0.56-0.109c-0.569-0.33-0.578-0.348-1.064-0.313
		c-0.436,0.031-0.773-0.037-1.092-0.289c-0.292-0.234-0.745-0.221-1.03,0.051c-0.464,0.451-1.08,0.287-1.664,0.289
		c-0.373-0.338-1.084-0.504-0.962-1.102c0.046-0.225-0.021-0.465-0.034-0.697c-0.014-0.154,0.002-0.314-0.04-0.465
		c-0.055-0.178-0.02-0.314,0.188-0.404c0.133-0.059,0.297,0,0.443,0.162c0.165,0.178,0.307,0.209,0.444,0.09
		c0.133-0.115,0.254-0.252,0.418-0.336c0.337-0.168,0.896,0,0.977,0.281c0.098,0.359-0.122,0.602-0.58,0.615
		c-0.308,0.01-0.618,0.006-0.922,0.031c-0.079,0.006-0.168,0.096-0.203,0.164c-0.058,0.111,0.045,0.266,0.281,0.283
		c0.407,0.029,0.82-0.006,1.23-0.021c0.34-0.014,0.332-0.004,1.063,0.324c0.417,0.186,0.971,0.096,1.32,0.455
		c0.184,0.189,0.578,0.102,0.865,0.068c0.623-0.07,0.875,0.326,1.271,0.543C671.773,35.878,671.762,35.988,671.498,36.095z
		 M677.218,22.041c0.072-0.039,0.165-0.055,0.249-0.084c0.328-0.035,0.797,0.09,0.775,0.215c-0.012,0.061-0.109,0.139-0.193,0.16
		c-0.177,0.049-0.365,0.074-0.551,0.09c-0.085,0.006-0.184-0.031-0.259-0.066c-0.087-0.039-0.206-0.1-0.21-0.152
		C677.028,22.15,677.141,22.084,677.218,22.041z M675.913,22.621c0.046-0.061,0.126-0.107,0.191-0.16
		c0.212,0.1,0.299,0.203,0.222,0.305c-0.046,0.061-0.162,0.162-0.184,0.154C675.918,22.834,675.838,22.723,675.913,22.621z
		 M675.306,29.035c0.222,0.084,0.303,0.195,0.228,0.295c-0.049,0.064-0.161,0.164-0.187,0.156c-0.224-0.086-0.296-0.193-0.231-0.299
		C675.18,29.132,675.281,29.027,675.306,29.035z M674.502,30.804c0.093-0.121,0.189-0.242,0.283-0.361
		c0.111,0.115,0.239,0.225,0.328,0.348c0.041,0.061,0.049,0.158,0.015,0.221c-0.072,0.129-0.184,0.244-0.28,0.365
		c-0.111-0.115-0.237-0.225-0.323-0.35C674.48,30.968,674.506,30.88,674.502,30.804z M673.52,40.681
		c-0.084-0.035-0.147-0.098-0.218-0.148c0.128-0.158,0.265-0.221,0.397-0.162c0.085,0.035,0.22,0.125,0.21,0.145
		C673.802,40.681,673.652,40.74,673.52,40.681z M678.164,33.576c-0.525,0.188-0.854,0.047-1.029-0.445
		c-0.154-0.424-0.228-0.457-0.511-0.26c-0.211,0.146-0.327,0.365-0.724,0.359c-0.927-0.01-1.852,0.041-2.78,0.053
		c-0.071,0-0.178-0.09-0.222-0.154c-0.072-0.109,0.015-0.26,0.249-0.297c0.293-0.049,0.609-0.035,0.92-0.031
		c0.522,0.008,0.981-0.02,1.341-0.383c0.267-0.27,0.762-0.092,1.217-0.162c0.234,0.012,0.585-0.041,0.823,0.063
		c0.346,0.15,0.615,0.408,0.91,0.629C678.469,33.033,678.308,33.525,678.164,33.576z"/>
	<path fill="#C04E36" d="M589.907,52.197c-0.067,0.152,0.02,0.264,0.178,0.359c0.155,0.092,0.282,0.074,0.385-0.102
		c0.016-0.031-0.042-0.102-0.089-0.141c-0.057-0.051-0.135-0.102-0.209-0.121C590.085,52.173,589.919,52.175,589.907,52.197z"/>
	<path fill="#C04E36" d="M570.101,54.558c-0.304,0.035-0.463,0.203-0.441,0.473c0.026,0.357,0.297,0.512,0.793,0.453
		c0.308-0.035,0.465-0.203,0.442-0.473C570.869,54.654,570.598,54.5,570.101,54.558z"/>
	<path fill="#C04E36" d="M438.158,35.939c-0.141-0.049-0.282,0.004-0.391,0.172c-0.015,0.018,0.121,0.107,0.207,0.143
		c0.135,0.059,0.283,0,0.391-0.168C438.374,36.068,438.229,35.99,438.158,35.939z"/>
	<path fill="#C04E36" d="M434.241,34.564c-0.026-0.008-0.123,0.1-0.188,0.152c-0.065,0.105,0.006,0.215,0.231,0.299
		c0.023,0.008,0.138-0.092,0.184-0.154C434.547,34.761,434.465,34.648,434.241,34.564z"/>
	<path fill="#C04E36" d="M423.726,30.142c-0.2,0.006-0.401,0.012-0.603,0.016c-0.302,0.008-0.613-0.021-0.899,0.033
		c-0.229,0.041-0.301,0.193-0.222,0.299c0.049,0.063,0.141,0.146,0.218,0.148c0.302,0.012,0.61,0.02,0.902-0.02
		c0.371-0.051,0.534,0.156,0.759,0.293c0.081,0.049,0.15,0.104,0.224,0.156c0.096-0.123,0.252-0.238,0.271-0.367
		C424.445,30.322,424.199,30.125,423.726,30.142z"/>
	<path fill="#C04E36" d="M593.59,38.068c0.506,0,1.008-0.018,1.517-0.031c0.506-0.012,1.012-0.025,1.519-0.039
		c0.199-0.006,0.403-0.313,0.312-0.559c-0.048-0.131-0.2-0.242-0.306-0.361c-0.068,0.045-0.137,0.094-0.205,0.139
		c-0.213,0.143-0.33,0.355-0.715,0.348c-0.707-0.016-1.421,0.002-2.124,0.055c-0.222,0.018-0.3,0.193-0.222,0.299
		C593.414,37.98,593.515,38.066,593.59,38.068z"/>
	<path fill="#C04E36" d="M534.416,53.701c-0.119,0.115-0.093,0.209,0.142,0.291c0.04,0.014,0.136-0.031,0.186-0.063
		c0.063-0.045,0.132-0.1,0.155-0.16c0.025-0.061,0.023-0.189-0.011-0.197C534.685,53.517,534.54,53.58,534.416,53.701z"/>
	<path fill="#C04E36" d="M501.946,51.109c-0.292,0.008-0.593-0.012-0.874,0.035c-0.127,0.021-0.224,0.172-0.311,0.273
		c-0.01,0.01,0.132,0.137,0.206,0.139c0.384,0.018,0.771,0.039,1.152,0.006c0.154-0.014,0.304-0.146,0.428-0.248
		C502.81,51.091,502.804,51.085,501.946,51.109z"/>
	<path fill="#C04E36" d="M543.295,54.287c-0.096,0.02-0.205-0.002-0.304,0.012c-0.654,0.1-1.19-0.041-1.639-0.424
		c-0.044-0.037-0.197,0.01-0.3,0.002c-0.223-0.018-0.401,0.043-0.49,0.209c-0.019,0.035,0.058,0.117,0.114,0.158
		c0.963,0.678,0.75,0.551,1.571,0.539c0.204-0.004,0.411-0.01,0.617-0.016c0.516-0.012,1.033-0.006,1.542-0.049
		c0.153-0.014,0.289-0.16,0.433-0.246c-0.074-0.053-0.153-0.105-0.228-0.16C544.289,54.08,544.289,54.083,543.295,54.287z"/>
	<path fill="#C04E36" d="M595.402,36.082c0.083-0.037,0.139-0.107,0.203-0.162c-0.161-0.074-0.311-0.186-0.485-0.215
		c-0.324-0.049-0.758,0.117-0.749,0.246c0.074,0.051,0.138,0.119,0.225,0.15C594.867,36.208,595.144,36.201,595.402,36.082z"/>
	<path fill="#C04E36" d="M571.802,54.527c-0.142,0.072-0.22,0.225-0.29,0.352c-0.036,0.063,0.004,0.15,0.009,0.225
		c0.037,0.063,0.063,0.135,0.116,0.189c0.057,0.061,0.145,0.105,0.215,0.158c0.097-0.123,0.244-0.234,0.276-0.365
		C572.19,54.841,571.923,54.466,571.802,54.527z"/>
</g>
</svg>
