<?xml version="1.0" encoding="utf-8"?>
<!-- Generator: Adobe Illustrator 16.0.0, SVG Export Plug-In . SVG Version: 6.00 Build 0)  -->
<!DOCTYPE svg PUBLIC "-//W3C//DTD SVG 1.1//EN" "http://www.w3.org/Graphics/SVG/1.1/DTD/svg11.dtd">
<svg version="1.1" id="Layer_1" xmlns="http://www.w3.org/2000/svg" xmlns:xlink="http://www.w3.org/1999/xlink" x="0px" y="0px"
	 width="135.65px" height="90.155px" viewBox="0 0 135.65 90.155" enable-background="new 0 0 135.65 90.155" xml:space="preserve">
<g>
	<g>
		<path fill="#DFCB34" d="M29.714,79.049c0.105,3.094-2.414,3.269-4.006,1.673c-0.14,0.366-0.098,1.187,0,1.565
			c0.482,1.837,1.725,2.354,3.335,2.025C31.799,83.75,31.419,79.753,29.714,79.049z"/>
		<g>
			<path fill="#66B245" d="M49.95,65.308c0.266-0.167,0.943-1.466,0.068-2.493c-1.043-1.222-2.322-0.366-2.643-0.184
				c-0.126-0.826-0.556-2.029-2.186-2.029s-2.025,1.124-2.278,2.033c-0.347-0.196-0.796-0.522-1.457-0.516
				c-1.135,0.114-1.776,0.744-2.044,1.805c-0.102,0.506-0.091,0.902,0.168,1.363c-0.843,0.159-1.287,1.087-1.287,2.186
				s0.765,1.422,1.25,1.693c0,0.653-0.689,2.052,0.607,3.294c1.086,1.04,2.424,0.18,2.743,0c0.231,0.84,1.022,1.906,2.205,1.906
				s2.048-0.997,2.3-1.906c0.348,0.196,1.537,0.96,2.533,0c1.161-1.121,0.289-2.835,0.029-3.294
				c0.791-0.219,2.008-0.441,2.008-1.884S50.778,65.421,49.95,65.308z M44.812,70.503c0,0-1.577,1.745-3.144,0.493
				c-1.567-1.251-0.69-3.146-0.69-3.146s-1.241-2.369,0.468-3.796c1.708-1.428,3.235-0.242,3.366-0.031
				c0.019-0.021,2.302-1.214,3.691,0.346c1.304,1.461,0.26,3.39,0.26,3.39s1.322,1.409-0.072,2.989
				C47.296,72.327,44.812,70.503,44.812,70.503z"/>
			<g>
				<path fill="#C04E36" d="M31.053,86.898c-0.793,1.128-3.019,2.39-5.31,1.667c-1.72-0.54-2.741-1.776-3.08-2.92
					c-0.338-1.136-1.563-4.205-4.114-3.229c-0.806,0.309-0.921,2.087-2.917,2.021c-1.581-0.053-2.529-1.432-2.529-3.012
					c0-1.4,0.729-2.069,2.049-2.377c-0.031,0.127-0.539,3.231,2.891,3.325c0.929,0.025,0.549,0.104,2.31-1.035
					c0.922-0.596,1.789-0.695,2.665-0.448c1.078,0.304,1.477,1.173,1.775,2.318c0.422,1.625,1.703,3.076,3.418,3.618
					C29.32,87.176,30.087,87.021,31.053,86.898z"/>
				<path fill="#C04E36" d="M34.844,84.049c-0.278,1.406-1.536,2.637-3.791,2.85c0.407-0.219,0.907-0.571,1.16-1.14
					c0.587-1.316-0.333-6.095,0.426-7.313c0.638-1.022,1.296-1.711,2.409-1.973C34.622,77.141,35.048,83.021,34.844,84.049z"/>
				<path fill="#C04E36" d="M38.063,76.609c1.002,0.668,1.479,1.122,1.479,1.122l3.351-1.376c-0.679-1.097-2.003-1.917-3.958-1.917
					c-1.954,0-3.615,1.666-3.887,2.036C35.821,76.314,36.964,76.056,38.063,76.609z"/>
			</g>
			<g>
				<path fill="#C04E36" d="M45.457,79.624c0-0.013-0.003-0.015-0.003-0.015"/>
				<path fill="#C04E36" d="M37.457,88.083c0.524-0.007,1.315-0.142,2.085-1.103c-0.82,2.414-2.678,3.175-4.33,3.176
					c-1.358,0-2.129-0.769-2.916-1.324l2.635-1.933C34.931,86.898,35.938,88.103,37.457,88.083z"/>
				<path fill="#C04E36" d="M40.978,81.498c0.695-0.694,1.27-0.742,1.915-0.776c-0.18,0.638-0.043,1.443-0.058,1.895
					c-0.035,1.148-0.072,1.87-0.748,2.874c-0.87,1.296-1.68,1.336-2.545,1.489c0.573-0.578,0.641-1.868,0.641-3.029
					C40.183,82.788,40.284,82.192,40.978,81.498z"/>
				<path fill="#C04E36" d="M51.81,80.754c0,0,0.945-0.596,0.945-1.705c0-1.109-0.764-1.839-0.764-2.851s1.174-1.832,2.106-1.832
					c-0.161,0-0.546,0.734-0.546,1.569c0,0.835,0.546,0.821,0.546,2.328C54.098,79.771,51.81,80.754,51.81,80.754z"/>
				<path fill="#C04E36" d="M51.81,80.754c-0.395,0.49-1.668,2.961-5.182,0.628c-0.362-0.24-0.813-0.531-1.171-0.696
					c-0.738-0.345-1.438-0.328-2.564,0.037c0.154-0.578,1.939-2.904,3.27-2.904c1.2,0,1.996,0.423,2.939,1.361
					C50.07,80.144,50.62,81.063,51.81,80.754z"/>
			</g>
			<g>
				<path fill="#C04E36" d="M53.514,17.733c1.161,2.895,0.068,3.775-1.865,7.389c-0.419,0.786-1.567,3.199-1.567,3.199h1.976
					c0,0,1.372-2.777,2.691-5.198c1.414-2.596,2.241-5.356,0.988-7.809C54.935,13.742,47.446,0,47.446,0h-2.635
					C44.812,0,53.237,17.041,53.514,17.733z"/>
			</g>
			<path fill="#C04E36" d="M42.882,59.285l1.975-0.011c0,0,2.52-1.245,2.52-3.978c0-2.733-2.921-5.454-5.488-6.636
				c-1.734-0.8-4.087-1.795-4.754-3.739c-0.511-1.479,0.286-4.069,1.193-5.203c2.044-2.551,4.454-3.665,4.454-7.187
				c0-2.031-1.313-3.431-2.47-4.92c-1.427-1.845-4.404-5.339-5.041-7.693c-0.367-1.346-0.527-2.85,0.461-4.561
				C37.161,12.887,44.812,0,44.812,0h-2.008c0,0-7.799,13.329-9.711,17.571c-2.074,4.605,0.821,6.64,1.838,7.895
				c3.133,3.868,7.08,8.098,2.547,14.009c-2.436,3.173-2.49,4.273-2.49,6.215c0,2.125,1.884,3.75,3.988,4.757
				c2.877,1.378,6.146,3.401,5.922,5.648C44.672,58.343,42.882,59.285,42.882,59.285z"/>
			<path fill="#FAAF40" d="M32.995,49.461c-0.1-0.169-0.19-0.344-0.275-0.522C32.805,49.117,32.897,49.292,32.995,49.461z"/>
			<path fill="#FAAF40" d="M33.478,50.2C33.46,50.175,33.036,49.594,33.478,50.2C33.478,50.2,33.42,50.12,33.478,50.2z"/>
			<path fill="#C04E36" d="M38.224,62.578c-0.618,0.673-10.539,1.318-18.86-5.642c-5.859-4.9-9.124-11.768-9.97-18.801
				c-0.013-0.189-0.035-0.382-0.063-0.571c-0.142-0.967-0.464-1.926-0.979-2.828c-0.401-0.702-0.894-1.311-1.444-1.846
				c-0.107-0.104-1.134-1.109-0.959-2.344c0.077-0.548,0.286-1.113,0.707-1.538c0.526-0.53,1.351-0.75,2.041-0.648
				c0.352,0.052,0.686,0.195,0.957,0.451c0.711,0.671,1.402,1.821,2.303,2.327c0.926,0.517,5.721,0.621,11.289,2.96
				s10.232,6.738,10.232,6.738s-1.346,4.003-0.66,6.979c1.01,4.375,4.137,4.489,6.461,6.777c0.825,0.812,1.189,1.092,1.582,2.121
				c-1.197,0.444-1.102,0.408-2.637,1.253c-1.125-1.477-2.072-1.962-3.266-2.485c-2.469-1.082-3.817-2.756-4.878-5.712
				c-0.628-1.749-0.337-6.297-0.337-6.297s-1.148-2.122-2.451-3.27c-4.673-4.127-8.889-5.198-14.653-5.844
				c-0.139-0.03-1.347-0.127-1.347-0.127s0.295,1.5,0.312,1.691c0.646,7.052,4.63,13.789,10.396,18.798
				C25.841,58.081,32.218,61.105,38.224,62.578z"/>
			<path fill="#C04E36" d="M36.907,70.458c-7.936,4.162-9.927,4.709-15.788,3.221c-5.593-1.42-10.106-6.027-12.126-10.986
				c-0.713-1.751-1.801-3.528-2.758-4.523c-0.612-0.636-1.561-1.047-2.264-1.52c0.869,0,1.433,0,2.107,0
				c5.184,0,5.718,3.236,8.08,5.267c5.706,4.908,12.276,6.943,19.454,7.251c-0.063-0.482-0.043-2.234,0-2.635
				c-6.122-0.47-11.991-2.957-16.952-7.22c-2.359-2.032-3.855-4.758-5.412-7.273c-1.561,0.862-3.78,1.882-5.664,2.086
				c-0.121,0.014-0.24,0.023-0.361,0.033c-0.82,0.069-1.635,0.063-2.432-0.012c-0.095-0.012-0.19-0.026-0.287-0.037
				c-0.09-0.014-0.184-0.023-0.275-0.028c-0.607-0.03-1.214,0.26-1.653,0.749c-0.409,0.452-0.599,1.255-0.574,1.841
				c0.029,0.618,0.296,1.221,0.808,1.61c0.158,0.12,0.396,0.242,0.555,0.34c0.002,0.002,0.002,0.002,0.007,0.004
				c0.846,0.522,1.64,1.158,2.356,1.907c0.962,0.995,1.475,2.11,2.027,3.294c0.187,0.402,0.352,0.814,0.493,1.232
				c2.17,4.894,6.458,9.281,12.039,10.758c5.741,1.521,12.263,0.387,16.403-3.256C35.585,71.773,36.907,70.458,36.907,70.458z"/>
			<g>
				<path fill="#C04E36" d="M43.946,30.182c0.574,0.517,1.801,1.461,2.361,1.995c0.532,0.506,1.068,1.329,1.068,2.297
					c0,1.091-0.444,1.944-1.34,2.736c-0.919,0.813-1.66,1.317-0.653,2.64c2.694,2.901,5.208,6.708,6.598,10.686
					c1.604,4.597,2.907,6.958,2.053,17.313c2.46-6.897,3.126-12.247,0.585-19.527c-1.389-3.977-4.078-7.242-6.777-10.143
					c-0.613-0.661-0.385-1.751,0.207-2.485c1.063-1.321,2.033-1.817,2.033-3.325c0-1.508-3.939-4.15-3.939-5.941
					c0-1.792,2.551-3.658,2.551-5.446c0-1.407-0.688-3.249-2.861-3.249c-1.633,0-2.818,0.778-2.922,2.022
					c0.651,0.058,1.54,0.217,2.114,0.955c0.571,0.738,0.776,1.495,0.823,2.386c0.095,1.786-0.99,2.872-2.256,3.97
					c-0.281,0.248-0.617,0.745-0.668,1.144C42.829,28.967,43.206,29.515,43.946,30.182z"/>
			</g>
		</g>
		<g>
			<path fill="#C04E36" d="M50.081,56.649c-1.176-4.532-4.248-9.042-7.246-13.176h2.001c3.478,4.363,6.542,9.125,7.221,14.494
				C52.057,57.967,50.438,56.875,50.081,56.649z"/>
		</g>
		<path fill="#DFCB34" d="M33.478,56.547c-1.89-0.945-4.524-2.8-5.772-5.95c-0.628-1.586-0.688-4.167-0.021-7.125
			c-2.465-1.694-5.159-2.641-7.904-2.635c0.287,5.319,1.342,9.387,7.061,15.107c2.611,2.61,6.383,3.587,10.146,3.432
			C36.501,58.632,34.431,57.024,33.478,56.547z"/>
		<path fill="#DFCB34" d="M33.613,70.439c-4.353,0.324-5.618-0.227-8.696-0.804c-3.661-0.687-6.926-2.303-9.818-4.421
			c0,0.752,0.02,1.981,0,2.635c1.863,2.097,5.027,3.807,8.602,4.38C27.272,72.802,30.725,72.146,33.613,70.439
			C33.613,70.073,33.613,70.78,33.613,70.439z"/>
	</g>
	<path fill="#DFCB34" d="M124.939,71.796c-0.409-0.232-1.169-0.877-1.579-1.345c-0.115-0.175-0.233-0.175-0.35-0.058
		c-0.527,0.526-1.111,1.229-1.521,1.695c-0.177,0.178-0.177,0.234-0.059,0.352c0.469,0.585,1.169,1.23,1.756,1.58
		c0.174,0.118,0.291,0,0.409-0.059c0.29-0.176,0.935-0.936,1.288-1.346c0.525,0.584,1.168,1.055,1.578,1.404
		c0.176,0.118,0.234,0.118,0.35-0.059c0.47-0.585,0.937-1.111,1.465-1.695c0.173-0.178,0.173-0.234,0-0.354
		c-0.586-0.408-1.172-0.994-1.699-1.579c-0.115-0.118-0.174-0.058-0.407,0.117C125.937,70.744,125.292,71.447,124.939,71.796
		L124.939,71.796z"/>
	<path fill="#DFCB34" d="M72.743,48.123c-0.057-0.114-0.113-0.056-0.341,0.114c-0.397,0.455-1.023,1.138-1.364,1.706
		c-0.113,0.114-0.113,0.171,0,0.284c0.284,0.455,1.364,1.251,1.876,1.535c0.115,0.114,0.171,0.114,0.228,0
		c0.397-0.455,1.309-1.478,1.533-1.819c0.115-0.114,0.115-0.17,0.059-0.228C73.937,49.261,73.199,48.578,72.743,48.123
		L72.743,48.123z"/>
	<g>
		<path fill="#C04E36" d="M69.977,44.821c0.976,2.369,0.633,6.748-0.463,8.683c-0.415,0.732-1.192,1.65-3.161,3
			c0.363-0.718,1.45-1.232,1.871-3.488c0.422-2.256-1.004-6.079-1.789-7.201c-1.014-1.466-1.895-2.884-3.885-2.267
			c-1.989,0.616-2.039,1.473-2.062,1.911c-0.011,0.208,0.226,0.805,0.226,0.805c1.139,3.59,1.993,7.174,1.955,10.588
			c-0.04,3.667-1.234,8.8-2.679,9.638c1.267-3.933,0.743-12.836-1.583-21.123c-0.071-0.257-0.045-0.683-0.518-0.743
			c-0.392-0.049-0.655-0.029-1.344,0.658c0.387-1.922,2.06-2.732,2.662-2.901c0.246-0.069,0.566-0.103,0.743,0.135
			c0.201,0.271,0.261,0.801,0.509,1.43c0.555-0.561,1.684-3.255,4.674-3.421C68.126,40.358,69.23,43.011,69.977,44.821z"/>
		<path fill="#C04E36" d="M88.825,51.372c-0.759-1.214-2.981-0.703-3.797,0.313c-1.192,1.483-1.443,4.173-3.652,5.214
			c-0.498,0.234-1.16,0.066-1.726-0.13c-1.334-0.462-1.501-0.832-1.501-0.832s1.584-1.326,2.01-1.631
			c0.424-0.306,1.352-1.034,1.58-1.382c0.229-0.348-0.089-0.616-0.424-0.966c-0.264-0.276-0.732-0.726-1.846-0.774
			c-1.111-0.049-1.709,0.318-1.998,0.487c-1.833,1.168-2.822,3.107-2.352,4.692c-0.241,0.164-0.76,0.453-1.448,0.488
			c-0.209,0.011-0.263-0.065-0.387-0.238c-0.159-0.237-0.223-0.396-0.255-0.745c-0.031-0.346-0.027-0.714,0.013-1.101
			c0.039-0.388,0.088-0.775,0.143-1.163c0.055-0.387,0.098-0.737,0.13-1.054h0.024v-0.332l-1.803,1.162
			c0,0.316-0.032,0.675-0.095,1.079c-0.063,0.402-0.118,0.813-0.165,1.232c-0.048,0.419-0.06,0.818-0.036,1.198
			c0.024,0.379,0.13,0.711,0.32,0.995c0.49,0.759,1.105,0.893,1.848,0.403l1.995-1.288c0.576,0.952,1.804,1.69,3.856,1.904
			c1.262,0.131,2.143-0.744,2.354-0.933c1.942-1.735,4.186-5.113,5.117-6.285c0.092-0.115,0.473-0.184,0.647,0.059
			c0.505,0.699,1.034,1.832,1.088,2.674c0.31,4.924-3.179,3.062-3.621,2.817c-0.337-0.186-0.612,0.869-0.612,0.869
			s2.651,1.284,4.457-0.368C90.236,56.323,89.839,52.993,88.825,51.372z M76.87,52.653c0.572-0.539,1.088-0.605,2.041-0.282
			c0.955,0.324,1.425,0.96,1.348,1.206c-0.076,0.247-2.18,1.856-2.418,2.077c-0.202-0.17-0.438-0.226-0.962-0.954
			C76.355,53.973,76.297,53.192,76.87,52.653z"/>
		<path fill="#C04E36" d="M88.977,60.931c-0.817-1.335-3.208-0.772-4.087,0.344c-1.281,1.63-1.369,3.329-3.047,5.048
			c-0.236,0.242-0.514,0.536-0.88,0.682c-0.55,0.22-1.249,0.072-1.857-0.143c-1.435-0.507-1.595-0.914-1.595-0.914
			s1.686-1.458,2.143-1.792c0.457-0.337,1.453-1.137,1.699-1.52c0.247-0.382-0.094-0.676-0.455-1.062
			c-0.283-0.302-0.787-0.797-1.984-0.851s-1.84,0.349-2.15,0.536c-3.526,2.296-4.127,7.08,1.923,7.948
			c3.056,0.439,5.472-3.971,5.736-4.383c0.876-1.367,1.267-2.29,2.302-3.55c0.139-0.169,0.508-0.202,0.697,0.064
			c0.542,0.769,1.113,2.014,1.169,2.939c0.334,5.412-3.419,3.365-3.896,3.097c-0.361-0.205-0.658,0.955-0.658,0.955
			s2.852,1.41,4.795-0.404C90.495,66.374,90.065,62.712,88.977,60.931z M76.115,62.34c0.617-0.592,1.172-0.666,2.197-0.31
			c1.024,0.356,1.53,1.055,1.448,1.326c-0.082,0.271-2.345,2.04-2.6,2.283c-0.22-0.187-0.473-0.248-1.035-1.048
			C75.563,63.79,75.499,62.933,76.115,62.34z"/>
		<path fill="#C04E36" d="M73.797,65.57c0,1.209-0.712,2.302-2.139,3.28c-1.302,0.883-2.585,1.324-3.847,1.324
			c-1.033,0-1.936-0.379-2.709-1.139c-0.773-0.759-1.16-1.655-1.16-2.686c0-1.546,0.453-2.753,1.362-3.622
			c0.679-0.651,1.845-1.261,3.5-1.831c-1.289-1.248-2.415-1.872-3.378-1.872c-0.65,0-0.863,0.061-2.029,0.521
			c1.791-1.33,2.506-1.826,3.539-1.826c1.615,0,3.174,0.916,4.682,2.745C73.07,62.228,73.797,63.93,73.797,65.57z M71.693,66.695
			c0-1.192-0.237-2.204-0.714-3.031c-0.45-0.772-1.171-1.499-2.164-2.177c-0.886,0.135-1.601,0.474-2.145,1.017
			c-0.571,0.583-0.856,1.316-0.856,2.198c0,1.153-0.006,1.521,0.647,2.375c0.722,0.924,1.794,1.627,2.924,1.627
			c0.545,0,1.344,0.064,1.779-0.465C71.601,67.708,71.693,67.238,71.693,66.695z"/>
		<path fill="#C04E36" d="M134.566,61.132c-0.862-1.306-1.664-1.904-2.359-1.118c-2.183,2.47-2.88,3.297-4.101,2.06
			c0-0.001-0.002-0.001-0.002-0.001c-0.229-0.322-0.471-0.527-0.622-0.676c-0.653-0.647-1.495-1.03-1.495-1.03
			s-0.001,0.006-0.002,0.01c-0.283-0.117-0.643-0.205-1.106-0.226c-1.197-0.054-1.84,0.35-2.151,0.536
			c-3.525,2.296-4.192,7.632,1.887,8.281c1.358,0.145,2.277-0.341,2.94-1.047c0.56-0.598,1.098-1.348,1.126-3.762
			c2.596-0.367,4.209-2.672,4.209-2.672s1.408,0.973,1.444,2.429c0.106,4.153-3.404,4.265-3.881,3.997
			c-0.361-0.204-0.41,0.725-0.41,0.725s2.506,0.753,4.449-1.061C136.155,66.024,135.89,63.139,134.566,61.132z M122.054,64.351
			c-0.563-0.8-0.626-1.658-0.01-2.25c0.616-0.592,1.17-0.666,2.197-0.31c1.006,0.351,2.359,1.445,2.833,2.41
			c0.477,0.975,0.532,1.586-0.044,2.217c-0.344,0.377-0.942,0.613-1.997,0.206C123.67,66.096,122.597,65.122,122.054,64.351
			C121.491,63.551,122.597,65.122,122.054,64.351z"/>
		<path fill="#C04E36" d="M120.251,73.133c0.872-4.806-4.026-6.627-4.026-6.627c1.638-0.201,5.111-3.667,2.532-6.031
			c-1.9-1.742-3.748-0.527-4.347-0.049c-0.077,0.063-0.343,0.298-0.478,0.472c-1.477,1.898-1.89,7.307-4.692,6.055
			c-0.731-0.328-0.431-0.974-0.431-2.014c0-0.13,0.03-0.959,0.089-2.487c0.058-1.527,0.087-2.805,0.087-3.832
			c0-3.199-0.127-4.716-0.837-4.798c-2.14-0.248-2.567,2.127-2.567,2.127s0.722-0.78,1.031-0.77
			c0.234,0.007,0.268,0.197,0.268,0.612c0,0.924-0.025,2.38-0.077,4.369c-0.052,1.99-0.078,3.453-0.078,4.388
			c0,1.535,0.144,2.62,0.43,3.257c0.049,0.113,0.124,0.218,0.216,0.316c-0.198,0.044-0.348,0.043-0.394,0.043
			c-0.307,0-0.685-0.591-1.151-2.1c-0.682-2.204-1.162-3.612-1.441-4.227c-0.681-1.521-1.449-2.267-2.304-2.283
			c-1.427-0.027-3.124,1.972-3.124,1.972s1.924-0.943,2.683-0.249c0.509,0.466,0.663,0.843,0.647,1.165
			c-1.568,1.21-2.975,2.274-3.387,2.661c-0.725,0.653-1.131,1.219-1.355,1.709c-0.415,0.194-0.831,0.391-1.248,0.58
			c-0.813,0.353-1.564,0.505-2.254,0.458c-0.703-0.048-2.23-0.772-2.1-3.349c0.132-2.577,3.289-4.358,4.171-3.724
			c0.883,0.633,0.296,2.125,0.294,2.151c0.532-0.235,2.023-0.788,2.224-2.271c0.055-0.404-0.132-0.751-0.479-1.032
			c-0.35-0.283-0.732-0.438-1.15-0.466c-1.788-0.122-3.346,0.442-4.674,1.69c-1.33,1.249-2.055,2.773-2.178,4.573
			c-0.157,2.301,0.664,3.512,2.465,3.635c0.811,0.055,1.844-0.222,3.094-0.829c0.636-0.313,1.193-0.639,1.677-0.979
			c-0.067,0.25-0.091,0.478-0.091,0.686c0,0.333,0.014,0.729,0.381,1.128c0.365,0.4,0.883,0.568,1.217,0.568
			c0.85,0,1.711-0.306,2.514-0.999c0.698-0.603,1.351-1.256,2.016-1.896c0.16,0.52,0.311,1.033,0.46,1.537
			c0.246,0.828,0.782,1.295,0.941,1.295c1.154,0,2.046-0.422,2.801-1.227c0.846,0.613,2.217,0.923,2.84,0.64
			c0.614-0.28,1.323-0.636,2.248-3.164c0.575-1.568,1.165-3.176,2.318-4.142l0.024-0.01c2.486-1.078,3.115,1.81,2.49,3.238
			c-0.624,1.428-3.302,1.139-3.302,1.139l-0.804,0.914c0,0,2.272-0.691,4.733,2.644c2.229,3.023-0.278,5.35-0.767,5.759
			c-0.549,0.436-1.162,0.85-1.788,1.154c-0.554,0.303-2.134,0.64-3.516,0.457c-1.312-0.174-1.806-0.875-2.418-2.534
			c-0.363-0.987-0.245-2.923-0.453-2.884c-0.124,0.024-0.651,2.286-0.259,3.743c0.648,2.396,1.959,3.481,3.35,3.664
			c0.574,0.14,1.246,0.06,1.702-0.026c1.751-0.281,3.864-1.768,5.228-3.563c0.39-0.502,0.68-1.058,0.85-1.585l0.004-0.002
			c0.004-0.012,0.008-0.023,0.01-0.035c0.003-0.012,0.005-0.023,0.009-0.035C120.184,73.514,120.228,73.319,120.251,73.133z
			 M102.233,67.187c-0.632,0.766-1.737,1.016-2.402,0.262c-0.707-0.802-0.068-1.821,0.678-2.646
			c0.678-0.759,1.328-1.278,1.955-1.557c0.479,1.45,0.719,2.195,0.719,2.235C103.183,65.854,102.866,66.422,102.233,67.187z"/>
	</g>
</g>
</svg>
