<?xml version="1.0" encoding="utf-8"?>
<!-- Generator: Adobe Illustrator 16.0.0, SVG Export Plug-In . SVG Version: 6.00 Build 0)  -->
<!DOCTYPE svg PUBLIC "-//W3C//DTD SVG 1.1//EN" "http://www.w3.org/Graphics/SVG/1.1/DTD/svg11.dtd">
<svg version="1.1" id="Layer_1" xmlns="http://www.w3.org/2000/svg" xmlns:xlink="http://www.w3.org/1999/xlink" x="0px" y="0px"
	 width="22.404px" height="16px" viewBox="0 0 22.404 16" enable-background="new 0 0 22.404 16" xml:space="preserve">
<g>
	<path fill="#FFFFFF" d="M20.801,6.399H1.604C0.717,6.399,0,7.116,0,7.999C0,8.883,0.717,9.6,1.604,9.6h19.197
		c0.885,0,1.604-0.716,1.604-1.601C22.404,7.116,21.686,6.399,20.801,6.399z M1.604,3.201h19.197c0.885,0,1.604-0.717,1.604-1.601
		c0-0.883-0.719-1.6-1.604-1.6H1.604C0.717,0,0,0.717,0,1.6C0,2.484,0.717,3.201,1.604,3.201z M20.801,12.799H1.604
		C0.717,12.799,0,13.516,0,14.4C0,15.283,0.717,16,1.604,16h19.197c0.885,0,1.604-0.717,1.604-1.6
		C22.404,13.516,21.686,12.799,20.801,12.799z"/>
</g>
</svg>
