<?xml version="1.0" encoding="utf-8"?>
<!-- Generator: Adobe Illustrator 16.0.0, SVG Export Plug-In . SVG Version: 6.00 Build 0)  -->
<!DOCTYPE svg PUBLIC "-//W3C//DTD SVG 1.1//EN" "http://www.w3.org/Graphics/SVG/1.1/DTD/svg11.dtd">
<svg version="1.1" id="Layer_1" xmlns="http://www.w3.org/2000/svg" xmlns:xlink="http://www.w3.org/1999/xlink" x="0px" y="0px"
	 width="117px" height="90px" viewBox="0 0 117 90" enable-background="new 0 0 117 90" xml:space="preserve">
<g>
	<g>
		<path fill="#DFCB34" d="M104.886,1.208c-0.02,0.053-0.039,0.104-0.066,0.183c0.046-0.029,0.072-0.048,0.108-0.071
			c0.007-0.031,0.01-0.067-0.002-0.112C104.913,1.208,104.899,1.208,104.886,1.208z"/>
		<path fill="#DFCB34" d="M78.351,28.292c-0.018,0.06-0.006,0.094,0.032,0.104c0.009-0.045,0.03-0.096,0.073-0.165
			C78.427,28.244,78.392,28.267,78.351,28.292z"/>
		<path fill="#DFCB34" d="M36.493,40.622c-0.006-0.003-0.01,0.001-0.016-0.001c0.006,0.045,0.016,0.084,0.015,0.131
			C36.507,40.71,36.509,40.627,36.493,40.622z"/>
		<path fill="#DFCB34" d="M117.502,0.596c-2.394,0-4.786-0.003-7.178,0.005c-0.243,0-0.512-0.095-0.731,0.071
			c-0.16,0.121-0.307,0.271-0.431,0.431c-0.122,0.156-0.274,0.087-0.417,0.103c-0.051,0.006-0.103,0.002-0.153,0.002
			c-0.04,0.244-0.062,0.265-0.377,0.305c0.071-0.047,0.122,0.002,0.069,0.141c-0.016,0.042-0.053,0.087-0.092,0.101
			c-0.082,0.032-0.172,0.05-0.26,0.062c-0.096,0.014-0.198-0.028-0.221-0.127c-0.01-0.045,0.084-0.146,0.15-0.169
			c0.084-0.03,0.188-0.008,0.353-0.008c0.111-0.244,0.133-0.265,0.377-0.305c-0.047-0.186,0.118-0.25,0.206-0.359
			c0.029-0.037,0.063-0.07,0.094-0.105c-0.078-0.049-0.15-0.119-0.236-0.142c-0.092-0.025-0.195-0.006-0.295-0.006
			c-0.838,0-1.677,0.008-2.516-0.006c-0.186-0.002-0.264,0.111-0.355,0.214c-0.076,0.084-0.146,0.132-0.258,0.098
			c-0.035,0.212-0.069,0.263-0.304,0.417c-0.026,0.1-0.124,0.125-0.108,0.071c-0.219,0.274-0.287,0.419-0.462,0.431
			c-0.112,0.008-0.198-0.006-0.272-0.079c-0.077-0.076-0.055-0.136,0.061-0.219c0.081-0.058,0.145-0.141,0.217-0.212
			c0.035-0.035,0.07-0.097,0.108-0.101c0.138-0.011,0.276-0.005,0.415-0.003c0.092-0.24,0.146-0.274,0.346-0.306
			c0.035-0.118,0.004-0.241-0.109-0.254c-0.297-0.036-0.598-0.05-0.897-0.05c-8.4-0.002-16.8-0.002-25.2-0.002
			c-0.152,0-0.305,0.005-0.458,0c-0.339-0.013-0.721,0.108-0.954-0.276c-0.199-0.01-0.398-0.028-0.599-0.028
			c-18.835,0-37.672,0-56.507,0c-0.103,0-0.212-0.024-0.304,0.006c-0.087,0.028-0.174,0.101-0.229,0.178
			c-0.087,0.122-0.134,0.128-0.224,0.033c-0.098-0.104-0.173-0.225-0.365-0.224c-1.478,0.012-2.953,0.007-4.43,0.007
			c-0.102,0-0.205,0.008-0.305-0.007c-0.041-0.006-0.072-0.068-0.108-0.103C14.454,0.096,14.366,0.025,14.236,0H1.946
			C1.81,0.021,1.684,0.073,1.579,0.215c-0.041,0.06-0.175,0.068-0.268,0.073c-0.351,0.02-0.703,0.025-1.054,0.045
			C0.22,0.334,0.15,0.407,0.155,0.436C0.21,0.731-0.008,0.88-0.155,1.076c-0.047,0.062-0.041,0.227,0.01,0.289
			c0.16,0.196,0.354,0.364,0.531,0.546c0.088,0.09,0.115,0.317,0.009,0.407C0.176,2.499,0.107,2.714,0.142,2.981
			C0.147,3.031,0.15,3.085,0.14,3.134c-0.01,0.044-0.031,0.1-0.065,0.123c-0.349,0.227-0.114,0.38,0.063,0.543
			C0.11,4.087,0.17,4.277,0.53,4.272c0.182-0.001,0.221,0.109,0.225,0.315c0.006,0.253,0.023,0.499-0.229,0.672
			c-0.124,0.085-0.221,0.21-0.324,0.323C0.183,5.603,0.181,5.66,0.196,5.686c0.023,0.042,0.066,0.093,0.107,0.1
			c0.142,0.025,0.345-0.061,0.398,0.121c0.041,0.14-0.148,0.216-0.234,0.32c-0.1,0.12-0.246,0.134-0.381,0.188
			c-0.328,0.131-0.563,0.351-0.562,0.773c0.007,9.57,0.006,19.142,0.006,28.711c0,2.089,0,4.175,0,6.262
			c0,0.21,0.015,0.247,0.261,0.282c0.106,0.014,0.205,0.004,0.271,0.082c0.023,0.029,0.054,0.082,0.043,0.105
			c-0.02,0.044-0.063,0.098-0.104,0.107C-0.479,42.851-0.47,42.85-0.47,43.13c0.001,8.603,0.001,17.207,0.001,25.808
			c0,0.051-0.017,0.111,0.003,0.152c0.04,0.086,0.1,0.16,0.151,0.238c0.036-0.035,0.071-0.072,0.108-0.107
			c0.105-0.1,0.193-0.219,0.377-0.199c0.201,0.02,0.406,0.01,0.611,0.002c0.107-0.004,0.215,0.023,0.24,0.133
			c0.01,0.043-0.104,0.154-0.173,0.168c-0.194,0.033-0.419-0.018-0.587,0.059c-0.168,0.078-0.27,0.258-0.506,0.266
			c-0.205,0.008-0.303,0.242-0.453,0.369c-0.085,0.07-0.049,0.127,0.057,0.219c0.146,0.129,0.138,0.131,0.662,0.016
			c0.146-0.031,0.305-0.01,0.457-0.004c0.107,0.006,0.184-0.037,0.254-0.131c0.094-0.121,0.214-0.189,0.384-0.18
			c0.146,0.008,0.294-0.023,0.44-0.037c0.191-0.322,0.509-0.264,0.807-0.266c0.043-0.002,0.104-0.027,0.125-0.061
			c0.166-0.242,0.404-0.275,0.665-0.242c0.114,0.016,0.216,0.008,0.271-0.08c0.166-0.26,0.42-0.248,0.672-0.223
			c0.117,0.012,0.186-0.025,0.27-0.096c0.252-0.217,0.258-0.209,0.521-0.213c0.214-0.006,0.219,0,0.516-0.227
			c0.083-0.063,0.159-0.092,0.273-0.084c0.229,0.02,0.285-0.268,0.484-0.297c0.196-0.031,0.395-0.033,0.594-0.049
			c0.191-0.322,0.509-0.258,0.807-0.264c0.043,0,0.102-0.027,0.125-0.061c0.164-0.246,0.406-0.273,0.664-0.24
			c0.115,0.014,0.191-0.021,0.275-0.078c0.334-0.234,0.338-0.244,0.515-0.227c0.218,0.021,0.384-0.033,0.53-0.207
			c0.158-0.188,0.504-0.041,0.629-0.324c0.016-0.039,0.074-0.076,0.115-0.078c0.152-0.01,0.307-0.008,0.459-0.004
			c0.105,0.004,0.182-0.043,0.25-0.135c0.096-0.127,0.221-0.184,0.387-0.176c0.145,0.006,0.293-0.027,0.438-0.041
			c0.151-0.309,0.556-0.182,0.737-0.434c0.067-0.094,0.145-0.139,0.252-0.133c0.101,0.006,0.203,0,0.305,0
			c0.051,0,0.117,0.021,0.15-0.002c0.117-0.092,0.211-0.223,0.341-0.289c0.122-0.063,0.302,0.047,0.409-0.115
			c0.127-0.189,0.313-0.24,0.526-0.203c0.226,0.039,0.386-0.055,0.519-0.227c0.063-0.084,0.158-0.088,0.271-0.084
			c0.148,0.008,0.297-0.016,0.445-0.025c0.15-0.305,0.539-0.207,0.738-0.432c0.033-0.039,0.068-0.1,0.107-0.104
			c0.197-0.023,0.397-0.02,0.594-0.049c0.197-0.033,0.252-0.322,0.484-0.301c0.115,0.012,0.189-0.02,0.272-0.084
			c0.282-0.225,0.286-0.221,0.517-0.223c0.266-0.004,0.268-0.002,0.522-0.213c0.188-0.156,0.507-0.045,0.634-0.322
			c0.017-0.035,0.076-0.068,0.119-0.072c0.101-0.012,0.203-0.006,0.305-0.004c0.151,0.004,0.297,0.002,0.4-0.141
			c0.096-0.129,0.227-0.168,0.389-0.172c0.161-0.004,0.225-0.193,0.352-0.254c0.168-0.082,0.398-0.021,0.519-0.223
			c0.06-0.102,0.144-0.139,0.253-0.129c0.101,0.008,0.205-0.014,0.305,0.004c0.182,0.031,0.287-0.086,0.373-0.203
			c0.118-0.158,0.289-0.055,0.412-0.113c0.131-0.063,0.213-0.217,0.341-0.289c0.077-0.045,0.198-0.006,0.301-0.01
			c0.1-0.002,0.245,0.029,0.29-0.023c0.174-0.201,0.379-0.305,0.639-0.316c0.143-0.238,0.395-0.264,0.629-0.324
			c0.193-0.332,0.519-0.238,0.812-0.254c0.042-0.002,0.093-0.037,0.121-0.072c0.134-0.166,0.29-0.273,0.517-0.23
			c0.109-0.102,0.221-0.203,0.331-0.307c0.222,0.045,0.394-0.031,0.521-0.217c0.063-0.09,0.153-0.104,0.27-0.09
			c0.255,0.027,0.485,0.006,0.675-0.225c0.075-0.09,0.277-0.059,0.4-0.123c0.125-0.068,0.191-0.252,0.351-0.254
			c0.163-0.004,0.304-0.037,0.388-0.174c0.127-0.207,0.365-0.09,0.527-0.209c0.335-0.246,0.344-0.248,0.512-0.232
			c0.215,0.02,0.395-0.018,0.529-0.203c0.06-0.08,0.153-0.137,0.212-0.219c0.138-0.188,0.325-0.223,0.532-0.189
			c0.23,0.035,0.381-0.076,0.516-0.24c0.027-0.033,0.081-0.064,0.123-0.064c0.154,0.002,0.305-0.008,0.394-0.154
			c0.124-0.203,0.397-0.08,0.517-0.219c0.188-0.223,0.408-0.268,0.668-0.242c0.051,0.006,0.113,0.02,0.152-0.002
			c0.207-0.113,0.336-0.385,0.64-0.309c0.027,0.008,0.083-0.051,0.11-0.092c0.129-0.186,0.309-0.24,0.523-0.215
			c0.158-0.205,0.355-0.338,0.629-0.322c0.148-0.229,0.381-0.293,0.629-0.324c0.139-0.248,0.455-0.191,0.617-0.338
			c0.211-0.193,0.415-0.256,0.676-0.23c0.05,0.004,0.112,0.02,0.15-0.004c0.205-0.119,0.336-0.385,0.641-0.307
			c0.027,0.008,0.081-0.055,0.108-0.094c0.128-0.188,0.312-0.234,0.522-0.215c0.158-0.377,0.646-0.211,0.856-0.535
			c0.098-0.15,0.395-0.012,0.511-0.221c0.117-0.213,0.41-0.07,0.512-0.223c0.164-0.246,0.465-0.162,0.633-0.324
			c0.157-0.15,0.303-0.26,0.525-0.217c0.173-0.182,0.343-0.367,0.632-0.318c0.157-0.373,0.646-0.207,0.856-0.531
			c0.096-0.148,0.395-0.014,0.51-0.225c0.118-0.211,0.412-0.063,0.514-0.221c0.16-0.25,0.465-0.156,0.632-0.324
			c0.155-0.154,0.304-0.256,0.526-0.213c0.168-0.189,0.345-0.363,0.631-0.32c0.154-0.215,0.367-0.318,0.629-0.324
			c0.145-0.236,0.414-0.229,0.623-0.338c0.168-0.088,0.286-0.229,0.51-0.256c0.223-0.029,0.338-0.375,0.64-0.291
			c0.11-0.1,0.207-0.23,0.337-0.295c0.122-0.059,0.291,0.043,0.413-0.113c0.125-0.158,0.267-0.314,0.432-0.428
			c0.193-0.133,0.464-0.096,0.637-0.322c0.106-0.139,0.394-0.018,0.509-0.225c0.118-0.213,0.387-0.068,0.52-0.219
			c0.142-0.16,0.291-0.273,0.518-0.23c0.111-0.102,0.222-0.203,0.332-0.305c0.303,0.086,0.442-0.166,0.64-0.303
			c0.034-0.023,0.099-0.006,0.149-0.002c0.27,0.014,0.337-0.385,0.639-0.311c0.039,0.01,0.103-0.008,0.133-0.037
			c0.149-0.139,0.309-0.273,0.431-0.432c0.165-0.216,0.505-0.055,0.634-0.322c0.109-0.224,0.385-0.033,0.526-0.213
			c0.087-0.109,0.173-0.253,0.366-0.217c0.248,0.047,0.301-0.283,0.484-0.291c0.226-0.009,0.368-0.098,0.516-0.247
			c0.137-0.14,0.246-0.383,0.451-0.362c0.306,0.029,0.383-0.336,0.638-0.313c0.325,0.03,0.438-0.438,0.79-0.312
			c0.111-0.102,0.221-0.203,0.332-0.306c0.387,0.091,0.514-0.257,0.73-0.442c0.119-0.1,0.225-0.166,0.391-0.176
			c0.243-0.014,0.336-0.381,0.638-0.299c0.149-0.128,0.302-0.255,0.45-0.387c0.075-0.066,0.151-0.211,0.215-0.203
			c0.298,0.031,0.458-0.152,0.633-0.334c0.103-0.107,0.222-0.199,0.334-0.297c0.301,0.084,0.414-0.225,0.637-0.305
			c0.338,0.09,0.45-0.402,0.79-0.307c0.186-0.166,0.378-0.325,0.556-0.498c0.33-0.32,0.645-0.652,0.979-0.966
			c0.06-0.056,0.182-0.05,0.276-0.063c0.146-0.021,0.292-0.034,0.438-0.05c0.168-0.357,0.658-0.182,0.855-0.535
			c0.115-0.209,0.311-0.41,0.617-0.332c0.168-0.191,0.346-0.361,0.631-0.322c0.154-0.215,0.369-0.315,0.63-0.322
			c0.144-0.237,0.414-0.228,0.622-0.338c0.168-0.088,0.28-0.285,0.514-0.24c0.184-0.168,0.369-0.334,0.555-0.503
			c0.037-0.034,0.066-0.086,0.109-0.104c0.044-0.018,0.1-0.004,0.151-0.004c0.051,0,0.115,0.021,0.15-0.002
			c0.159-0.107,0.234-0.33,0.487-0.307c0.239,0.021,0.313-0.223,0.467-0.34c0.08-0.063,0.137-0.158,0.22-0.211
			c0.159-0.102,0.385-0.025,0.524-0.216c0.119-0.162,0.279-0.296,0.43-0.433c0.029-0.027,0.096-0.023,0.144-0.018
			c0.317,0.033,0.435-0.441,0.788-0.31c0.295-0.251,0.488-0.649,0.953-0.647c0.279-0.189,0.388-0.626,0.834-0.571
			c0.147-0.134,0.295-0.27,0.444-0.4c0.109-0.095,0.182-0.218,0.37-0.224c0.191-0.002,0.189-0.045,0.477-0.316
			c0.106-0.101,0.213-0.231,0.344-0.271c0.14-0.04,0.273-0.046,0.396-0.157c0.214-0.189,0.342-0.529,0.721-0.465
			c0.344-0.173,0.473-0.67,0.967-0.63c0.065,0.005,0.146-0.13,0.215-0.206c0.199-0.225,0.409-0.43,0.737-0.432
			c0.144-0.145,0.312-0.271,0.426-0.437c0.14-0.2,0.374-0.067,0.532-0.207c0.251-0.221,0.406-0.604,0.841-0.544
			c0.289-0.258,0.497-0.637,0.954-0.648c0.275-0.193,0.392-0.61,0.836-0.572c0.07,0.006,0.148-0.121,0.226-0.184
			c0.341-0.27,0.542-0.735,1.061-0.756c0.144-0.144,0.31-0.272,0.427-0.436c0.139-0.195,0.383-0.076,0.525-0.213
			c0.186-0.176,0.361-0.359,0.541-0.539c0.22,0.037,0.381-0.041,0.525-0.213c0.164-0.193,0.354-0.367,0.538-0.541
			c0.069-0.066,0.163-0.164,0.235-0.156c0.526,0.057,0.582-0.722,1.123-0.619c0.218-0.211,0.473-0.395,0.646-0.638
			c0.194-0.273,0.539-0.215,0.747-0.425c0.215-0.218,0.443-0.422,0.645-0.652c0.173-0.195,0.475-0.062,0.644-0.313
			c0.167-0.249,0.407-0.456,0.644-0.647c0.1-0.082,0.273-0.069,0.405-0.118c0.112-0.043,0.146-0.141,0.112-0.256
			c-0.033-0.117-0.006-0.229,0.107-0.258c0.236-0.063,0.46-0.113,0.633-0.324c0.191-0.235,0.426-0.435,0.648-0.643
			c0.027-0.025,0.099-0.003,0.149-0.004c0.05-0.001,0.114,0.016,0.147-0.01c0.118-0.09,0.225-0.195,0.337-0.295
			c0.229,0.044,0.372-0.085,0.513-0.239c0.172-0.188,0.349-0.373,0.541-0.539c0.217-0.188,0.346-0.532,0.73-0.444
			c0.432-0.316,0.663-0.896,1.281-0.963c0.18-0.18,0.359-0.361,0.541-0.54c0.216-0.213,0.435-0.423,0.652-0.636
			c0.308,0.073,0.449-0.164,0.624-0.336c0.181-0.179,0.358-0.363,0.541-0.539c0.175-0.17,0.312-0.415,0.619-0.347
			c0.22-0.209,0.44-0.415,0.656-0.626c0.219-0.213,0.47-0.407,0.64-0.654c0.191-0.28,0.554-0.179,0.751-0.423
			c0.159-0.196,0.355-0.363,0.536-0.542c0.18-0.18,0.381-0.344,0.533-0.545c0.168-0.219,0.436-0.207,0.628-0.332
			c0.249-0.164,0.44-0.419,0.656-0.636c0.18-0.179,0.394-0.336,0.531-0.545c0.186-0.281,0.537-0.216,0.746-0.426
			c0.755-0.757,1.505-1.518,2.272-2.262c0.164-0.158,0.146-0.351,0.218-0.525c0.071-0.175,0.294-0.059,0.396-0.131
			c0.243-0.172,0.449-0.396,0.67-0.6c0.381,0.066,0.518-0.265,0.723-0.462c0.73-0.709,1.443-1.436,2.164-2.156
			c0.035-0.036,0.066-0.094,0.109-0.103c0.096-0.022,0.197-0.013,0.294-0.031c0.043-0.008,0.079-0.052,0.118-0.081
			c0.241-0.189,0.37-0.434,0.443-0.734c0.041-0.167,0.305-0.033,0.395-0.119c0.554-0.526,1.09-1.071,1.623-1.616
			c0.047-0.047-0.025-0.13-0.116-0.216c-0.133-0.126-0.099-0.286,0.063-0.275c0.311,0.021,0.434-0.21,0.614-0.371
			c0.034-0.031,0.095-0.088,0.087-0.104C117.69,0.642,117.604,0.596,117.502,0.596z M2.786,42.396
			c-0.088,0.029-0.182,0.044-0.273,0.05c-0.042,0.003-0.09-0.022-0.127-0.046c-0.039-0.027-0.098-0.068-0.098-0.104
			s0.059-0.076,0.098-0.103c0.037-0.024,0.084-0.034,0.127-0.05c0.162-0.02,0.39,0.069,0.374,0.15
			C2.88,42.335,2.827,42.383,2.786,42.396z M6.243,41.632c-0.007,0.073-0.107,0.189-0.176,0.197
			c-0.246,0.022-0.495,0.008-0.744,0.008c-0.098,0-0.2-0.014-0.297,0.004c-0.116,0.021-0.202-0.002-0.254-0.109
			c-0.031-0.066,0.028-0.125,0.112-0.213c0.173-0.182,0.338-0.333,0.626-0.3c0.252,0.028,0.255,0,0.505-0.213
			c0.03-0.026,0.079-0.067,0.103-0.058c0.043,0.016,0.1,0.062,0.104,0.1C6.239,41.242,6.261,41.439,6.243,41.632z M6.456,34.146
			c-0.088,0.029-0.186,0.063-0.271,0.047c-0.083-0.016-0.155-0.091-0.233-0.14c0.03-0.034,0.061-0.07,0.093-0.104
			c0.103-0.104,0.204-0.21,0.313-0.308c0.018-0.018,0.066,0,0.101,0.003c0.033,0.034,0.085,0.065,0.096,0.106
			C6.593,33.902,6.538,34.119,6.456,34.146z M7.11,36.24c-0.102,0.152-0.436,0.148-0.503-0.006
			c-0.012-0.028-0.009-0.076,0.009-0.102c0.025-0.039,0.064-0.09,0.105-0.094c0.096-0.014,0.197-0.016,0.293,0
			c0.039,0.006,0.07,0.064,0.105,0.1C7.117,36.172,7.127,36.215,7.11,36.24z M8.038,31.65c-0.029,0.039-0.07,0.102-0.106,0.102
			c-0.655,0.008-1.312,0.014-1.968-0.001c-0.183-0.005-0.274,0.1-0.367,0.209c-0.074,0.091-0.146,0.11-0.262,0.107
			c-0.361-0.012-0.362,0-0.669,0.208c-0.041,0.027-0.075,0.087-0.112,0.089c-0.303,0.007-0.61,0.036-0.907-0.005
			c-0.307-0.043-0.438,0.176-0.632,0.314c-0.401-0.005-0.803-0.006-1.205-0.018c-0.037,0-0.071-0.066-0.11-0.105
			c0.05-0.07,0.094-0.146,0.152-0.21c0.243-0.261,0.247-0.262,0.641-0.276c0.152-0.006,0.288-0.016,0.397-0.146
			c0.059-0.069,0.15-0.146,0.233-0.154c0.251-0.02,0.505,0.004,0.755-0.01c0.334-0.016,0.716,0.125,0.953-0.256
			c0.246-0.016,0.492-0.043,0.737-0.042c0.161,0,0.279-0.05,0.39-0.163c0.064-0.064,0.157-0.134,0.24-0.141
			c0.252-0.018,0.506,0.008,0.756-0.014c0.082-0.008,0.173-0.094,0.229-0.166c0.087-0.113,0.15-0.143,0.218-0.053
			c0.13,0.173,0.29,0.234,0.513,0.238C8.077,31.161,8.149,31.499,8.038,31.65z M11.135,35.422c-0.05,0.001-0.104,0.015-0.146-0.004
			c-0.043-0.017-0.082-0.06-0.104-0.101c-0.037-0.068,0.004-0.145,0.113-0.197c0.039-0.02,0.097-0.004,0.146-0.004
			c0.114-0.035,0.198,0,0.251,0.105C11.448,35.326,11.324,35.421,11.135,35.422z M11.903,8.219c-0.102,0-0.141-0.124-0.1-0.188
			c0.024-0.04,0.066-0.069,0.1-0.103c0.034,0.033,0.076,0.063,0.101,0.103C12.044,8.095,12.006,8.219,11.903,8.219z M12.466,35.374
			c-0.105-0.052-0.135-0.138-0.106-0.252c0.013-0.046-0.015-0.105,0.005-0.146c0.055-0.109,0.131-0.15,0.197-0.113
			c0.041,0.021,0.084,0.062,0.102,0.104c0.018,0.041,0.004,0.097,0.004,0.146C12.665,35.301,12.571,35.425,12.466,35.374z
			 M14.093,35.066c-0.067,0.034-0.14,0.002-0.199-0.105c-0.006-0.012,0.059-0.07,0.099-0.096c0.063-0.041,0.138-0.004,0.197,0.103
			C14.196,34.979,14.127,35.033,14.093,35.066z M15.97,43.573c-0.103,0.152-0.437,0.147-0.502-0.007
			c-0.014-0.028-0.009-0.076,0.008-0.102c0.025-0.039,0.065-0.089,0.105-0.095c0.096-0.013,0.197-0.015,0.293,0.001
			c0.039,0.006,0.07,0.064,0.105,0.1C15.977,43.505,15.987,43.548,15.97,43.573z M17.145,34.454
			c-0.088,0.028-0.183,0.043-0.274,0.05c-0.041,0.002-0.09-0.023-0.126-0.049c-0.04-0.025-0.098-0.066-0.098-0.102
			s0.058-0.075,0.098-0.103c0.036-0.024,0.083-0.034,0.126-0.05c0.162-0.02,0.391,0.07,0.375,0.152
			C17.237,34.392,17.187,34.441,17.145,34.454z M18.772,7.623c-0.051,0-0.105,0.014-0.146-0.004
			c-0.042-0.017-0.081-0.06-0.104-0.101c-0.037-0.068,0.004-0.144,0.113-0.197c0.04-0.02,0.098-0.003,0.146-0.003
			c0.113-0.035,0.199,0,0.251,0.104C19.085,7.527,18.962,7.621,18.772,7.623z M19.591,7.571c-0.064,0.04-0.139,0.003-0.197-0.104
			c-0.007-0.013,0.063-0.065,0.096-0.099c0.068-0.034,0.141-0.002,0.198,0.104C19.694,7.484,19.63,7.546,19.591,7.571z
			 M21.778,7.215c-0.025,0.041-0.07,0.097-0.107,0.098c-0.502,0.007-1.006,0.016-1.507-0.004c-0.112-0.004-0.152-0.126-0.11-0.194
			c0.023-0.041,0.068-0.097,0.106-0.098c0.251-0.009,0.502-0.004,0.753-0.004c0.252,0,0.505-0.02,0.754,0.008
			C21.78,7.033,21.819,7.146,21.778,7.215z M23.814,54.356c-0.012,0.008-0.064-0.061-0.099-0.096
			c-0.033-0.068-0.002-0.139,0.104-0.197c0.013-0.008,0.073,0.057,0.098,0.096C23.958,54.224,23.921,54.3,23.814,54.356z
			 M23.868,6.961c-0.068,0.034-0.139,0.002-0.197-0.104c-0.008-0.012,0.058-0.073,0.098-0.098c0.063-0.04,0.139-0.003,0.195,0.104
			C23.972,6.874,23.902,6.927,23.868,6.961z M24.838,42.039c-0.053,0.105-0.138,0.135-0.252,0.107
			c-0.046-0.012-0.106,0.014-0.146-0.006c-0.109-0.053-0.15-0.129-0.113-0.197c0.021-0.041,0.061-0.084,0.104-0.101
			c0.042-0.019,0.097-0.005,0.146-0.005C24.767,41.839,24.89,41.934,24.838,42.039z M26.259,43.361
			c-0.012,0.006-0.064-0.063-0.1-0.098c-0.033-0.067-0.002-0.14,0.105-0.197c0.012-0.007,0.072,0.058,0.098,0.098
			C26.401,43.226,26.365,43.3,26.259,43.361z M29.448,43.976c-0.047,0.002-0.095,0-0.143,0c-0.143-0.047-0.09,0.002-0.145,0.143
			c-0.016,0.039-0.053,0.086-0.092,0.101c-0.082,0.03-0.172,0.048-0.259,0.062c-0.097,0.014-0.198-0.029-0.222-0.128
			c-0.01-0.046,0.085-0.146,0.15-0.169c0.085-0.03,0.188-0.008,0.282-0.008c0.112,0,0.149,0.003,0.161,0.005
			c-0.006-0.001-0.012-0.003-0.014-0.007c-0.043-0.104,0.003-0.178,0.086-0.246c0.109-0.091,0.202-0.201,0.307-0.299
			c0.022-0.021,0.074-0.033,0.098-0.022c0.101,0.048,0.122,0.131,0.119,0.235C29.77,43.88,29.692,43.967,29.448,43.976z
			 M30.487,43.314c-0.033-0.033-0.104-0.086-0.096-0.099c0.059-0.106,0.133-0.144,0.197-0.104c0.039,0.024,0.104,0.087,0.097,0.098
			C30.628,43.316,30.556,43.349,30.487,43.314z M32.017,40.87c-0.04-0.024-0.105-0.087-0.098-0.099
			c0.059-0.106,0.129-0.139,0.197-0.104c0.034,0.033,0.104,0.086,0.098,0.098C32.155,40.873,32.08,40.91,32.017,40.87z
			 M33.034,42.091c-0.104,0.104-0.201,0.216-0.314,0.309c-0.055,0.044-0.162-0.006-0.19-0.117c-0.078-0.308,0.071-0.477,0.372-0.445
			c0.077,0.051,0.154,0.1,0.23,0.15C33.099,42.023,33.067,42.058,33.034,42.091z M33.95,41.788c-0.068,0.033-0.14,0.001-0.199-0.104
			c-0.006-0.014,0.059-0.072,0.098-0.098c0.064-0.041,0.139-0.004,0.197,0.103C34.052,41.7,33.983,41.753,33.95,41.788z
			 M35.831,41.125c-0.024,0.039-0.085,0.104-0.097,0.098c-0.106-0.06-0.138-0.131-0.104-0.199c0.034-0.033,0.088-0.102,0.1-0.096
			C35.835,40.986,35.872,41.06,35.831,41.125z M36.919,40.609c-0.084,0.03-0.187,0.007-0.281,0.007
			c-0.159,0.175-0.195,0.209-0.228,0.235c-0.026,0.021-0.073,0.049-0.094,0.038c-0.112-0.056-0.122-0.118-0.061-0.19
			s0.132-0.105,0.222-0.078c-0.004-0.038-0.004-0.081,0.02-0.146c0.017-0.042,0.055-0.087,0.093-0.101
			c0.083-0.032,0.171-0.051,0.259-0.063c0.097-0.014,0.199,0.027,0.221,0.127C37.079,40.485,36.985,40.585,36.919,40.609z
			 M37.614,40.257c-0.063,0.041-0.138,0.004-0.197-0.102c-0.006-0.012,0.063-0.065,0.097-0.1c0.067-0.033,0.14-0.002,0.198,0.105
			C37.718,40.172,37.653,40.233,37.614,40.257z M47.647,43.978c-0.076,0.06-0.14,0.137-0.209,0.205
			c-0.033,0.033-0.068,0.063-0.104,0.094c-0.049-0.078-0.098-0.156-0.148-0.233c-0.021-0.251,0.078-0.361,0.305-0.376
			c0.113-0.009,0.195,0.003,0.253,0.102C47.784,43.837,47.747,43.901,47.647,43.978z M49.835,42.703
			c-0.067,0.035-0.139,0.004-0.198-0.104c-0.006-0.012,0.058-0.071,0.098-0.097c0.063-0.04,0.139-0.004,0.197,0.104
			C49.938,42.617,49.87,42.669,49.835,42.703z M50.14,48.2c-0.063,0.041-0.139,0.004-0.197-0.104
			c-0.006-0.012,0.063-0.064,0.096-0.098c0.068-0.035,0.141-0.004,0.199,0.105C50.243,48.116,50.18,48.177,50.14,48.2z
			 M51.412,41.734c-0.024,0.041-0.085,0.105-0.097,0.099c-0.107-0.058-0.139-0.13-0.105-0.198c0.033-0.033,0.087-0.103,0.1-0.097
			C51.416,41.597,51.452,41.671,51.412,41.734z M53.126,40.611c-0.034,0.017-0.049,0.004-0.072,0.004
			c-0.116,0.238-0.178,0.273-0.351,0.303c-0.003,0.019-0.006,0.038-0.009,0.059c0-0.023-0.003-0.042-0.009-0.047
			c-0.018,0.165-0.052,0.201-0.085,0.229c-0.025,0.021-0.073,0.049-0.094,0.037c-0.113-0.057-0.122-0.118-0.061-0.191
			c0.066-0.076,0.14-0.115,0.238-0.076c0,0,0,0.002,0.001,0.002c0-0.002,0.001-0.004,0.001-0.008
			c0.006-0.001,0.01-0.002,0.017-0.004c0.036-0.232,0.083-0.268,0.288-0.301c-0.023-0.025-0.025-0.071,0.006-0.135
			c0.031-0.062,0.113-0.102,0.18-0.138c-0.023,0.052-0.037,0.079-0.057,0.122c0.104-0.09,0.148-0.043,0.145-0.035
			C53.228,40.498,53.188,40.582,53.126,40.611z M54.669,34.501c-0.012,0.006-0.072-0.059-0.096-0.098
			c-0.041-0.064-0.005-0.139,0.102-0.197c0.012-0.006,0.064,0.062,0.1,0.096C54.808,34.371,54.776,34.442,54.669,34.501z
			 M55.384,45.095c-0.025,0.041-0.086,0.104-0.098,0.098c-0.107-0.059-0.144-0.133-0.104-0.196c0.025-0.04,0.066-0.069,0.102-0.104
			C55.386,44.96,55.424,45.031,55.384,45.095z M55.384,39.597c-0.025,0.039-0.086,0.104-0.098,0.098
			c-0.107-0.059-0.144-0.134-0.104-0.197c0.025-0.04,0.066-0.07,0.102-0.104C55.386,39.462,55.424,39.533,55.384,39.597z
			 M59.466,38.074c-0.018-0.025-0.008-0.068-0.01-0.104c0.07-0.155,0.403-0.162,0.505-0.006c0.017,0.026,0.019,0.074,0.007,0.103
			C59.901,38.22,59.567,38.226,59.466,38.074z M61.687,37.255c-0.225-0.043-0.383,0.055-0.52,0.223
			c-0.112,0.137-0.27,0.086-0.412,0.055c-0.168-0.037-0.152-0.098,0.07-0.322c0.142-0.143,0.27-0.268,0.504-0.275
			c0.117-0.004,0.219-0.188,0.346-0.258c0.08-0.043,0.193-0.024,0.291-0.033c0.039,0.027,0.086,0.049,0.116,0.084
			c0.023,0.025,0.048,0.089,0.036,0.103C61.978,36.976,61.831,37.115,61.687,37.255z M65.04,34.806
			c-0.05,0.025-0.08,0.017-0.106,0.006c-0.009,0.01-0.022,0.025-0.032,0.037c0.021,0.09-0.02,0.158-0.1,0.227
			c-0.154,0.131-0.29,0.283-0.434,0.426c0.244-0.323,0.412-0.522,0.533-0.652c-0.004-0.014,0.005-0.021-0.001-0.035
			c-0.001-0.003-0.016-0.002-0.022-0.003c-0.634,0.81-0.746,0.908-0.829,1.017c-0.137,0.18-0.315,0.198-0.521,0.227
			c-0.122,0.018-0.212,0.207-0.339,0.276c-0.072,0.039-0.193,0.003-0.289-0.019c-0.043-0.01-0.105-0.098-0.104-0.1
			c0.339-0.362,0.673-0.73,1.033-1.072c0.091-0.086,0.278,0.01,0.409-0.109c0.25-0.229,0.26-0.217,0.517-0.219
			c0.042,0,0.097-0.006,0.124-0.001c0.01-0.011,0.02-0.024,0.028-0.036c-0.007-0.025-0.017-0.051,0.005-0.098
			c0.031-0.061,0.113-0.102,0.18-0.137c-0.068,0.088-0.125,0.159-0.185,0.234c0.005,0.02,0.011,0.031,0.027,0.037
			c0.214-0.226,0.248-0.191,0.245-0.185C65.142,34.694,65.103,34.776,65.04,34.806z M66.942,28.039
			c-0.064,0.04-0.139,0.004-0.197-0.104c-0.008-0.012,0.063-0.064,0.096-0.1c0.068-0.033,0.14-0.002,0.199,0.105
			C67.046,27.953,66.981,28.013,66.942,28.039z M71.622,32.062c-0.05,0-0.104,0.014-0.146-0.004
			c-0.041-0.018-0.08-0.061-0.104-0.102c-0.037-0.066,0.005-0.143,0.114-0.196c0.04-0.02,0.097-0.003,0.146-0.003
			c0.113-0.035,0.199-0.002,0.252,0.104C71.936,31.966,71.812,32.06,71.622,32.062z M73.402,31.353
			c-0.103,0.152-0.437,0.146-0.503-0.007c-0.012-0.028-0.008-0.076,0.008-0.103c0.025-0.039,0.066-0.088,0.105-0.094
			c0.098-0.014,0.198-0.014,0.295,0c0.038,0.006,0.068,0.065,0.104,0.1C73.409,31.285,73.419,31.328,73.402,31.353z M77.024,29.266
			c-0.156,0.104-0.234,0.316-0.439,0.347c-0.087,0.014-0.188-0.014-0.271-0.047c-0.143-0.059-0.128-0.12-0.005-0.208
			c0.117-0.083,0.199-0.218,0.318-0.3c0.067-0.047,0.178-0.035,0.27-0.051c0.041,0.017,0.084,0.029,0.125,0.05
			C77.161,29.125,77.151,29.181,77.024,29.266z M78.481,28.391c-0.047,0.022-0.073,0.013-0.099,0.005
			c-0.011,0.045-0.017,0.086-0.038,0.142c-0.016,0.04-0.053,0.087-0.092,0.101c-0.082,0.031-0.17,0.049-0.258,0.063
			c-0.098,0.014-0.199-0.027-0.222-0.127c-0.01-0.047,0.085-0.146,0.149-0.17c0.086-0.03,0.188-0.008,0.283-0.008
			c0.059-0.049,0.102-0.074,0.145-0.104c0.005-0.013-0.004-0.016,0.002-0.03c0.031-0.062,0.113-0.102,0.18-0.138
			c-0.035,0.043-0.056,0.074-0.076,0.106c0.124-0.057,0.168-0.026,0.164-0.019C78.584,28.279,78.544,28.361,78.481,28.391z
			 M82.392,27.171c-0.041,0.019-0.097,0.003-0.146,0.003c-0.077-0.05-0.154-0.103-0.23-0.152c0.076-0.052,0.15-0.109,0.232-0.149
			c0.041-0.02,0.104-0.02,0.145,0c0.082,0.04,0.156,0.098,0.233,0.149C82.548,27.072,82.474,27.131,82.392,27.171z M85.884,25.291
			c-0.068,0.034-0.14,0.002-0.199-0.105c-0.006-0.012,0.059-0.072,0.098-0.097c0.064-0.04,0.139-0.004,0.197,0.104
			C85.985,25.204,85.917,25.257,85.884,25.291z M86.98,24.73c-0.099,0.005-0.197,0-0.296,0c-0.246-0.004-0.434-0.076-0.384-0.143
			c0.058-0.074,0.122-0.145,0.191-0.209c0.104-0.098,0.185-0.217,0.336-0.263c0.175-0.054,0.38,0.103,0.38,0.308
			C87.206,24.595,87.114,24.723,86.98,24.73z M88.888,23.814c-0.051-0.077-0.109-0.15-0.149-0.232
			c-0.019-0.041-0.003-0.098-0.003-0.146c0.05-0.078,0.102-0.154,0.152-0.232c0.051,0.078,0.109,0.151,0.148,0.233
			c0.02,0.04,0.02,0.104,0.001,0.146C88.997,23.664,88.938,23.737,88.888,23.814z M104.873,10.575
			c-0.024,0.04-0.085,0.104-0.097,0.098c-0.107-0.059-0.145-0.133-0.104-0.197c0.025-0.04,0.066-0.068,0.101-0.104
			C104.874,10.439,104.913,10.511,104.873,10.575z M104.823,3.906c-0.067,0.034-0.139,0.001-0.197-0.104
			c-0.007-0.012,0.059-0.073,0.097-0.098c0.063-0.04,0.14-0.003,0.197,0.103C104.927,3.819,104.858,3.872,104.823,3.906z
			 M105.181,4.771c-0.034,0.034-0.088,0.103-0.1,0.096c-0.106-0.058-0.143-0.133-0.104-0.197c0.025-0.04,0.086-0.104,0.098-0.098
			C105.183,4.632,105.214,4.704,105.181,4.771z M106.046,2.99c-0.067,0.034-0.14,0.001-0.199-0.104
			c-0.006-0.013,0.059-0.073,0.099-0.098c0.063-0.04,0.138-0.003,0.197,0.103C106.149,2.903,106.079,2.956,106.046,2.99z
			 M107.794,7.311c-0.084,0.03-0.188,0.006-0.281,0.006c-0.16,0.174-0.195,0.209-0.229,0.236c-0.026,0.021-0.074,0.048-0.094,0.038
			c-0.113-0.057-0.123-0.118-0.061-0.191c0.062-0.072,0.133-0.105,0.223-0.078c-0.006-0.039-0.006-0.082,0.02-0.146
			c0.016-0.041,0.053-0.087,0.092-0.101c0.082-0.032,0.171-0.049,0.259-0.062c0.097-0.015,0.198,0.028,0.222,0.128
			C107.954,7.186,107.859,7.287,107.794,7.311z M109.03,6.396c-0.047,0.023-0.072,0.013-0.099,0.005
			c-0.01,0.044-0.016,0.086-0.037,0.142c-0.015,0.041-0.054,0.087-0.092,0.101c-0.082,0.03-0.171,0.049-0.259,0.061
			c-0.098,0.014-0.199-0.027-0.221-0.126c-0.01-0.046,0.084-0.147,0.149-0.17c0.085-0.03,0.188-0.008,0.282-0.008
			c0.059-0.048,0.101-0.074,0.146-0.103c0.004-0.013-0.005-0.016,0.001-0.03c0.031-0.062,0.113-0.102,0.18-0.138
			c-0.035,0.043-0.056,0.075-0.076,0.107c0.125-0.057,0.168-0.026,0.164-0.019C109.134,6.283,109.093,6.366,109.03,6.396z
			 M112.056,4.515c-0.04-0.025-0.105-0.085-0.098-0.097c0.059-0.107,0.129-0.139,0.197-0.105c0.034,0.034,0.104,0.087,0.098,0.099
			C112.193,4.52,112.119,4.556,112.056,4.515z"/>
		<path fill="#DFCB34" d="M108.9,6.297c-0.019,0.059-0.007,0.093,0.031,0.104c0.009-0.044,0.03-0.097,0.073-0.165
			C108.976,6.25,108.94,6.271,108.9,6.297z"/>
		<path fill="#DFCB34" d="M52.992,40.616C52.991,40.616,52.991,40.617,52.992,40.616c0.009,0.013,0.04-0.001,0.062-0.001
			c0.02-0.039,0.044-0.097,0.066-0.148C53.085,40.498,53.043,40.544,52.992,40.616z"/>
		<path fill="#DFCB34" d="M107.367,7.323c-0.006-0.002-0.01,0.001-0.015,0c0.005,0.045,0.016,0.083,0.014,0.131
			C107.38,7.412,107.383,7.329,107.367,7.323z"/>
	</g>
	<g>
		<path fill="#716558" d="M25.687,36.642c0.531-0.225,0.918-0.102,1.161,0.369c-0.235,2.147-0.083,3.743,0.454,4.782l0.119,0.088
			c0.043,0.275,0.025,0.436-0.053,0.475l-0.059,0.031c-0.089,0.045-0.248-0.071-0.479-0.35l-0.087,0.119l-0.06,0.029l-0.001-0.146
			c-0.041-0.078-0.101-0.098-0.18-0.058l0.062,0.118l-0.118,0.061c-0.035-0.068-0.155-0.205-0.36-0.41
			c-0.312-0.772-0.492-1.207-0.543-1.305l-0.06,0.03c-0.43,1.165-0.74,2.818-0.93,4.954c0.035,1.512,0.217,2.588,0.545,3.225
			c0.386,0.746,0.932,0.938,1.639,0.572c0.694-0.559,1.163-0.998,1.406-1.322c0.444-0.391,0.931-0.99,1.459-1.797
			c-0.041-0.079,0.037-0.168,0.233-0.27c0.021,0.039,0.05,0.049,0.089,0.027c0.004-0.088-0.017-0.178-0.063-0.266l0.354-0.184
			c0.078-0.04,0.088-0.119,0.027-0.236l0.059-0.03l0.148-0.002c-0.03-0.059,0.007-0.179,0.113-0.356l0.12,0.088
			c-0.091,0.207-0.099,0.385-0.022,0.533c-1.163,2.588-2.309,4.174-3.438,4.756c-0.953,0.492-1.943,0.258-2.974-0.701
			c-0.284-0.551-0.445-0.816-0.484-0.795c-0.479-1.891-0.587-3.352-0.323-4.383l0.061,0.117l0.06-0.03l0.172-0.388
			c0.021,0.039,0.051,0.049,0.09,0.029c-0.03-0.061-0.031-0.158-0.004-0.297l-0.147,0.002l-0.002-0.148l-0.031-0.059l-0.115,0.209
			l-0.031-0.061c0.01-0.873,0.42-2.775,1.232-5.706c0.084-0.293,0.357-0.633,0.816-1.019c-0.03-0.06-0.002-0.148,0.086-0.268
			L25.687,36.642z M23.79,43.662l0.118-0.061l-0.031-0.059l-0.117,0.061L23.79,43.662z M23.834,42.446l0.177-0.092l-0.091-0.176
			l-0.06,0.029c-0.073,0.052-0.092,0.111-0.057,0.18L23.834,42.446z M23.971,41.554l0.177-0.091l-0.03-0.059l-0.177,0.091
			L23.971,41.554z M26.502,41.834l0.059-0.031l-0.062-0.117l-0.059,0.029L26.502,41.834z"/>
		<path fill="#716558" d="M32.343,40.069c1.298-0.495,2.229-0.293,2.795,0.608c0.501,0.973,0.212,2.532-0.867,4.681
			c-0.348,0.963-0.798,1.586-1.348,1.87c-1.154,0.174-1.997-0.256-2.528-1.287c-0.375-0.727-0.553-1.647-0.532-2.765
			c0.18-0.256,0.304-0.398,0.373-0.434c0.517-0.156,0.879-0.033,1.086,0.369c0.09,1.234,0.27,2.112,0.537,2.632
			c0.092,0.178,0.215,0.32,0.369,0.425c0.5-0.356,1.043-1.184,1.629-2.481c0.434-1.279,0.578-2.058,0.437-2.332
			c-0.039,0.021-0.068,0.01-0.089-0.029l0.08-0.134c-0.69-0.278-1.139-0.364-1.345-0.257c-0.1,0-0.168,0.012-0.208,0.032
			c-0.027,0.089-0.18,0.409-0.454,0.961l-0.038-0.073c-0.364,0.09-0.569,0.089-0.615,0.001l-0.087,0.119l-0.118,0.062l-0.03-0.059
			c0.077-0.574,0.183-0.947,0.319-1.117l-0.12-0.087l-0.068-0.133l0.177-0.091c0.343-0.276,0.538-0.427,0.588-0.452L32.343,40.069z
			 M32.409,41.75c0.078-0.041-0.087-0.012-0.496,0.088l-0.059,0.029c-0.074,0.051,0.091,0.021,0.495-0.088L32.409,41.75z"/>
		<path fill="#716558" d="M37.945,38.819c0.065,0.127,0.124,0.817,0.175,2.072l0.06-0.031c0.579-1.068,1.012-1.964,1.299-2.685
			l0.294-0.151c0.778-0.228,1.284-0.115,1.518,0.337l0.093,0.325c0.445,0.864,1.034,1.33,1.767,1.398l0.177-0.091
			c0.354-0.182,0.753-0.612,1.199-1.29l0.059-0.03c0.021,0.039,0.051,0.05,0.09,0.029c-0.056-0.107,0.041-0.258,0.29-0.448
			c-0.036-0.118,0.236-0.507,0.815-1.166l0.062,0.117c0.293,0.569-0.137,1.711-1.291,3.426l-0.559,0.362
			c-0.927,0.179-1.729,0.071-2.405-0.325c-0.338-0.174-0.759-0.602-1.262-1.288l-0.059,0.03c-0.343,0.662-0.926,2.182-1.75,4.559
			c0.081,0.157,0.033,0.306-0.144,0.445c-0.176,0.092-0.394,0.055-0.652-0.109c-0.147,0.076-0.378-0.129-0.69-0.613
			c-0.39-1.527-0.585-2.818-0.583-3.877c-0.246-0.718-0.164-1.184,0.248-1.396C37.067,38.226,37.485,38.359,37.945,38.819z"/>
		<path fill="#716558" d="M46.55,27.664c0.041,0.078,0.111,0.937,0.211,2.577c0.039-0.021,0.068-0.011,0.089,0.028
			c0.99-0.636,1.818-1.15,2.485-1.543l0.031,0.059l0.087-0.12l0.412-0.213c0.236-0.122,0.394-0.104,0.475,0.053l0.177-0.091
			c0.354-0.182,0.602-0.136,0.743,0.139c-0.125,0.264-0.467,0.565-1.026,0.903l-0.029-0.059c-1.186,0.81-2.297,1.595-3.335,2.354
			c0.056,0.108,0.269,1.242,0.636,3.401c0.273,1.587,0.635,2.819,1.086,3.692c-0.037,0.217-0.076,0.337-0.115,0.357
			c-0.078,0.04-0.147,0.002-0.209-0.116l-0.059,0.03l0.061,0.118l-0.117,0.061l-0.363-0.56L47.667,38.5
			c-0.129-0.058-0.21-0.116-0.24-0.175l-0.059,0.03c0.041,0.079,0.041,0.128,0.002,0.148l0.12,0.088l0.091,0.176
			c-0.133,0.032-0.272-0.095-0.42-0.38l-0.061-0.117l-0.094-0.326c-0.078,0.04-0.138,0.021-0.178-0.057
			c-0.137-0.265-0.212-0.699-0.225-1.302c-0.052-0.196-0.113-0.364-0.184-0.501l-0.06,0.03l-0.061-0.118
			c0.117-0.061,0.156-0.13,0.115-0.209c-0.078,0.041-0.138,0.022-0.178-0.056c0.079-0.041,0.097-0.1,0.057-0.179l-0.12-0.087
			c-0.356-1.606-0.446-2.455-0.27-2.546c-0.08-0.059-0.13-0.107-0.15-0.146l-1.143,0.964c-0.629,0.324-1.096,0.191-1.399-0.397
			c-0.027-0.197,0.01-0.366,0.112-0.505l0.412-0.213c1.328-0.798,1.904-1.369,1.728-1.711c-0.051-0.869-0.203-1.984-0.458-3.344
			c0.234-0.221,0.371-0.341,0.411-0.362C45.79,27.012,46.168,27.165,46.55,27.664z"/>
		<path fill="#716558" d="M54.015,28.36l0.107,0.169c0.064,0.104-0.085,0.367-0.45,0.792c-0.65,2.834-0.848,4.776-0.593,5.825
			l0.06-0.031l0.245,0.005l0.483-1.518l0.142-0.017c-0.016-0.029,0.045-0.273,0.184-0.729l-0.113-0.073
			c-0.041-0.078-0.028-0.141,0.035-0.186l0.148-0.001c-0.106-0.181-0.049-0.347,0.172-0.499l-0.031-0.059
			c-0.113,0.071-0.193,0.069-0.244-0.004c0.039-0.021,0.099-0.181,0.179-0.483l0.169-0.106c0.194-1.045,0.33-1.589,0.409-1.629
			l0.279-0.181c0.479,0.014,0.807,0.082,0.98,0.202l0.106,0.17l0.183,2.087c0.124,0.482,0.172,0.731,0.143,0.746l0.03,0.059
			c0.252,0.417,0.454,0.579,0.606,0.489c0.039-0.02,0.165-0.247,0.377-0.679l0.06-0.03c0.039,0.078,0.077,0.102,0.111,0.073
			c0.442-0.949,0.811-1.886,1.105-2.809c0.159,0.092,0.297,0.238,0.413,0.438c0.07,0.81-0.144,1.915-0.64,3.314
			c-0.193,0.324-0.412,0.562-0.657,0.713c-1.084,0.26-1.777,0.133-2.081-0.382c-0.059,0.03-0.299-0.23-0.721-0.783
			c-0.209-0.141-0.484,0.747-0.826,2.663c-0.242,0.349-0.404,0.552-0.488,0.608l-0.169,0.105c-0.402,0.232-0.932,0.158-1.589-0.224
			l-0.212-0.34c-0.046-0.088-0.071-0.174-0.077-0.258l-0.12-0.087c-0.194-0.906-0.211-1.408-0.049-1.504l-0.134-0.08
			c0.076-0.189,0.081-0.397,0.014-0.623c0.106-0.179,0.197-1.028,0.271-2.545c0.14-1.415,0.462-2.271,0.967-2.569
			C53.118,28.189,53.523,28.179,54.015,28.36z"/>
		<path fill="#716558" d="M62.368,24.199l0.211,0.265c0.334,1.804,0.466,2.768,0.393,2.893l-0.144,0.335
			c-0.462-0.148-0.972-0.605-1.529-1.374l-0.06,0.03c-0.574,2.211-0.673,3.803-0.294,4.777c0.074,0.048,0.134,0.116,0.18,0.204
			l0.472-0.243c0.116-0.233,0.301-0.452,0.555-0.659c0.021,0.039,0.051,0.049,0.09,0.029l0.756-1.137
			c0.049-0.025,0.496-0.654,1.34-1.885l0.061,0.118c0.283-0.221,0.469-0.441,0.555-0.66c0.423-0.144,0.66-0.166,0.711-0.067
			c0.213,0.412-0.48,1.864-2.079,4.354c-0.45,0.382-0.989,0.734-1.617,1.059c-0.53,0.273-1.253,0.125-2.169-0.446l-0.212-0.264
			c-0.376-1.597-0.243-3.554,0.399-5.875c0.246-0.823,0.576-1.341,0.988-1.554C61.445,23.856,61.909,23.888,62.368,24.199z"/>
		<path fill="#716558" d="M66.728,17.25c0.04,0.078,0.11,0.938,0.211,2.577c0.039-0.02,0.068-0.011,0.089,0.028
			c0.99-0.636,1.818-1.15,2.485-1.543l0.03,0.059l0.088-0.12l0.412-0.213c0.235-0.121,0.394-0.104,0.475,0.053L70.694,18
			c0.354-0.183,0.602-0.136,0.743,0.139c-0.126,0.264-0.467,0.565-1.026,0.903l-0.029-0.059c-1.186,0.81-2.298,1.595-3.335,2.354
			c0.056,0.108,0.268,1.242,0.636,3.401c0.272,1.587,0.635,2.819,1.086,3.692c-0.038,0.217-0.076,0.337-0.115,0.357
			c-0.078,0.041-0.148,0.002-0.209-0.116l-0.059,0.03l0.061,0.118l-0.117,0.061l-0.363-0.56l-0.121-0.234
			c-0.13-0.058-0.21-0.117-0.24-0.176l-0.059,0.03c0.041,0.079,0.041,0.129,0.002,0.149l0.12,0.087l0.091,0.176
			c-0.133,0.033-0.272-0.094-0.42-0.379l-0.061-0.117l-0.094-0.327c-0.078,0.041-0.138,0.022-0.178-0.056
			c-0.137-0.265-0.213-0.7-0.225-1.302c-0.052-0.197-0.113-0.364-0.185-0.501l-0.059,0.03l-0.062-0.118
			c0.118-0.061,0.157-0.13,0.116-0.209c-0.079,0.04-0.138,0.021-0.178-0.057c0.078-0.041,0.097-0.1,0.057-0.179l-0.12-0.088
			c-0.356-1.606-0.446-2.455-0.27-2.546c-0.08-0.059-0.13-0.107-0.15-0.146l-1.144,0.964c-0.628,0.324-1.095,0.191-1.398-0.397
			c-0.027-0.197,0.01-0.366,0.112-0.505l0.412-0.213c1.328-0.798,1.904-1.369,1.728-1.711c-0.051-0.869-0.204-1.984-0.458-3.344
			c0.234-0.221,0.371-0.341,0.41-0.361C65.968,16.598,66.346,16.751,66.728,17.25z"/>
		<path fill="#716558" d="M72.948,19.112c1.298-0.496,2.229-0.293,2.795,0.608c0.501,0.973,0.212,2.533-0.867,4.681
			c-0.348,0.963-0.798,1.586-1.348,1.87c-1.154,0.172-1.997-0.256-2.528-1.287c-0.375-0.727-0.553-1.648-0.532-2.765
			c0.18-0.254,0.304-0.398,0.373-0.434c0.517-0.155,0.879-0.032,1.086,0.371c0.09,1.233,0.27,2.111,0.537,2.631
			c0.092,0.178,0.215,0.32,0.369,0.426c0.5-0.356,1.043-1.185,1.629-2.481c0.434-1.28,0.578-2.058,0.437-2.332
			c-0.039,0.021-0.069,0.01-0.089-0.029l0.08-0.134c-0.69-0.278-1.139-0.363-1.345-0.257c-0.1,0-0.168,0.012-0.208,0.033
			c-0.027,0.089-0.18,0.41-0.454,0.96l-0.038-0.073c-0.364,0.089-0.569,0.089-0.615,0.001l-0.087,0.119l-0.118,0.061l-0.03-0.059
			c0.077-0.574,0.183-0.946,0.319-1.116l-0.12-0.088l-0.068-0.133l0.177-0.091c0.343-0.276,0.538-0.427,0.588-0.452L72.948,19.112z
			 M73.015,20.794c0.078-0.041-0.087-0.011-0.496,0.087l-0.059,0.03c-0.074,0.05,0.091,0.021,0.495-0.087L73.015,20.794z"/>
	</g>
</g>
</svg>
