<?xml version="1.0" encoding="utf-8"?>
<!-- Generator: Adobe Illustrator 16.0.0, SVG Export Plug-In . SVG Version: 6.00 Build 0)  -->
<!DOCTYPE svg PUBLIC "-//W3C//DTD SVG 1.1//EN" "http://www.w3.org/Graphics/SVG/1.1/DTD/svg11.dtd">
<svg version="1.1" id="Layer_1" xmlns="http://www.w3.org/2000/svg" xmlns:xlink="http://www.w3.org/1999/xlink" x="0px" y="0px"
	 width="117px" height="90px" viewBox="0 0 117 90" enable-background="new 0 0 117 90" xml:space="preserve">
<g>
	<g>
		<path fill="#DFCB34" d="M105.486,0.289c-0.041-0.012-0.058-0.001-0.083,0.002c0.029,0,0.056,0,0.085,0
			C105.487,0.29,105.487,0.289,105.486,0.289z"/>
		<path fill="#DFCB34" d="M105.518,0.294c-0.004-0.001-0.008-0.002-0.012-0.002c-0.006,0-0.008-0.001-0.017-0.001
			C105.5,0.291,105.507,0.293,105.518,0.294z"/>
		<path fill="#DFCB34" d="M101.983,1.98c-0.002-0.005-0.005-0.008-0.008-0.013c-0.036-0.014-0.069-0.025-0.11-0.041
			c0.029,0.017,0.068,0.037,0.118,0.062C101.982,1.983,101.985,1.984,101.983,1.98z"/>
		<path fill="#DFCB34" d="M74.489,28.707c-0.036-0.015-0.067-0.009-0.097-0.004c0.001,0.035,0.034,0.068,0.097,0.134
			C74.503,28.797,74.505,28.714,74.489,28.707z"/>
		<path fill="#DFCB34" d="M116.124,26.329c0.265-0.164,0.216-0.425,0.226-0.675c0.004-0.116-0.018-0.189-0.104-0.266
			c-0.108-0.096-0.212-0.186-0.212-0.371c0.008-4.631,0.004-9.263,0.011-13.894c0-0.225-0.054-0.388-0.229-0.521
			c-0.037-0.026-0.079-0.078-0.079-0.117c0.004-0.505,0.012-1.011,0.028-1.516c0-0.037,0.071-0.068,0.103-0.108
			c0.239-0.309,0.256-0.328,0.012-0.624c-0.188-0.227-0.121-0.59-0.425-0.742c-0.012-0.289-0.139-0.6,0.163-0.827
			c0.041-0.031,0.104-0.071,0.104-0.107c0.009-0.508,0.011-1.016,0.008-1.523c0-0.037-0.065-0.071-0.095-0.112
			c-0.202-0.28-0.22-0.282-0.201-0.524c0.017-0.227-0.057-0.388-0.23-0.519c-0.084-0.063-0.084-0.158-0.084-0.271
			c0-0.454-0.015-0.908-0.024-1.362c-0.521-0.446-0.185-1.043-0.273-1.565c-0.038-0.223,0.029-0.464,0.001-0.684h-9.476
			c0,0.096,0.007,0.191,0.14,0.289c0.001,0,0.001-0.001,0.003,0c0.006,0.001,0.011,0.002,0.017,0.003
			c0.042,0.001,0.04,0.003,0.019,0.003c0.292,0.012,0.426,0.091,0.407,0.175c-0.019,0.086-0.226,0.158-0.374,0.125
			c-0.042-0.01-0.083-0.033-0.117-0.06c-0.036-0.028-0.076-0.063-0.092-0.104c-0.038-0.098-0.007-0.133,0.055-0.141
			c-0.609-0.001-1.099-0.013-1.584,0.007c-0.196,0.008-0.262-0.129-0.367-0.226c-0.031-0.028-0.054-0.051-0.074-0.072h-1.596
			c0.022,0.003,0.054-0.001,0.063,0.013c0.207,0.302,0.5,0.29,0.807,0.281c0.147-0.005,0.295,0.022,0.442,0.035
			c0.289,0.43,0.731,0.223,1.111,0.267c0.05,0.006,0.102,0.002,0.152,0c0.302-0.008,0.613-0.046,0.804,0.273
			c0.199,0.011,0.399,0.011,0.597,0.037c0.109,0.015,0.175,0.098,0.164,0.178c-0.006,0.041-0.064,0.102-0.104,0.104
			c-0.201,0.016-0.405-0.004-0.603,0.026c-0.116,0.019-0.16,0.121-0.123,0.192c0.022,0.043,0.069,0.102,0.107,0.102
			c0.305,0.008,0.616,0.04,0.914-0.004c0.393-0.059,0.51,0.269,0.734,0.448c0.005,0.004-0.03,0.089-0.061,0.101
			c-0.225,0.086-0.55,0.096-0.718,0.031c-0.191-0.322-0.509-0.243-0.805-0.271c-0.428-0.041-0.917,0.178-1.261-0.269
			c-0.25-0.01-0.5-0.029-0.75-0.027c-0.113,0.001-0.216,0.004-0.272-0.082c-0.166-0.257-0.417-0.249-0.67-0.224
			c-0.117,0.012-0.187-0.024-0.27-0.095c-0.261-0.218-0.267-0.207-0.52-0.216c-0.144-0.006-0.292,0.042-0.417-0.107
			c-0.111-0.131-0.123-0.094-0.429,0.037c-0.276,0.117-0.577,0.171-0.822-0.081c-0.115-0.118-0.238-0.158-0.396-0.155
			c-0.145,0.002-0.301,0.04-0.432-0.059c-0.034-0.025-0.081-0.079-0.074-0.104c0.013-0.043,0.061-0.095,0.103-0.105
			c0.094-0.024,0.198-0.013,0.292-0.037C99.472,0.254,99.528,0.142,99.533,0h-1.046c0.029,0.032,0.062,0.062,0.089,0.095
			c0.045,0.054-0.005,0.153-0.117,0.191c-0.147,0.05-0.356-0.02-0.396-0.1C98.031,0.125,98.018,0.063,98.015,0h-6.554
			c0.015,0.014,0.06,0.06,0.088,0.089c0.017,0.091,0.048,0.183,0.046,0.273c-0.004,0.149-0.121,0.223-0.292,0.238
			c-0.112,0.01-0.194-0.006-0.256-0.096C91,0.434,91.034,0.376,91.133,0.295c0.109-0.09,0.202-0.198,0.306-0.295h-0.91
			c-0.035,0.017-0.067,0.039-0.095,0.078c-0.028,0.041-0.068,0.07-0.104,0.105c-0.036,0.034-0.07,0.07-0.105,0.105
			c-0.051-0.076-0.133-0.147-0.149-0.229c-0.004-0.022,0-0.039-0.001-0.06h-1.843c-0.055,0.014-0.11,0.027-0.177,0.025
			c-0.068-0.003-0.136,0.142-0.215,0.202c-0.128,0.098-0.319,0.116-0.401,0.011C87.323,0.087,87.162,0.049,87.009,0h-7.461
			c0.035,0.015,0.072,0.057,0.088,0.094c0.032,0.071-0.016,0.185-0.126,0.189c-0.401,0.02-0.803,0.008-1.205,0.008
			c-0.251,0-0.501,0-0.752,0C77.351,0.29,77.24,0.184,77.243,0H0.65c0.04,0.009,0.07,0.03,0.114,0.034
			c0.274,0.194,0.394,0.618,0.836,0.562c0.334,0.189,0.469,0.684,0.962,0.626c0.285,0.265,0.5,0.631,0.953,0.647
			C3.789,2.064,3.913,2.484,4.353,2.43c0.33,0.195,0.469,0.682,0.962,0.628c0.143,0.144,0.307,0.273,0.426,0.435
			c0.14,0.19,0.369,0.108,0.525,0.215c0.278,0.188,0.4,0.609,0.839,0.556c0.326,0.201,0.469,0.681,0.96,0.63
			C8.21,5.036,8.375,5.166,8.493,5.328c0.14,0.19,0.37,0.105,0.525,0.214C9.293,5.733,9.42,6.146,9.858,6.1
			c0.035-0.003,0.074,0.06,0.114,0.087c0.24,0.166,0.343,0.493,0.701,0.527c0.331,0.031,0.446,0.379,0.684,0.554
			c0.454,0.016,0.666,0.387,0.956,0.645c0.03,0.026,0.096,0.02,0.145,0.015c0.316-0.029,0.435,0.438,0.788,0.312
			c0.292,0.254,0.494,0.641,0.953,0.648c0.145,0.144,0.312,0.271,0.426,0.436c0.139,0.199,0.384,0.061,0.528,0.211
			c0.141,0.147,0.295,0.282,0.428,0.436c0.076,0.086,0.149,0.122,0.267,0.1c0.282-0.054,0.335,0.38,0.637,0.307
			c0.103-0.026,0.176,0.042,0.252,0.128c0.134,0.152,0.262,0.346,0.435,0.421c0.221,0.096,0.46,0.121,0.628,0.333
			c0.153,0.192,0.314,0.411,0.621,0.337c0.111,0.102,0.222,0.204,0.332,0.306c0.308-0.074,0.447,0.164,0.627,0.332
			c0.107,0.1,0.225,0.26,0.342,0.263c0.234,0.009,0.354,0.143,0.505,0.275c0.144,0.128,0.229,0.361,0.462,0.347
			c0.25-0.017,0.326,0.207,0.491,0.297c0.12,0.064,0.292-0.035,0.413,0.112c0.129,0.156,0.271,0.309,0.432,0.43
			c0.188,0.143,0.498,0.064,0.626,0.329c0.227,0.074,0.466,0.097,0.638,0.317c0.114,0.146,0.223,0.365,0.458,0.348
			c0.251-0.019,0.336,0.188,0.486,0.306c0.3-0.067,0.455,0.145,0.632,0.322c0.104,0.106,0.223,0.196,0.334,0.294
			c0.302-0.084,0.409,0.279,0.638,0.292c0.234,0.015,0.352,0.146,0.502,0.276c0.146,0.126,0.228,0.362,0.465,0.343
			c0.252-0.02,0.334,0.191,0.485,0.309c0.385-0.094,0.512,0.253,0.737,0.432c0.04,0.031,0.073,0.071,0.108,0.107
			c0.071,0.074,0.162,0.091,0.275,0.075c0.262-0.034,0.488,0.016,0.664,0.246c0.123,0.159,0.28,0.295,0.429,0.433
			c0.105,0.098,0.177,0.261,0.359,0.234c0.252-0.034,0.321,0.263,0.488,0.289c0.208,0.034,0.391,0.048,0.519,0.233
			c0.126,0.184,0.389,0.009,0.527,0.212c0.113,0.165,0.271,0.305,0.43,0.431c0.066,0.052,0.184,0.044,0.278,0.059
			c0.206,0.033,0.264,0.315,0.484,0.302c0.312-0.019,0.408,0.258,0.599,0.401c0.04,0.03,0.081,0.065,0.107,0.108
			c0.106,0.167,0.289,0.054,0.411,0.115c0.168,0.083,0.237,0.326,0.489,0.298c0.268-0.028,0.335,0.382,0.637,0.307
			c0.04-0.01,0.104,0.009,0.134,0.037c0.148,0.139,0.308,0.272,0.429,0.433c0.165,0.217,0.5,0.058,0.637,0.319
			c0.087,0.167,0.275,0.08,0.4,0.135c0.13,0.056,0.211,0.225,0.341,0.286c0.123,0.059,0.284-0.03,0.413,0.115
			c0.164,0.187,0.366,0.337,0.551,0.505c0.34-0.099,0.449,0.347,0.791,0.322c0.219-0.016,0.335,0.372,0.636,0.288
			c0.205,0.118,0.334,0.392,0.637,0.306c0.11,0.102,0.206,0.235,0.335,0.296c0.124,0.058,0.284-0.026,0.412,0.119
			c0.164,0.185,0.366,0.336,0.552,0.502c0.341-0.096,0.453,0.396,0.79,0.305c0.223,0.08,0.336,0.39,0.637,0.306
			c0.112,0.098,0.231,0.19,0.334,0.296c0.175,0.182,0.335,0.383,0.632,0.322c0.158,0.208,0.357,0.338,0.629,0.324
			c0.148,0.228,0.382,0.289,0.629,0.323c0.167,0.361,0.658,0.185,0.856,0.534c0.117,0.207,0.309,0.414,0.615,0.339
			c0.111,0.102,0.222,0.203,0.332,0.306c0.225-0.043,0.385,0.053,0.52,0.224c0.105,0.134,0.287,0.041,0.41,0.113
			c0.125,0.074,0.23,0.182,0.346,0.273c0.3-0.083,0.394,0.296,0.636,0.3c0.366,0.005,0.485,0.323,0.706,0.509
			c0.086,0.071,0.149,0.139,0.262,0.107c0.117-0.031,0.201,0.003,0.265,0.101c0.126,0.192,0.312,0.242,0.525,0.204
			c0.225-0.039,0.382,0.059,0.519,0.228c0.097,0.117,0.204,0.231,0.326,0.319c0.072,0.052,0.186,0.07,0.277,0.062
			c0.271-0.028,0.476,0.054,0.661,0.263c0.125,0.142,0.225,0.364,0.46,0.347c0.251-0.018,0.335,0.188,0.487,0.307
			c0.297-0.072,0.451,0.149,0.635,0.311c0.301-0.086,0.421,0.252,0.64,0.287c0.218,0.035,0.361,0.12,0.509,0.262
			c0.139,0.135,0.241,0.381,0.455,0.355c0.306-0.036,0.372,0.342,0.638,0.313c0.322-0.032,0.435,0.445,0.79,0.31
			c0.167,0.191,0.346,0.361,0.63,0.32c0.157,0.377,0.647,0.205,0.858,0.532c0.092,0.144,0.393,0.015,0.509,0.224
			c0.117,0.212,0.412,0.059,0.513,0.221c0.156,0.256,0.468,0.152,0.632,0.324c0.152,0.16,0.305,0.254,0.526,0.211
			c0.111,0.103,0.206,0.24,0.336,0.296c0.126,0.054,0.303-0.024,0.401,0.136c0.122,0.199,0.338,0.168,0.522,0.215
			c0.143,0.238,0.417,0.224,0.623,0.337c0.167,0.093,0.289,0.225,0.51,0.257c0.22,0.03,0.337,0.373,0.64,0.287
			c0.189,0.151,0.335,0.391,0.637,0.307c0.162,0.201,0.349,0.354,0.629,0.324c0.157,0.375,0.675,0.186,0.845,0.54
			c0.167,0.088,0.406,0.009,0.521,0.216c0.118,0.213,0.387,0.064,0.52,0.219c0.14,0.162,0.292,0.271,0.518,0.229
			c0.186,0.156,0.335,0.386,0.635,0.309c0.161,0.202,0.352,0.348,0.629,0.323c0.158,0.374,0.676,0.184,0.846,0.539
			c0.169,0.084,0.406,0.01,0.52,0.217c0.119,0.213,0.389,0.061,0.521,0.217c0.139,0.166,0.292,0.271,0.518,0.229
			c0.183,0.16,0.337,0.382,0.635,0.31c0.111,0.101,0.222,0.2,0.333,0.302c0.229-0.045,0.37,0.084,0.516,0.235
			c0.136,0.14,0.401,0.007,0.518,0.219c0.116,0.21,0.378,0.091,0.517,0.221c0.151,0.14,0.282,0.285,0.513,0.24
			c0.215,0.228,0.462,0.376,0.79,0.305c0.116-0.024,0.202,0.002,0.266,0.099c0.125,0.188,0.313,0.199,0.519,0.23
			c0.124,0.018,0.225,0.184,0.336,0.283c0.229-0.045,0.352,0.117,0.518,0.23c0.19,0.131,0.453,0.112,0.634,0.324
			c0.108,0.127,0.395,0.02,0.509,0.227c0.119,0.215,0.39,0.052,0.521,0.217c0.136,0.172,0.295,0.268,0.519,0.224
			c0.111,0.103,0.221,0.204,0.332,0.306c0.224-0.043,0.388,0.049,0.519,0.225c0.063,0.084,0.157,0.092,0.271,0.086
			c0.148-0.009,0.298,0.013,0.446,0.021c0.159,0.373,0.68,0.18,0.845,0.54c0.176,0.069,0.406,0.011,0.521,0.218
			c0.119,0.213,0.391,0.047,0.521,0.215c0.134,0.174,0.296,0.266,0.52,0.223c0.11,0.102,0.22,0.204,0.332,0.307
			c0.225-0.044,0.386,0.051,0.518,0.225c0.063,0.084,0.157,0.096,0.271,0.082c0.259-0.033,0.481,0.013,0.672,0.234
			c0.076,0.088,0.291,0.046,0.397,0.125c0.159,0.117,0.274,0.262,0.509,0.26c0.196-0.002,0.254,0.316,0.484,0.292
			c0.251-0.026,0.324,0.207,0.491,0.296c0.12,0.063,0.303-0.046,0.41,0.115c0.127,0.19,0.312,0.23,0.526,0.206
			c0.099-0.011,0.264-0.03,0.29,0.016c0.168,0.298,0.547,0.216,0.743,0.429c0.207,0.227,0.588,0.123,0.745,0.427
			c0.016,0.028,0.089,0.046,0.132,0.04c0.245-0.039,0.33,0.206,0.499,0.271c0.176,0.069,0.396,0.025,0.596,0.039
			c0.042,0.004,0.089,0.047,0.116,0.084c0.131,0.18,0.299,0.262,0.521,0.219c0.111,0.102,0.221,0.203,0.332,0.307
			c0.226-0.045,0.384,0.059,0.517,0.229c0.063,0.081,0.159,0.093,0.272,0.078c0.262-0.035,0.501,0.002,0.661,0.246
			c0.23,0.068,0.488,0.082,0.63,0.324c0.254,0.02,0.458,0.12,0.638,0.316c0.083,0.09,0.275-0.002,0.408,0.11
			c0.27,0.23,0.285,0.254,0.515,0.214c0.308-0.051,0.436,0.188,0.644,0.305c0.114,0.063,0.303-0.027,0.401,0.134
			c0.122,0.198,0.384,0.116,0.511,0.228c0.202,0.178,0.388,0.303,0.662,0.261c0.159-0.024,0.283,0.036,0.396,0.155
			c0.061,0.066,0.163,0.146,0.241,0.141c0.246-0.021,0.328,0.218,0.498,0.281c0.178,0.067,0.397,0.021,0.597,0.036
			c0.041,0.003,0.088,0.049,0.115,0.086c0.131,0.183,0.301,0.258,0.522,0.216c0.165,0.197,0.348,0.357,0.63,0.322
			c0.188,0.314,0.489,0.309,0.797,0.29c0.101-0.006,0.188,0.044,0.245,0.144c0.12,0.205,0.395,0.088,0.514,0.223
			c0.191,0.213,0.404,0.277,0.668,0.242c0.113-0.016,0.21-0.004,0.273,0.075c0.134,0.167,0.289,0.274,0.516,0.231
			c0.11,0.102,0.221,0.204,0.332,0.305c0.221-0.041,0.393,0.033,0.521,0.218c0.062,0.089,0.152,0.101,0.269,0.093
			c0.148-0.011,0.299,0.008,0.449,0.016c0.153,0.303,0.536,0.217,0.736,0.434c0.11,0.121,0.233,0.166,0.394,0.16
			c0.146-0.004,0.348-0.065,0.425,0.06c0.179,0.292,0.576,0.155,0.747,0.426c0.063,0.101,0.145,0.142,0.255,0.124
			c0.05-0.007,0.102,0.004,0.152-0.002c0.214-0.027,0.402,0.009,0.527,0.202c0.108,0.165,0.289,0.055,0.41,0.116
			c0.129,0.063,0.214,0.215,0.342,0.285c0.078,0.045,0.199,0.006,0.301,0.01c0.099,0.003,0.258-0.023,0.287,0.025
			c0.172,0.293,0.539,0.217,0.749,0.424c0.067,0.066,0.154,0.115,0.24,0.157c0.041,0.021,0.1,0.001,0.15,0.003
			c0.147,0.01,0.342-0.063,0.426,0.064c0.161,0.24,0.476,0.161,0.627,0.327c0.202,0.222,0.426,0.241,0.679,0.216
			c0.117-0.012,0.186,0.024,0.27,0.094c0.261,0.219,0.267,0.213,0.52,0.216c0.228,0.003,0.232-0.002,0.517,0.224
			c0.083,0.064,0.157,0.096,0.272,0.084c0.232-0.021,0.287,0.268,0.485,0.299c0.195,0.031,0.396,0.031,0.593,0.045
			c0.15,0.307,0.551,0.189,0.736,0.434c0.069,0.092,0.145,0.139,0.25,0.139c0.203-0.004,0.407-0.002,0.611-0.002
			c0.264-0.001,0.348-0.086,0.348-0.352c0-6.77-0.001-13.537,0.006-20.307c0-0.23-0.089-0.377-0.246-0.514
			c-0.021-0.018-0.029-0.095-0.018-0.101c0.322-0.197,0.258-0.516,0.258-0.813c0.001-0.356-0.016-0.714,0.006-1.069
			c0.015-0.243-0.167-0.341-0.281-0.497c-0.137-0.189-0.343-0.159-0.523-0.217c-0.043-0.014-0.093-0.064-0.102-0.106
			c-0.006-0.028,0.049-0.095,0.085-0.103c0.144-0.027,0.289-0.044,0.435-0.056c0.319-0.024,0.391-0.083,0.384-0.321
			c-0.014-0.456-0.007-0.912-0.018-1.369c-0.001-0.037-0.064-0.1-0.104-0.104c-0.198-0.021-0.399-0.014-0.595-0.049
			c-0.066-0.01-0.12-0.109-0.17-0.176c-0.005-0.006,0.063-0.095,0.103-0.099c0.149-0.019,0.3-0.017,0.451-0.021
			c0.19-0.007,0.328-0.095,0.328-0.219c0.002-0.255,0.003-0.509,0-0.764c0-0.144-0.108-0.24-0.306-0.234
			c-0.117,0.003-0.207-0.005-0.258-0.116c-0.012-0.027-0.001-0.082,0.02-0.104c0.104-0.113,0.219-0.215,0.321-0.328
			c0.095-0.107,0.244-0.173,0.229-0.365c-0.02-0.245,0.044-0.495-0.209-0.683c-0.168-0.124-0.141-0.333,0.02-0.514
			c0.1-0.111,0.213-0.206,0.187-0.382c-0.028-0.19,0.06-0.402-0.137-0.558c-0.073-0.057-0.157-0.149-0.163-0.232
			c-0.021-0.253-0.018-0.509-0.004-0.763c0.008-0.164,0.21-0.226,0.248-0.353c0.043-0.146-0.207-0.209-0.217-0.322
			c-0.036-0.4-0.029-0.807-0.031-1.21C116.042,26.405,116.086,26.353,116.124,26.329z M43.888,0.494
			c-0.024,0.041-0.07,0.097-0.107,0.098c-0.502,0.007-1.005,0.016-1.506-0.004c-0.112-0.004-0.153-0.126-0.111-0.194
			c0.024-0.041,0.07-0.098,0.107-0.099c0.251-0.009,0.502-0.004,0.753-0.004s0.504-0.02,0.752,0.009
			C43.892,0.312,43.931,0.426,43.888,0.494z M45.604,0.894c-0.297,0.024-0.599,0.012-0.898,0.003c-0.036,0-0.082-0.06-0.104-0.102
			c-0.034-0.07,0.009-0.175,0.122-0.19c0.197-0.028,0.399-0.009,0.599-0.009c0.1,0,0.201-0.01,0.299,0.006
			c0.04,0.006,0.083,0.06,0.104,0.103C45.76,0.773,45.715,0.885,45.604,0.894z M49.338,1.154c-0.063,0.04-0.138,0.004-0.197-0.103
			c-0.006-0.012,0.063-0.065,0.096-0.1c0.068-0.033,0.14-0.001,0.198,0.105C49.442,1.069,49.378,1.13,49.338,1.154z M50,24.321
			c-0.025,0.04-0.085,0.104-0.097,0.099c-0.107-0.06-0.139-0.131-0.105-0.199c0.034-0.033,0.087-0.103,0.099-0.096
			C50.003,24.184,50.04,24.258,50,24.321z M51.728,1.509c-0.401,0.007-0.803,0.018-1.202-0.005
			c-0.111-0.005-0.154-0.123-0.115-0.191c0.023-0.043,0.068-0.099,0.105-0.101c0.201-0.01,0.401-0.004,0.602-0.004
			c0.201,0,0.404-0.021,0.6,0.007c0.115,0.018,0.155,0.124,0.116,0.193C51.81,1.449,51.764,1.508,51.728,1.509z M52.444,26.155
			c-0.025,0.039-0.085,0.104-0.097,0.098c-0.107-0.06-0.139-0.131-0.105-0.199c0.034-0.033,0.087-0.103,0.099-0.096
			C52.448,26.016,52.484,26.09,52.444,26.155z M52.905,24.071c-0.032-0.038-0.069-0.07-0.104-0.105
			c0.077-0.05,0.154-0.102,0.232-0.153c0.091,0.017,0.207,0.004,0.27,0.055c0.151,0.123,0.286,0.269,0.412,0.417
			c0.113,0.133-0.042,0.423-0.229,0.446c-0.238,0.029-0.374-0.059-0.371-0.301C53.118,24.247,52.997,24.178,52.905,24.071z
			 M53.279,25.947c-0.061-0.031-0.102-0.112-0.138-0.179c0.117,0.053,0.203,0.093,0.271,0.126c0-0.005,0-0.011-0.001-0.017
			c-0.233-0.139-0.191-0.203-0.182-0.197c0.066,0.036,0.149,0.076,0.179,0.138c0.014,0.028,0.001,0.038,0.003,0.06
			c0.042,0.024,0.074,0.047,0.137,0.077c-0.006-0.002-0.017-0.002-0.024-0.004c0.086,0.047,0.111,0.068,0.125,0.087
			c0.021,0.025,0.048,0.073,0.038,0.094c-0.057,0.112-0.118,0.122-0.191,0.06c-0.076-0.064-0.116-0.14-0.077-0.237
			c0.005-0.013,0.063-0.012,0.105-0.003c-0.03-0.016-0.063-0.033-0.111-0.057C53.409,25.957,53.371,25.991,53.279,25.947z
			 M53.79,31.142c-0.04,0.02-0.097,0.004-0.146,0.004c-0.077-0.051-0.154-0.102-0.232-0.152c0.078-0.052,0.15-0.109,0.233-0.149
			c0.04-0.021,0.104-0.021,0.144,0c0.083,0.04,0.156,0.098,0.234,0.149C53.946,31.044,53.873,31.103,53.79,31.142z M54.412,25.274
			c-0.076-0.064-0.116-0.139-0.077-0.236c0.005-0.014,0.062-0.012,0.104-0.003c-0.03-0.017-0.063-0.033-0.111-0.057
			c-0.002,0.062-0.041,0.097-0.133,0.052c-0.062-0.03-0.102-0.112-0.138-0.178c0.117,0.052,0.203,0.093,0.271,0.126
			c0-0.006,0-0.011-0.001-0.018c-0.233-0.139-0.191-0.202-0.182-0.196c0.066,0.035,0.149,0.076,0.179,0.137
			c0.014,0.028,0.001,0.039,0.003,0.06c0.042,0.025,0.074,0.048,0.137,0.077c-0.006-0.002-0.017-0.002-0.024-0.003
			c0.086,0.046,0.111,0.068,0.125,0.086c0.021,0.026,0.048,0.074,0.038,0.094C54.546,25.328,54.485,25.338,54.412,25.274z
			 M55.498,25.543c-0.025,0.04-0.085,0.104-0.097,0.098c-0.107-0.058-0.139-0.13-0.104-0.197c0.034-0.034,0.087-0.104,0.099-0.098
			C55.502,25.405,55.539,25.48,55.498,25.543z M54.794,2.124c-0.225-0.362-0.581-0.318-0.932-0.308
			c-0.302,0.009-0.604,0.002-0.907,0.002c-0.1,0-0.202,0.009-0.301-0.005c-0.041-0.006-0.084-0.058-0.107-0.101
			c-0.038-0.069,0.006-0.187,0.118-0.192c0.402-0.021,0.806-0.008,1.208-0.008c0.302,0,0.605,0,0.907,0
			c0.225,0.362,0.582,0.317,0.931,0.308c0.302-0.01,0.604-0.002,0.907-0.002c0.101,0,0.203-0.01,0.302,0.004
			c0.041,0.007,0.083,0.06,0.107,0.101c0.038,0.07-0.008,0.19-0.118,0.193C56.204,2.131,55.499,2.124,54.794,2.124z M56.57,26.204
			c-0.04-0.024-0.104-0.084-0.098-0.096c0.059-0.107,0.131-0.14,0.199-0.105c0.033,0.034,0.103,0.087,0.096,0.099
			C56.709,26.209,56.634,26.245,56.57,26.204z M57.248,24.414c-0.113,0.09-0.209,0.203-0.35,0.345
			c-0.091-0.11-0.173-0.229-0.276-0.326c-0.088-0.084-0.138-0.143-0.104-0.21c0.052-0.104,0.135-0.121,0.25-0.108
			c0.144,0.019,0.292-0.001,0.438,0.009c0.039,0.003,0.078,0.05,0.111,0.081C57.384,24.271,57.351,24.332,57.248,24.414z
			 M58.046,2.229c0.022-0.041,0.069-0.1,0.105-0.101c0.251-0.009,0.503-0.004,0.754-0.004s0.504-0.018,0.752,0.008
			c0.114,0.013,0.156,0.122,0.119,0.192c-0.022,0.042-0.07,0.1-0.105,0.1c-0.503,0.007-1.005,0.016-1.507-0.003
			C58.054,2.418,58.009,2.298,58.046,2.229z M58.603,24.73c-0.05,0-0.105,0.014-0.147-0.004c-0.042-0.018-0.083-0.061-0.104-0.104
			c-0.036-0.068,0.006-0.167,0.119-0.191c0.143-0.029,0.297-0.007,0.445-0.007c0.114-0.035,0.195,0.001,0.256,0.104
			c0.056,0.096-0.083,0.202-0.271,0.201C58.801,24.729,58.702,24.73,58.603,24.73z M59.773,32.266
			c-0.026,0.04-0.066,0.091-0.106,0.097c-0.098,0.014-0.198,0.005-0.297,0.005c-0.1,0-0.208,0.024-0.296-0.006
			c-0.116-0.04-0.151-0.131-0.108-0.198c0.025-0.04,0.068-0.095,0.106-0.097c0.198-0.01,0.4-0.027,0.594,0.003
			C59.782,32.089,59.816,32.198,59.773,32.266z M60.367,4.259c-0.083-0.04-0.156-0.099-0.233-0.149
			C60.211,4.059,60.284,4,60.367,3.96c0.04-0.02,0.097-0.004,0.146-0.004c0.077,0.051,0.155,0.103,0.232,0.153
			c-0.078,0.051-0.151,0.109-0.233,0.149C60.471,4.278,60.407,4.278,60.367,4.259z M60.739,27.174c-0.049,0-0.104,0.014-0.146-0.004
			c-0.042-0.018-0.082-0.061-0.104-0.102c-0.036-0.067,0.005-0.144,0.115-0.196c0.04-0.02,0.097-0.003,0.146-0.003
			c0.113-0.035,0.199-0.002,0.251,0.104C61.053,27.078,60.929,27.173,60.739,27.174z M64.566,25.652
			c0.012-0.006,0.065,0.062,0.099,0.097c0.034,0.067,0.002,0.139-0.105,0.198c-0.012,0.005-0.072-0.059-0.097-0.099
			C64.422,25.785,64.459,25.711,64.566,25.652z M64.002,27.427c-0.065,0.041-0.139,0.004-0.197-0.104
			c-0.007-0.012,0.062-0.064,0.096-0.098c0.068-0.035,0.139-0.003,0.198,0.104C64.106,27.342,64.042,27.402,64.002,27.427z
			 M64.613,27.532c0.04,0.024,0.104,0.085,0.098,0.098c-0.059,0.106-0.133,0.143-0.197,0.103c-0.04-0.024-0.07-0.066-0.104-0.1
			C64.478,27.53,64.549,27.492,64.613,27.532z M65.269,28.913c-0.013,0.057-0.349,0.141-0.398,0.093
			c-0.107-0.1-0.202-0.214-0.313-0.307c-0.099-0.081-0.128-0.136-0.09-0.211c0.026-0.05,0.352-0.139,0.401-0.091
			c0.141,0.134,0.278,0.272,0.412,0.414C65.294,28.828,65.273,28.878,65.269,28.913z M66.797,26.465
			c-0.102,0.152-0.437,0.147-0.503-0.007c-0.011-0.028-0.008-0.076,0.008-0.102c0.026-0.039,0.065-0.089,0.105-0.094
			c0.096-0.015,0.197-0.015,0.293,0c0.04,0.006,0.07,0.064,0.105,0.1C66.803,26.396,66.813,26.439,66.797,26.465z M67.874,3.599
			c-0.04-0.025-0.104-0.086-0.098-0.097c0.059-0.107,0.13-0.14,0.198-0.104c0.034,0.033,0.103,0.086,0.097,0.098
			C68.012,3.603,67.938,3.639,67.874,3.599z M68.89,27.121c-0.064,0.041-0.139,0.004-0.197-0.103
			c-0.007-0.012,0.062-0.064,0.096-0.099c0.068-0.034,0.14-0.003,0.198,0.104C68.994,27.036,68.93,27.097,68.89,27.121z
			 M69.807,3.906c-0.068,0.033-0.139,0.001-0.198-0.104c-0.007-0.013,0.058-0.073,0.098-0.098c0.064-0.04,0.139-0.004,0.196,0.103
			C69.91,3.819,69.841,3.872,69.807,3.906z M72.556,26.005c0.039,0.024,0.104,0.085,0.097,0.097
			c-0.059,0.107-0.134,0.144-0.197,0.103c-0.04-0.024-0.069-0.065-0.103-0.099C72.421,26.003,72.492,25.964,72.556,26.005z
			 M73.467,28.041c-0.292,0.023-0.585,0.036-0.878,0.047c-0.042,0.002-0.107-0.016-0.126-0.047
			c-0.194-0.313-0.502-0.247-0.793-0.264c-0.08-0.004-0.153-0.096-0.23-0.147c0.079-0.05,0.152-0.129,0.238-0.145
			c0.145-0.022,0.298-0.006,0.48-0.006c0.235-0.049,0.438,0.047,0.615,0.252c0.047,0.056,0.179,0.041,0.273,0.053
			c0.142,0.019,0.286,0.027,0.427,0.055c0.039,0.008,0.097,0.068,0.094,0.101C73.562,27.978,73.505,28.038,73.467,28.041z
			 M73.373,26.511c-0.04-0.025-0.104-0.086-0.097-0.098c0.058-0.106,0.13-0.139,0.198-0.104c0.034,0.033,0.103,0.087,0.096,0.099
			C73.511,26.515,73.436,26.551,73.373,26.511z M73.885,4.416c0.008-0.04,0.059-0.088,0.101-0.102
			c0.087-0.029,0.182-0.043,0.273-0.049c0.042-0.003,0.09,0.022,0.126,0.046c0.041,0.027,0.098,0.068,0.098,0.104
			c0,0.034-0.058,0.076-0.098,0.103c-0.036,0.024-0.083,0.034-0.126,0.05C74.098,4.586,73.87,4.497,73.885,4.416z M75.054,31.04
			c-0.053,0.106-0.137,0.137-0.252,0.106c-0.046-0.011-0.106,0.015-0.146-0.005c-0.109-0.053-0.151-0.129-0.114-0.196
			c0.022-0.041,0.062-0.084,0.104-0.102c0.042-0.018,0.097-0.004,0.146-0.004C74.982,30.842,75.105,30.937,75.054,31.04z
			 M75.215,28.694c-0.14,0.025-0.288,0.007-0.433,0.007c-0.308,0.174-0.343,0.208-0.376,0.236c-0.026,0.021-0.073,0.048-0.094,0.038
			c-0.113-0.058-0.122-0.118-0.06-0.191c0.041-0.048,0.088-0.072,0.14-0.081c-0.001-0.036,0.031-0.072,0.102-0.146
			c0.062-0.063,0.141-0.147,0.218-0.153c0.188-0.017,0.38,0.003,0.569,0.021c0.037,0.003,0.102,0.088,0.098,0.094
			C75.331,28.585,75.279,28.682,75.215,28.694z M75.85,26.861c-0.195,0.027-0.396,0.008-0.595,0.008c-0.05,0-0.101-0.01-0.148,0.001
			c-0.403,0.097-0.648-0.139-0.871-0.414c-0.016-0.02-0.006-0.076,0.011-0.103c0.027-0.038,0.071-0.092,0.107-0.091
			c0.14,0.002,0.291-0.049,0.405,0.103c0.085,0.112,0.182,0.219,0.363,0.203c0.247-0.021,0.497-0.009,0.744-0.001
			c0.037,0.002,0.083,0.06,0.104,0.103C76.004,26.738,75.963,26.845,75.85,26.861z M81.145,0.298
			c0.146-0.025,0.298-0.007,0.557-0.007c0.037,0.005,0.18,0.02,0.321,0.051c0.041,0.009,0.099,0.066,0.099,0.102
			s-0.057,0.088-0.099,0.104c-0.288,0.104-0.586,0.038-0.879,0.041c-0.078,0.002-0.157-0.094-0.236-0.145
			C80.986,0.393,81.06,0.312,81.145,0.298z M79.023,27.378c-0.034,0.033-0.087,0.103-0.1,0.096
			c-0.107-0.058-0.144-0.133-0.103-0.196c0.025-0.04,0.085-0.104,0.097-0.099C79.025,27.238,79.057,27.31,79.023,27.378z
			 M79.68,30.84c-0.049,0-0.104,0.014-0.146-0.004c-0.042-0.018-0.081-0.061-0.104-0.102c-0.037-0.067,0.005-0.144,0.114-0.196
			c0.04-0.02,0.096-0.004,0.146-0.004c0.113-0.034,0.199-0.001,0.251,0.104S79.87,30.839,79.68,30.84z M81.694,28.063
			c-0.39,0.015-0.781,0.028-1.171,0.021c-0.077-0.001-0.183-0.082-0.221-0.153c-0.072-0.136-0.01-0.176,0.142-0.149
			c0.144,0.023,0.295,0.005,0.443,0.005c-0.323-0.101-0.515-0.163-0.631-0.204c0.016,0.019,0.03,0.041,0.038,0.061
			c0.055,0.143,0.005,0.168-0.143,0.149c-0.19-0.024-0.388,0.008-0.579-0.014c-0.061-0.008-0.115-0.108-0.162-0.174
			c-0.004-0.007,0.059-0.085,0.099-0.095c0.09-0.021,0.186-0.021,0.348-0.035c0.107,0.025,0.197,0.047,0.291,0.068
			c-0.086-0.034-0.019-0.021,0.051-0.003c0.011,0.003,0.022,0.015,0.033,0.022c0.951,0.22,1.176,0.214,1.394,0.231
			c0.062,0.005,0.12,0.108,0.17,0.174C81.798,27.971,81.73,28.061,81.694,28.063z M82.076,31.347
			c-0.025,0.041-0.085,0.105-0.097,0.098c-0.107-0.057-0.14-0.129-0.105-0.197c0.034-0.034,0.087-0.104,0.1-0.096
			C82.081,31.21,82.117,31.284,82.076,31.347z M81.768,3.346c-0.046-0.003-0.243-0.02-0.439-0.036
			c-0.188-0.316-0.496-0.273-0.794-0.271c-0.404,0.004-0.807-0.01-1.209,0.005c-0.262,0.01-0.478-0.027-0.659-0.248
			c-0.099-0.119-0.279-0.061-0.424-0.059c-0.155,0.003-0.292-0.021-0.389-0.155c0.071-0.071,0.136-0.151,0.215-0.212
			c0.105-0.08,0.105-0.156-0.034-0.211c-0.087-0.035-0.2-0.005-0.285-0.042c-0.07-0.029-0.173-0.126-0.163-0.172
			c0.025-0.108,0.131-0.139,0.24-0.129c0.1,0.009,0.201,0.001,0.302,0.002c0.24,0.001,0.24,0.001,0.335,0.358
			c0.066,0.246,0.066,0.247,0.29,0.253c0.243,0.005,0.506-0.065,0.675,0.198c0.026,0.042,0.069,0.102,0.106,0.103
			c0.504,0.007,1.008,0.013,1.511-0.005c0.075-0.003,0.161-0.116,0.215-0.197c0.084-0.124,0.151-0.13,0.216,0.013
			c0.124,0.276,0.477,0.101,0.623,0.319c0.128,0.191,0.333,0.17,0.518,0.214c0.042,0.01,0.072,0.067,0.107,0.104
			c-0.067,0.056-0.129,0.152-0.202,0.16C82.323,3.36,82.12,3.346,81.768,3.346z M82.536,28.345
			c-0.034-0.033-0.103-0.087-0.096-0.099c0.058-0.106,0.133-0.143,0.197-0.103c0.04,0.025,0.104,0.085,0.097,0.097
			C82.676,28.348,82.604,28.379,82.536,28.345z M83.904,2.942c-0.101,0.156-0.437,0.149-0.503-0.008
			c-0.012-0.028-0.008-0.076,0.008-0.101c0.025-0.04,0.065-0.089,0.105-0.095c0.096-0.014,0.197-0.015,0.293,0
			c0.039,0.007,0.07,0.064,0.105,0.1C83.911,2.873,83.921,2.916,83.904,2.942z M84.111,28.695c-0.011,0.007-0.072-0.057-0.097-0.097
			c-0.041-0.063-0.004-0.139,0.103-0.197c0.013-0.007,0.065,0.063,0.1,0.097C84.25,28.566,84.218,28.638,84.111,28.695z
			 M84.675,1.156c-0.034-0.034-0.104-0.087-0.097-0.099c0.059-0.106,0.133-0.144,0.197-0.104c0.04,0.024,0.104,0.086,0.098,0.098
			C84.814,1.158,84.743,1.19,84.675,1.156z M86.861,29.308c-0.012,0.006-0.072-0.059-0.097-0.099
			c-0.041-0.063-0.004-0.138,0.103-0.197c0.012-0.006,0.065,0.063,0.099,0.098C87,29.176,86.968,29.248,86.861,29.308z M87.27,1.41
			c-0.025,0.039-0.085,0.104-0.097,0.098c-0.107-0.059-0.139-0.131-0.105-0.199c0.034-0.033,0.087-0.103,0.1-0.096
			C87.274,1.271,87.31,1.346,87.27,1.41z M90.125,1.615c0.025-0.04,0.085-0.104,0.097-0.097c0.107,0.059,0.138,0.13,0.104,0.198
			c-0.033,0.034-0.086,0.103-0.099,0.096C90.121,1.755,90.084,1.68,90.125,1.615z M90.624,4.475
			c-0.062,0.093-0.147,0.103-0.261,0.098c-0.299-0.014-0.599-0.014-0.898,0c-0.115,0.005-0.197-0.007-0.258-0.106
			c-0.205-0.329-0.535-0.162-0.813-0.208c-0.041-0.006-0.083-0.061-0.104-0.104c-0.034-0.069,0.011-0.181,0.122-0.189
			c0.297-0.024,0.598-0.009,0.898-0.009c0.2,0,0.404,0.026,0.599-0.005c0.296-0.049,0.449,0.134,0.626,0.308
			C90.624,4.349,90.67,4.403,90.624,4.475z M90.786,2.071c-0.04-0.025-0.068-0.066-0.103-0.101c0.067-0.102,0.138-0.14,0.202-0.1
			c0.04,0.024,0.104,0.085,0.098,0.098C90.924,2.074,90.85,2.111,90.786,2.071z M93.329,0.344c0.04,0.024,0.104,0.085,0.098,0.097
			c-0.059,0.107-0.133,0.144-0.197,0.104c-0.04-0.025-0.069-0.066-0.103-0.101C93.195,0.342,93.265,0.303,93.329,0.344z
			 M92.567,0.393c0.034-0.033,0.087-0.104,0.099-0.097c0.107,0.059,0.143,0.134,0.104,0.197c-0.025,0.04-0.086,0.104-0.098,0.098
			C92.564,0.532,92.533,0.46,92.567,0.393z M92.108,0.647c0.034,0.033,0.103,0.086,0.096,0.099
			c-0.059,0.106-0.133,0.144-0.197,0.104c-0.04-0.024-0.104-0.086-0.097-0.098C91.968,0.645,92.041,0.613,92.108,0.647z
			 M91.463,2.116c-0.113-0.017-0.155-0.122-0.119-0.19c0.021-0.044,0.063-0.097,0.104-0.104c0.097-0.014,0.198-0.004,0.297-0.004
			s0.206-0.022,0.296,0.006c0.113,0.036,0.155,0.124,0.12,0.192c-0.021,0.043-0.066,0.101-0.104,0.103
			C91.859,2.129,91.657,2.145,91.463,2.116z M94.477,5.171c-0.298,0.02-0.599,0.003-0.899,0.001c-0.222-0.369-0.585-0.302-0.928-0.3
			c-0.301,0.002-0.601,0.003-0.9-0.007c-0.037-0.001-0.085-0.061-0.104-0.104c-0.029-0.071,0.022-0.182,0.131-0.187
			c0.4-0.019,0.801-0.008,1.202-0.008c0.251,0,0.503,0.019,0.751-0.005c0.189-0.019,0.273,0.107,0.362,0.215
			c0.121,0.145,0.274,0.071,0.411,0.104c0.042,0.01,0.087,0.061,0.104,0.104C94.638,5.057,94.587,5.164,94.477,5.171z M94.885,0.898
			c-0.16-0.095-0.301-0.235-0.472-0.292c-0.177-0.06-0.38-0.037-0.57-0.062c-0.039-0.006-0.07-0.066-0.105-0.102
			c0.035-0.034,0.066-0.094,0.105-0.101c0.19-0.031,0.381-0.047,0.694-0.082c0.225-0.057,0.413,0.175,0.629,0.378
			c0.109,0.103,0.135,0.146-0.006,0.214c-0.041,0.021-0.084,0.04-0.128,0.047C94.983,0.907,94.922,0.92,94.885,0.898z M95.559,2.735
			c-0.1-0.001-0.198-0.001-0.297-0.001c-0.05,0-0.105,0.014-0.147-0.004c-0.042-0.017-0.083-0.061-0.104-0.103
			c-0.036-0.069,0.005-0.167,0.119-0.191c0.143-0.03,0.296-0.007,0.445-0.007c0.114-0.035,0.195,0.001,0.255,0.104
			C95.886,2.63,95.747,2.735,95.559,2.735z M96.862,5.478c-0.145,0.024-0.299,0.024-0.444,0c-0.084-0.014-0.158-0.095-0.236-0.146
			c0.078-0.051,0.151-0.122,0.236-0.146c0.092-0.025,0.197-0.006,0.297-0.006c0.05,0,0.107-0.017,0.147,0.004
			c0.083,0.039,0.158,0.098,0.236,0.148C97.02,5.383,96.946,5.464,96.862,5.478z M101.198,1.848c0.09-0.021,0.185-0.021,0.348-0.036
			c0.12,0.043,0.225,0.081,0.319,0.115c-0.156-0.086-0.069-0.072,0.022-0.05c0.036,0.01,0.07,0.052,0.088,0.091
			c0.514,0.193,0.611,0.265,0.595,0.335c-0.019,0.086-0.226,0.158-0.374,0.125c-0.041-0.01-0.083-0.033-0.117-0.06
			c-0.036-0.028-0.076-0.063-0.092-0.104c-0.054-0.14-0.003-0.186,0.141-0.143c0.043,0.012,0.094,0.002,0.142,0.002
			c-0.126-0.058-0.215-0.1-0.288-0.136c0.047,0.132,0.001,0.16-0.144,0.141c-0.19-0.023-0.387,0.009-0.579-0.013
			c-0.061-0.008-0.115-0.108-0.162-0.174C101.095,1.936,101.158,1.857,101.198,1.848z M98.39,5.783c-0.145,0.023-0.3,0.023-0.445,0
			c-0.084-0.015-0.157-0.096-0.236-0.146c0.079-0.05,0.15-0.123,0.236-0.146c0.093-0.026,0.197-0.007,0.31-0.007
			c0.142-0.017,0.274,0.023,0.371,0.153C98.547,5.688,98.474,5.769,98.39,5.783z M98.884,1.611c-0.12-0.149-0.272-0.074-0.41-0.103
			C98.433,1.5,98.39,1.448,98.369,1.405c-0.034-0.07,0.011-0.181,0.122-0.19c0.297-0.022,0.598-0.007,0.898-0.007
			c0.314,0.472,0.8,0.262,1.222,0.309c0.039,0.004,0.083,0.061,0.104,0.104c0.035,0.07-0.011,0.181-0.121,0.19
			c-0.298,0.023-0.599,0.008-0.899,0.008c-0.149,0-0.302-0.018-0.448,0.004C99.059,1.85,98.972,1.72,98.884,1.611z M102.698,6.698
			c-0.201,0.021-0.406,0.008-0.762,0.008c-0.047-0.004-0.245-0.02-0.444-0.035c-0.19-0.32-0.504-0.292-0.804-0.266
			c-0.274,0.023-0.491-0.049-0.651-0.273c-0.148-0.014-0.296-0.026-0.443-0.036c-0.214-0.014-0.371-0.097-0.329-0.18
			c0.055-0.104,0.143-0.143,0.252-0.127c0.051,0.006,0.102,0.001,0.153,0.001c0.349-0.008,0.716-0.069,0.941,0.306
			c0.204,0,0.408,0,0.611,0c0.201,0,0.205-0.007,0.519,0.22c0.084,0.061,0.156,0.093,0.271,0.09
			c0.251-0.008,0.504,0.003,0.756,0.019c0.038,0.001,0.107,0.093,0.103,0.099C102.819,6.589,102.762,6.69,102.698,6.698z
			 M104.633,2.684c-0.068,0.034-0.139,0.003-0.198-0.104c-0.007-0.013,0.058-0.072,0.097-0.097c0.064-0.041,0.139-0.004,0.197,0.103
			C104.736,2.597,104.667,2.649,104.633,2.684z M105.098,2.941c-0.017-0.025-0.006-0.068-0.009-0.103
			c0.07-0.155,0.403-0.163,0.504-0.006c0.017,0.025,0.02,0.073,0.007,0.102C105.535,3.089,105.201,3.094,105.098,2.941z
			 M107.634,2.118c-0.012,0.006-0.065-0.062-0.099-0.097c-0.034-0.068-0.002-0.14,0.105-0.197c0.012-0.007,0.072,0.058,0.097,0.097
			C107.777,1.985,107.742,2.06,107.634,2.118z M109.775,2.424c-0.502,0.007-1.004,0.016-1.506-0.003
			c-0.109-0.003-0.158-0.118-0.125-0.188c0.021-0.044,0.067-0.103,0.104-0.104c0.25-0.009,0.502-0.004,0.753-0.004
			c0.251,0,0.504-0.018,0.752,0.008c0.113,0.011,0.158,0.118,0.125,0.189C109.859,2.364,109.812,2.424,109.775,2.424z
			 M113.087,35.98c-0.04-0.024-0.07-0.066-0.104-0.101c0.068-0.101,0.139-0.14,0.203-0.1c0.04,0.025,0.104,0.085,0.097,0.097
			C113.225,35.984,113.151,36.021,113.087,35.98z M113.545,33.484c-0.052,0.105-0.137,0.136-0.251,0.106
			c-0.046-0.012-0.106,0.015-0.146-0.004c-0.109-0.054-0.151-0.13-0.115-0.197c0.023-0.042,0.063-0.085,0.104-0.102
			c0.042-0.018,0.096-0.004,0.146-0.004C113.473,33.286,113.597,33.38,113.545,33.484z M114.359,33.288
			c0.097-0.014,0.198-0.004,0.297-0.004c0.1,0,0.206-0.022,0.296,0.006c0.114,0.035,0.155,0.124,0.12,0.191
			c-0.021,0.043-0.066,0.102-0.104,0.104c-0.198,0.01-0.4,0.024-0.594-0.004c-0.112-0.016-0.154-0.121-0.119-0.19
			C114.277,33.348,114.319,33.294,114.359,33.288z M115.067,37.46c-0.025,0.039-0.066,0.091-0.106,0.096
			c-0.098,0.014-0.198,0.005-0.297,0.005c-0.1,0-0.208,0.024-0.296-0.007c-0.116-0.039-0.151-0.13-0.108-0.197
			c0.025-0.04,0.068-0.096,0.105-0.098c0.199-0.009,0.401-0.026,0.595,0.006C115.076,37.282,115.111,37.392,115.067,37.46z"/>
		<path fill="#DFCB34" d="M80.147,27.542c0.023,0.009,0.061,0.022,0.109,0.039c-0.008-0.009-0.017-0.012-0.025-0.02
			C80.205,27.557,80.173,27.548,80.147,27.542z"/>
	</g>
	<g>
		<path fill="#716558" d="M64.058,12.733c0.031-0.096,0.199-0.102,0.503-0.02c0.469,0.195,0.606,0.632,0.41,1.309
			c-1.177,2.193-1.84,3.358-1.991,3.496l-0.066,0.335l-0.133,0.358c-0.019,0.04-0.05,0.056-0.094,0.047l0.009,0.133l-0.125,0.308
			c-0.045,0.125-0.092,0.183-0.136,0.174l-0.06,0.32l-0.292,0.741c1.072-0.412,2.066-0.866,2.983-1.363
			c0.086,0.028,0.23-0.032,0.434-0.181c0.084,0.028,0.171,0.038,0.26,0.031l-0.004-0.148c0.023-0.075,0.169-0.086,0.438-0.032
			l-0.004-0.148c0.018-0.065,0.216-0.148,0.594-0.252c-0.061,0.154-0.05,0.251,0.03,0.288c0.037-0.104,0.204-0.228,0.502-0.368
			l-0.12-0.057l0.056-0.12c0.08,0.038,0.134,0.015,0.162-0.07c0.075,0.048,0.101,0.109,0.078,0.184l-0.116,0.092l0.187,0.069
			c0.074-0.185,0.3-0.328,0.679-0.432c0.066,0.067,0.119,0.111,0.159,0.13c0.014-0.03,0.159-0.09,0.433-0.181l0.126-0.308
			l0.127,0.042c-0.038,0.08-0.037,0.129,0.003,0.147c0.08,0.038,0.32-0.081,0.718-0.357c0.02,0.009,0.111,0.021,0.274,0.037
			l-0.028,0.06c0.553-0.033,1.05-0.142,1.491-0.325l0.494,0.196c0.241,0.345,0.295,0.682,0.166,1.012l-0.028,0.06
			c-4.24,3.928-6.708,6.388-7.405,7.378c-0.575,0.73-1.035,1.399-1.381,2.005l-0.288,0.03c-0.284-0.305-0.456-0.471-0.517-0.499
			l-0.118-0.257l0.098-0.247c0.34-0.828,1.147-1.933,2.417-3.313l0.061,0.027c0.084,0.028,0.098,0.102,0.042,0.222l0.12,0.057
			c0.042-0.091,0.155-0.189,0.341-0.298l-0.01-0.133c0.212-0.193,0.339-0.334,0.382-0.424l-0.12-0.057l-0.057,0.119l-0.127-0.041
			l0.126-0.308c0.635-0.543,2.087-1.96,4.359-4.249l-0.061-0.028c-2.167,0.665-4.14,1.539-5.918,2.619
			c-1.303,0.694-2.188,1.127-2.659,1.296l0.011,0.134c-0.112,0.288-0.292,0.387-0.542,0.294c-0.188-0.479-0.272-0.873-0.25-1.18
			l-0.14,0.025l0.011,0.134l-0.028,0.06l-0.127-0.041l0.289-1.237c0.077-0.062,0.132-0.14,0.165-0.234l0.057-0.119l-0.026-0.141
			c0.084,0.027,0.145,0.001,0.183-0.079c-0.084-0.027-0.112-0.084-0.084-0.168l0.113-0.24l0.108-0.114
			c-0.086-0.027-0.108-0.081-0.071-0.161l0.517-1.295l0.214-0.339c0.009-0.045-0.007-0.076-0.047-0.096l1.047-2.071l-0.121-0.056
			c-3.921,3.332-6.497,5.655-7.725,6.971c-0.213,0.4-0.356,0.626-0.428,0.678l0.019,0.155l-0.117,0.092
			c-0.027,0.316-0.085,0.582-0.173,0.797c-0.023,0.05-0.107,0.084-0.25,0.103l-0.127-0.042c-0.377-0.262-0.507-0.53-0.389-0.805
			c0.039,0.019,0.064,0.005,0.072-0.04l-0.06-0.027c-0.089,0.007-0.156,0.006-0.2-0.003c-0.041-0.251,0.006-0.546,0.141-0.886
			c0.586-1.141,1.068-1.634,1.447-1.48l0.056-0.12l-0.188-0.069c1.027-1.092,1.876-1.847,2.548-2.264l0.066,0.013l-0.01-0.133
			c0.068-0.065,0.113-0.124,0.137-0.174l0.061,0.028c0.092,0.142,0.211,0.264,0.357,0.369l0.028-0.06
			c-0.016-0.202,0-0.366,0.047-0.49c0.04,0.019,0.069,0.008,0.088-0.032l-0.148,0.004l-0.066-0.014
			c0.037-0.104,0.971-0.947,2.8-2.529c1.02-0.924,1.805-1.751,2.356-2.48c0.194-0.104,0.379-0.146,0.553-0.125
			C63.816,12.559,63.958,12.687,64.058,12.733z M58.336,17.35l0.061,0.028l0.056-0.12l-0.061-0.028L58.336,17.35z M58.642,17.127
			c0.085,0.027,0.141-0.001,0.168-0.086l0.084-0.18l-0.066-0.014L58.642,17.127z M60.872,20.445l0.06,0.028l0.057-0.12l-0.06-0.028
			L60.872,20.445z M60.959,20.065l0.068,0.014l0.125-0.308c-0.088-0.017-0.15,0.009-0.184,0.079
			C60.986,19.943,60.982,20.016,60.959,20.065z M61.053,19.671l0.229-0.058l0.066-0.336l0.12-0.292l-0.12-0.057L61.053,19.671z
			 M61.598,18.315l0.061,0.028l0.111-0.314l-0.061-0.028L61.598,18.315z M64.731,23.651l0.06,0.027l0.042-0.127l-0.061-0.028
			L64.731,23.651z M65.355,22.827l-0.057,0.12l-0.06-0.028l0.057-0.119L65.355,22.827z M66.253,18.27l0.127,0.041l0.097-0.247
			c-0.088-0.018-0.145,0.011-0.168,0.086L66.253,18.27z M66.546,21.813l0.061,0.028l0.041-0.127l-0.06-0.028L66.546,21.813z
			 M66.867,21.872l0.37-0.358c-0.085-0.027-0.104-0.104-0.058-0.229l-0.06-0.027c-0.061-0.028-0.207,0.104-0.443,0.396
			C66.741,21.672,66.804,21.744,66.867,21.872z M68,20.316l0.12,0.057c0.038-0.079,0.015-0.139-0.064-0.176L68,20.316z"/>
		<path fill="#716558" d="M73.02,24.214c0.509,0.239,0.646,0.779,0.41,1.62c-0.437,0.93-1.375,1.472-2.815,1.625
			c-1.074,0.313-1.912,0.329-2.511,0.047c-0.227-0.192-0.39-0.312-0.491-0.359c-0.019,0.04-0.048,0.052-0.089,0.032
			c-0.225,0.712-0.141,1.16,0.249,1.344l0.12,0.056c0.35,0.165,1.365,0.343,3.044,0.534c0.274-0.066,0.577-0.083,0.903-0.052
			l-0.057,0.12c0.061,0.028,0.148-0.004,0.265-0.096c-0.04-0.019-0.053-0.043-0.039-0.073c0.172-0.029,0.38-0.004,0.625,0.074
			c-0.028,0.085-0.006,0.144,0.064,0.176l0.078-0.165l0.06,0.028l0.099,0.102c0.073-0.051,0.12-0.097,0.138-0.137l0.059,0.028
			l-0.078,0.165l-0.204,0.123c0.04,0.02,0.054,0.044,0.04,0.073c-0.528,0.266-0.999,0.386-1.415,0.361
			c-0.071,0.15-0.79,0.227-2.159,0.229c-0.693-0.057-1.245-0.182-1.655-0.374c-1.029-0.484-1.487-1.432-1.373-2.843l0.233-0.495
			l0.06,0.028l0.078-0.165l-0.12-0.057l0.084-0.18l0.061,0.028l0.092,0.116l0.242-0.362l-0.119-0.056l0.049-0.105l0.061,0.028
			l0.098,0.101c0.355-0.418,0.628-0.583,0.818-0.494l-0.002-0.147c0.416-0.365,0.754-0.567,1.015-0.604l-0.003-0.147l0.028-0.061
			c0.2,0.095,0.417-0.005,0.653-0.297c0.09,0.042,0.341-0.023,0.751-0.196c0.952-0.053,1.678,0.014,2.176,0.199L73.02,24.214z
			 M71.101,26.113c0.84-0.228,1.271-0.367,1.295-0.417l-0.01-0.133c0.08,0.037,0.138,0.016,0.176-0.064
			c-0.079-0.037-0.093-0.11-0.042-0.221l0.194-0.257c-0.066-0.067-0.119-0.111-0.159-0.13c-0.722-0.204-1.725,0.008-3.009,0.637
			c-0.532,0.3-0.869,0.55-1.012,0.751C68.822,26.366,69.677,26.312,71.101,26.113z"/>
		<path fill="#716558" d="M76.548,28.16c-0.061,0.13-0.573,0.598-1.536,1.401l0.06,0.028c1.2-0.192,2.175-0.394,2.92-0.604
			l0.301,0.142c0.654,0.478,0.873,0.946,0.656,1.406l-0.201,0.272c-0.414,0.88-0.425,1.631-0.033,2.254l0.18,0.085
			c0.359,0.169,0.944,0.224,1.754,0.165l0.06,0.028c-0.019,0.04-0.008,0.069,0.032,0.088c0.052-0.11,0.229-0.124,0.533-0.043
			c0.072-0.101,0.546-0.122,1.421-0.063l-0.056,0.119c-0.273,0.58-1.441,0.935-3.503,1.064l-0.628-0.223
			c-0.707-0.625-1.109-1.327-1.208-2.105c-0.069-0.374,0.017-0.969,0.253-1.785l-0.061-0.028c-0.733,0.132-2.293,0.595-4.68,1.389
			c-0.075,0.16-0.222,0.214-0.442,0.159c-0.18-0.084-0.282-0.279-0.31-0.585c-0.149-0.07-0.128-0.378,0.066-0.921
			c0.973-1.239,1.88-2.181,2.718-2.823c0.42-0.634,0.84-0.852,1.26-0.654C76.483,27.104,76.632,27.517,76.548,28.16z"/>
		<path fill="#716558" d="M85.784,30.798c0.329,0.289,0.437,0.59,0.325,0.904l-0.062,0.172c-1.498,1.163-2.488,2.139-2.968,2.926
			c-0.136,0.498-0.021,0.741,0.344,0.729c0.365-0.011,0.606-0.063,0.723-0.154c0.146-0.127,0.352-0.243,0.622-0.349l0.061,0.028
			l0.479-0.397c0.145-0.152,0.353-0.268,0.622-0.349c0.059-0.021,0.093-0.054,0.102-0.099c0.148-0.162,0.269-0.234,0.357-0.217
			l0.118-0.055c0.099-0.185,0.374-0.288,0.822-0.31c0.394-0.059,0.712,0.188,0.953,0.741c0.028,0.354-0.036,0.691-0.191,1.009
			s-0.362,0.843-0.621,1.576c-0.032,0.326-0.005,0.504,0.079,0.531c0.246,0.36,0.91,0.324,1.992-0.107l0.06,0.027l-0.041,0.128
			l0.186,0.068c0.677-0.268,1.088-0.379,1.238-0.333c-0.009,0.044,0.007,0.076,0.046,0.095c-0.494,0.561-1.195,0.946-2.099,1.156
			c-0.403,0.104-0.835,0.193-1.298,0.269c-0.687-0.25-1.099-0.584-1.232-1c-0.208-0.074-0.214-0.596-0.016-1.564
			c0.197-0.444,0.356-0.834,0.476-1.168l-2.32,1.235c-0.624,0.391-1.139,0.515-1.547,0.371c-0.753-0.269-1.165-0.834-1.235-1.697
			c0.147-0.676,0.285-1.19,0.415-1.544c0.496-0.719,0.824-1.054,0.983-1.003l0.043-0.327c1.12-0.719,1.798-1.163,2.036-1.332
			c0.075,0.022,0.174,0.008,0.295-0.044L85.784,30.798z M88.18,31.43c0.459,0.216,0.872,0.331,1.238,0.344
			c0.362,0.023,0.764,0.097,1.206,0.219c0.12,0.032,0.309,0.063,0.57,0.094c0.26,0.031,0.477,0.068,0.651,0.114
			c0.144,0.031,0.324,0.006,0.54-0.076c0.201-0.076,0.338-0.207,0.413-0.392c0.162-0.448-0.177-0.703-1.016-0.762
			c-0.567-0.04-1.313-0.089-2.238-0.146l-1.539-0.155l-0.93,0.112L88.18,31.43z"/>
	</g>
</g>
</svg>
