<?xml version="1.0" encoding="utf-8"?>
<!-- Generator: Adobe Illustrator 16.0.0, SVG Export Plug-In . SVG Version: 6.00 Build 0)  -->
<!DOCTYPE svg PUBLIC "-//W3C//DTD SVG 1.1//EN" "http://www.w3.org/Graphics/SVG/1.1/DTD/svg11.dtd">
<svg version="1.1" id="Layer_1" xmlns="http://www.w3.org/2000/svg" xmlns:xlink="http://www.w3.org/1999/xlink" x="0px" y="0px"
	 width="57.422px" height="57.422px" viewBox="0 0 57.422 57.422" enable-background="new 0 0 57.422 57.422" xml:space="preserve">
<path fill="#FFFFFF" d="M57.422,46.656c0,5.943-4.822,10.767-10.767,10.767H10.767C4.823,57.422,0,52.599,0,46.656V10.767
	C0,4.823,4.823,0,10.767,0h35.889C52.6,0,57.422,4.823,57.422,10.767V46.656z M34.057,26.656H20.524v4.934h8.112
	c-0.299,2.094-2.43,6.169-8.112,6.169c-4.935,0-8.935-4.038-8.935-9.047s4-9.047,8.935-9.047c2.767,0,4.636,1.159,5.72,2.206
	l3.889-3.776c-2.505-2.317-5.758-3.738-9.608-3.738c-7.963,0-14.355,6.431-14.355,14.355s6.393,14.355,14.355,14.355
	c8.263,0,13.758-5.832,13.758-14.019C34.281,28.113,34.169,27.365,34.057,26.656z M51.254,30.767v-4.111h-4.075v-4.113h-4.112v4.113
	h-4.112v4.111h4.112v4.113h4.112v-4.113H51.254z"/>
</svg>
