<?xml version="1.0" encoding="utf-8"?>
<!-- Generator: Adobe Illustrator 16.0.0, SVG Export Plug-In . SVG Version: 6.00 Build 0)  -->
<!DOCTYPE svg PUBLIC "-//W3C//DTD SVG 1.1//EN" "http://www.w3.org/Graphics/SVG/1.1/DTD/svg11.dtd">
<svg version="1.1" id="Layer_1" xmlns="http://www.w3.org/2000/svg" xmlns:xlink="http://www.w3.org/1999/xlink" x="0px" y="0px"
	 width="57.422px" height="57.422px" viewBox="0 0 57.422 57.422" enable-background="new 0 0 57.422 57.422" xml:space="preserve">
<path fill="#FFFFFF" d="M57.422,10.767v35.889c0,5.943-4.822,10.767-10.767,10.767h-7.028V35.179h7.439l1.122-8.674h-8.562v-5.532
	c0-2.505,0.673-4.187,4.299-4.187l4.562-0.038V9.01c-0.785-0.112-3.515-0.337-6.654-0.337c-6.617,0-11.178,4.037-11.178,11.439
	v6.393h-7.478v8.674h7.478v22.243H10.767C4.823,57.422,0,52.599,0,46.656V10.767C0,4.823,4.823,0,10.767,0h35.889
	C52.6,0,57.422,4.823,57.422,10.767z"/>
</svg>
