<?xml version="1.0" encoding="utf-8"?>
<!-- Generator: Adobe Illustrator 16.0.0, SVG Export Plug-In . SVG Version: 6.00 Build 0)  -->
<!DOCTYPE svg PUBLIC "-//W3C//DTD SVG 1.1//EN" "http://www.w3.org/Graphics/SVG/1.1/DTD/svg11.dtd">
<svg version="1.1" id="Layer_1" xmlns="http://www.w3.org/2000/svg" xmlns:xlink="http://www.w3.org/1999/xlink" x="0px" y="0px"
	 width="57.422px" height="57.422px" viewBox="31.113 31.113 57.422 57.422" enable-background="new 31.113 31.113 57.422 57.422"
	 xml:space="preserve">
<path fill="#FFFFFF" d="M88.348,71.674c-0.225,4.599-1.271,8.674-4.636,12.037c-3.365,3.365-7.439,4.412-12.038,4.637
	c-3.963,0.225-7.888,0.187-11.851,0.187s-7.888,0.038-11.851-0.187c-4.599-0.225-8.673-1.271-12.038-4.637
	c-3.364-3.363-4.411-7.438-4.636-12.037c-0.224-3.963-0.187-7.888-0.187-11.851s-0.037-7.888,0.187-11.851
	c0.225-4.599,1.271-8.674,4.636-12.037c3.365-3.365,7.439-4.412,12.038-4.637c3.963-0.225,7.888-0.187,11.851-0.187
	s7.888-0.038,11.851,0.187c4.599,0.225,8.673,1.271,12.038,4.637c3.364,3.363,4.411,7.438,4.636,12.037
	c0.224,3.963,0.187,7.888,0.187,11.851S88.572,67.711,88.348,71.674z M42.889,37.43c-1.309,0.523-2.281,1.159-3.29,2.169
	c-1.01,1.009-1.646,1.981-2.168,3.29c-1.496,3.775-1.159,12.748-1.159,16.935s-0.337,13.159,1.159,16.935
	c0.522,1.309,1.158,2.281,2.168,3.29c1.009,1.01,1.981,1.646,3.29,2.169c3.775,1.494,12.747,1.158,16.935,1.158
	s13.159,0.336,16.935-1.158c1.309-0.523,2.281-1.159,3.29-2.169c1.01-1.009,1.646-1.981,2.168-3.29
	c1.496-3.775,1.159-12.748,1.159-16.935s0.337-13.159-1.159-16.935c-0.522-1.309-1.158-2.281-2.168-3.29
	c-1.009-1.01-1.981-1.646-3.29-2.169c-3.775-1.494-12.747-1.158-16.935-1.158S46.664,35.936,42.889,37.43z M59.823,74.553
	c-8.149,0-14.729-6.58-14.729-14.729s6.58-14.729,14.729-14.729s14.729,6.58,14.729,14.729S67.973,74.553,59.823,74.553z
	 M59.823,50.253c-5.271,0-9.57,4.3-9.57,9.57s4.299,9.57,9.57,9.57s9.57-4.3,9.57-9.57S65.095,50.253,59.823,50.253z M75.151,47.936
	c-1.906,0-3.439-1.533-3.439-3.439s1.533-3.439,3.439-3.439c1.907,0,3.439,1.533,3.439,3.439S77.058,47.936,75.151,47.936z"/>
</svg>
